<svg height="64" viewBox="0 0 64 64" width="64" xmlns="http://www.w3.org/2000/svg"><g fill="none" fill-rule="evenodd"><path d="m27.4348249 22.8723205c-16.1048675 4.0534325-21.93159607 18.1276795-21.93159607 18.1276795-6.77709331-17.1769743 11.33073697-28.6823004 15.26169397-30.9366302l-3.3482128-6.42994337c-.5108405-.98102355-.0615597-1.56441078 1.0192681-1.29916132l20.3707758 4.99925795c1.0737667.26351656 1.6146808 1.31447198 1.2142625 2.33188254l-7.6482527 19.4332104c-.4031481 1.0243466-1.1430758 1.0613995-1.6549228.0784433z" fill="#22ba8e"/><path d="m49.4348249 44.8723205c-16.1048675 4.0534325-21.9315961 18.1276795-21.9315961 18.1276795-6.7770933-17.1769743 11.330737-28.6823004 15.261694-30.9366302l-3.3482128-6.4299434c-.5108405-.9810235-.0615597-1.5644107 1.0192681-1.2991613l20.3707758 4.999258c1.0737667.2635165 1.6146808 1.3144719 1.2142625 2.3318825l-7.6482527 19.4332104c-.4031481 1.0243466-1.1430758 1.0613995-1.6549228.0784433z" fill="#e43535" transform="matrix(-1 0 0 -1 88 87)"/></g></svg>