<?xml version="1.0" encoding="UTF-8" standalone="no" ?>
<!DOCTYPE svg PUBLIC "-//W3C//DTD SVG 1.1//EN" "http://www.w3.org/Graphics/SVG/1.1/DTD/svg11.dtd">
<svg xmlns="http://www.w3.org/2000/svg" xmlns:xlink="http://www.w3.org/1999/xlink" version="1.1" width="1080" height="1080" viewBox="0 0 1080 1080" xml:space="preserve">
<desc>Created with Fabric.js 5.2.4</desc>
<defs>
</defs>
<rect x="0" y="0" width="100%" height="100%" fill="transparent"></rect>
<g transform="matrix(1 0 0 1 540 540)" id="4659e812-8fc3-47bf-86d7-32eaa8050b0f"  >
<rect style="stroke: none; stroke-width: 1; stroke-dasharray: none; stroke-linecap: butt; stroke-dashoffset: 0; stroke-linejoin: miter; stroke-miterlimit: 4; fill: rgb(255,255,255); fill-rule: nonzero; opacity: 1; visibility: hidden;" vector-effect="non-scaling-stroke"  x="-540" y="-540" rx="0" ry="0" width="1080" height="1080" />
</g>
<g transform="matrix(1 0 0 1 540 540)" id="ede01a9a-ea17-4a81-ac4b-ee58587474ee"  >
</g>
<g transform="matrix(1 0 0 1 540 540)"  >
<g style="" vector-effect="non-scaling-stroke"   >
		<g transform="matrix(1 0 0 1 64 64)"  >
<path style="stroke: none; stroke-width: 1; stroke-dasharray: none; stroke-linecap: butt; stroke-dashoffset: 0; stroke-linejoin: miter; stroke-miterlimit: 4; fill: rgb(82,198,114); fill-rule: nonzero; opacity: 1;" vector-effect="non-scaling-stroke"  transform=" translate(-320, -320)" d="M 448.205 392.507 C 478.724 365.307 496.005 329.052 496.005 291.429 C 496.005 251.44499999999996 477.287 214.051 443.298 186.12899999999996 C 410.218 158.963 366.432 144 320 144 C 273.568 144 229.78199999999998 158.963 196.707 186.131 C 162.718 214.051 144 251.445 144 291.429 C 144 331.41299999999995 162.718 368.80699999999996 196.707 396.729 C 229.78199999999998 423.897 273.568 438.859 320 438.859 C 326.187 438.859 332.412 438.58599999999996 338.585 438.043 L 349.131 447.184 C 385.46263085239707 478.6668967375924 431.9254726061913 495.9981981386364 479.99999999999994 496 L 496 496 L 496 461.943 L 491.314 457.258 C 472.82813385459997 438.71754134093976 458.17912049698936 416.71428763710435 448.205 392.50699999999995 Z M 370.089 423 L 348.928 404.659 L 341.872 405.524 C 334.6151076277129 406.41142561300387 327.31095143918174 406.85658107200686 320 406.8570000000001 C 240.6 406.857 176 355.076 176 291.42900000000003 C 176 227.78200000000004 240.6 176 320 176 C 399.4 176 464 227.781 464 291.429 C 464 323.13899999999995 448.18 352.743 419.454 374.787 L 410.23900000000003 381.858 L 414.49100000000004 393.89300000000003 C 423.2047137290561 418.4726790354313 436.01265122074585 441.40166633478 452.37300000000005 461.7100000000001 C 421.9054731463391 456.6242738382269 393.4323423761663 443.2292651838908 370.089 423 Z" stroke-linecap="round" />
</g>
		<g transform="matrix(1 0 0 1 -76.09 -72)"  >
<path style="stroke: none; stroke-width: 1; stroke-dasharray: none; stroke-linecap: butt; stroke-dashoffset: 0; stroke-linejoin: miter; stroke-miterlimit: 4; fill: rgb(82,198,114); fill-rule: nonzero; opacity: 1;" vector-effect="non-scaling-stroke"  transform=" translate(-179.92, -184)" d="M 60.185 317.476 C 75.16226242854664 298.51731365704853 86.92166035684302 277.2258710106734 94.993 254.45299999999995 L 99.213 242.478 L 90.006 235.412 C 62.918 214.626 48 186.728 48 156.857 C 48 96.833 109.009 48 184 48 C 239.168 48 286.767 74.43 308.077 112.3 C 312.034 112.108 316.008 112 320 112 Q 332.027 112 343.834 113.167 C 335.599 91.832 321.297 72.356 301.634 56.206 C 270.072 30.279 228.3 16 184 16 C 139.7 16 97.928 30.279 66.364 56.206 C 33.886 82.885 16 118.63 16 156.857 C 16 192.65699999999998 32.352000000000004 227.152 61.25 253.1 C 51.81939447891058 275.7949093281032 38.03955349196801 296.42543377885966 20.686999999999983 313.829 L 16 318.515 L 16 352 L 32 352 C 61.58708387541399 351.9963202501392 90.76724122751563 345.10621375472033 117.23099999999995 331.875 C 114.32913244207512 320.87634178971473 112.62885484649465 309.5953637373966 112.16 298.23 C 96.09776812973706 307.64380734061496 78.50462872844538 314.15843092728664 60.184999999999995 317.476 Z" stroke-linecap="round" />
</g>
</g>
</g>
</svg>