<svg height="64" preserveAspectRatio="none" viewBox="0 0 64 64" width="64" xmlns="http://www.w3.org/2000/svg" xmlns:xlink="http://www.w3.org/1999/xlink"><linearGradient id="a"><stop offset="0" stop-color="#fff"/><stop offset=".175758" stop-color="#b3b3b3"/><stop offset=".309091" stop-color="#6b6b6b"/><stop offset="1" stop-color="#fff"/></linearGradient><linearGradient id="b" gradientUnits="userSpaceOnUse" x1="26.163086" x2="35.540157" xlink:href="#a" y1="35.206055" y2="37.014153"/><linearGradient id="c" gradientUnits="userSpaceOnUse" x1="22.708496" x2="40.678558" xlink:href="#a" y1="15.996094" y2="19.461103"/><linearGradient id="d" gradientUnits="userSpaceOnUse" x1="22.225098" x2="43.599598" xlink:href="#a" y1="15.446777" y2="18.152473"/><path d="m26.9067383 39.2109375-.7871094 22.3212891 3.3300781.7246094 6.8852539-2.4980469s-.1552734-12.8125-1.3720703-15.8740234l-1.7001953-5.7207031z" fill="#4f4748"/><path d="m29.484375 62.7763672-3.8793945-.8447266.8164063-23.1474609 7.1948242-1.1855469 1.8261719 6.1435547c1.2216797 3.0693359 1.3857422 15.4833984 1.3925781 16.0107422l.0039063.3544922zm-2.8500977-1.6435547 2.7807617.6044922 6.4140625-2.3271484c-.0361328-2.0810547-.2724609-12.6787109-1.3310547-15.3408203l-1.5893555-5.3398438-5.5166016.9082031z"/><path d="m26.1196289 31.8115234v4.4990234s-2.1279297 3.5449219 1.2988281 5.2373047h6.4086914s2.3847656-1.9335938 1.6357422-3.9482422l2.1464844-6.2851563z" fill="url(#b)"/><path d="m34.0039063 42.0478516h-6.7021484l-.1044922-.0517578c-1.0952148-.5410156-1.796875-1.3134766-2.0859375-2.296875-.4492188-1.5302734.2695313-3.0693359.5083008-3.5185547v-4.8486328l12.699707-.5488281-2.3291016 6.8183594c.6787109 2.2529297-1.7421875 4.2490234-1.8486328 4.3349609zm-6.4653321-1h6.1000977c.4453125-.4082031 1.8789063-1.8662109 1.3554688-3.2744141l-.0625-.1669922 1.9677734-5.7607422-10.2797852.4443359v4.1582031l-.0708008.1191406c-.0087891.0146484-.8774414 1.5-.4760742 2.8544922.1992188.6738282.6918945 1.2197267 1.4658203 1.6259767z"/><path d="m23.2705078 6.3339844s1.128418-4.2705078 4.5126953-4.5126953c3.3842773-.2412109 15.2304688-.8046875 15.875 9.3476563 0 0-2.578125 14.9882813-3.1425781 18.7753906s-9.6704102 3.7871094-12.4101563 3.3037109-8.2192383-1.8535156-7.7358398-8.7832031 2.9008789-18.1308594 2.9008789-18.1308594z" fill="url(#c)"/><path d="m31.3208008 33.96875c-1.2568359 0-2.4907227-.0849609-3.3022461-.2285156-5.7666016-1.0175781-8.5078125-4.1503906-8.1479492-9.3105469.4804688-6.8857422 2.8867188-18.0888672 2.9111328-18.2011719.0551758-.2109375 1.2675781-4.6416016 4.9658203-4.9052734.5932617-.0429688 1.5048828-.0996094 2.5703125-.0996094 8.519043 0 13.4331055 3.5214844 13.8393555 9.9140625l.0039063.0585938-.0097656.0576172c-.0263673.149414-2.5839845 15.0253906-3.1416017 18.7636718-.53125 3.5664063-6.953125 3.9511719-9.6889648 3.9511719zm-1.0029297-31.7451172c-1.0332031 0-1.9208984.0556641-2.4990234.0966797-2.9931641.2138672-4.0546875 4.1025391-4.0649414 4.1416016-.0185547.0898438-2.4101563 11.2236328-2.8852539 18.0371094-.4301758 6.1660156 3.9736328 7.6650391 7.3237305 8.2568359.7573242.1337891 1.9267578.2128906 3.128418.2128906 3.9829102 0 8.3598633-.8134766 8.7006836-3.0986328.5410156-3.6289063 2.9570313-17.6962891 3.1337891-18.7275391-.5029298-7.3691406-7.2539064-8.9189453-12.8374025-8.9189453z"/><path d="m22.8261719 8.4863281s7.6166992-.8623047 16.3193359 2.3603516v-1.2324219s-3.7138672-2.9091797-15.9995117-2.6914063z"/><path d="m22.2626953 10.984375s7.6166992-.8623047 16.3193359 2.3603516v-1.2324219s-3.7138672-2.9091797-15.9995117-2.6914063z"/><path d="m21.9550781 13.5166016s7.6166992-.8623047 16.3193359 2.3613281v-1.2333984s-3.7138672-2.9082031-15.9995117-2.6914063z"/><path d="m21.8535156 15.6572266s7.6166992-.8623047 16.3193359 2.3613281v-1.2333984s-3.7138672-2.9082031-15.9995117-2.6914063z"/><path d="m21.2900391 18.1552734s7.6166992-.8623047 16.3193359 2.3613281v-1.2333984s-3.7138672-2.9082031-15.9995117-2.6914063z"/><path d="m20.9824219 20.6884766s7.6166992-.8623047 16.3193359 2.3603516v-1.2324219s-3.7138672-2.9091797-15.9995117-2.6914063z"/><path d="m20.3232422 22.65625s7.6166992-.8623047 16.3193359 2.3613281v-1.2333984s-3.7143555-2.9082031-15.9995117-2.6914063z"/><path d="m20.015625 25.1894531s7.6166992-.8623047 16.3193359 2.3603516v-1.2324219s-3.7143555-2.9091797-15.9995117-2.6914063z"/><path d="m20.3232422 26.2373047h.9667969l.5634766 3.3037109c-.0000001 0-1.5766602-1.5302734-1.5302735-3.3037109z"/><path d="m22.2802734 26.5595703h1.0078125s-.4907227 4.1816406 2.3647461 6.0791016c0 0-4.3452148.3232422-3.3725586-6.0791016z"/><path d="m24.0458984 26.5595703 1.3198242.3222656s-.8027344 3.9619141 2.0527344 5.8603516c0 0-4.3452148.2197266-3.3725586-6.1826172z"/><path d="m26.2045898 26.8818359 1.7880859.3300781s-.7104492 5.0537109 3.8417969 6.6806641c.0000001 0-6.527832.21875-5.6298828-7.0107422z"/><path d="m29.1079102 27.3808594 1.6357422.3378906s-.6289063 2.5078125 4.2192383 5.5019531h-3.128418s-3.1518555-3.0390625-2.7265625-5.8398437z"/><path d="m24.1713867 4.3125.4692383 1.1357422h.4833984s1.043457-3.1201172 2.2944336-3.5751953c0 0-2.8310547-.163086-3.2470703 2.4394531z"/><path d="m26.4487305 5.4482422h.609375s.8027344-3.7519531 2.6542969-3.7246094l-2.2939454.1494141s-1.421875 2.0654297-.9697265 3.5751953z"/><path d="m28.0361328 5.4482422h.6811523s1.5478516-3.6064453 3.1171875-3.5771484l-2.1220703-.1474609c0-.0000001-1.9067382 1.7910155-1.6762695 3.7246093z"/><path d="m30.4223633 5.0449219h1.0673828s1.6713867-3.1738281 3.4731445-2.7929688c0 0-3.9770508-1.7998047-4.5405273 2.7929688z"/><path d="m32.3422852 5.0449219 1.3237305.4033203s2.1474609-3.4873047 4.9160156-1.7890625l-3.1191406-1.4072266c-.0000001 0-1.5576173.5927735-3.1206055 2.7929688z"/><path d="m27.418457 6.4951172s-2.0283203 7.2138672-3.53125 19.0869141h1.9077148s3.0322266-16.8984375 4.1308594-19.0869141z" fill="url(#d)"/><path d="m33.1826172 40.4199219c-1.277832.6875-1.7602539-1.9345703-.840332-2.9013672l.840332-3.0615234h2.2802734l-1.1523438 2.9814453c.0000001 0 .9677735 1.8535156-1.1279296 2.9814453z" fill="#999"/><path d="m33.6640625 42.7568359h-2.6782227l-1.0600586 18.2109375 5.0371094-1.8535156s-.1689453-11.0400391-.6523438-13.4570313z" fill="#232323"/></svg>