<svg fill="none" height="15" viewBox="0 0 14 15" width="14" xmlns="http://www.w3.org/2000/svg"><g stroke="#4147d5" stroke-linecap="round" stroke-linejoin="round" stroke-width="1.5"><path d="m7.00008 13.8751c-.71862 0-.72471-.5228-1.34381-.9689-1.07697-.7758-2.7324-1.6889-4.05048-1.8676-.23627-.0262-.45448-.1389-.612516-.3165-.158038-.1776-.244698-.4074-.243256-.6451v-7.74045c-.000009-.13888.030069-.27612.088165-.40228.058096-.12615.142832-.23822.248377-.32849.10368-.08864.22504-.1542.35601-.19233s.26855-.04796.40361-.02883c1.98492.32943 3.80073 1.31864 5.1539 2.80772z" fill="#d7e0ff"/><path d="m6.99999 13.8751c.71861 0 .7247-.5228 1.3438-.9689 1.07697-.7758 2.73241-1.6889 4.05051-1.8676.2362-.0262.4544-.1389.6125-.3165.158-.1776.2447-.4074.2432-.6451v-7.74045c.0001-.13888-.03-.27612-.0881-.40228-.0581-.12615-.1429-.23822-.2484-.32849-.1037-.08864-.225-.1542-.356-.19233s-.2686-.04796-.4036-.02883c-1.9849.32943-3.80075 1.31864-5.15391 2.80772z" fill="#fff"/></g></svg>