<svg fill="none" height="51" viewBox="0 0 51 51" width="51" xmlns="http://www.w3.org/2000/svg"><path d="m3 0h48v48h-48z" fill="#fff" fill-opacity=".01"/><g fill="#2f88ff" stroke="#000" stroke-linejoin="round" stroke-width="4"><path d="m17.3756 9.7941c.7266 0 1.396.394 1.7486 1.0293l2.4464 4.4068c.3204.577.3354 1.2749.0403 1.8652l-2.3569 4.7136s.683 3.5114 3.5415 6.3699c2.8584 2.8584 6.358 3.5296 6.358 3.5296l4.713-2.3564c.5907-.2954 1.289-.2801 1.8662.0408l4.4194 2.457c.6346.3528 1.0281 1.0219 1.0281 1.748v5.0735c0 2.5837-2.3999 4.4497-4.8479 3.6237-5.028-1.6965-12.8326-4.9267-17.7795-9.8736-4.9468-4.9468-8.177-12.7515-9.87358-17.7794-.82602-2.4481 1.04007-4.848 3.62368-4.848z"/><path d="m42 15h-12v-10h12v3l5-2v8l-5-2z" stroke-linecap="round"/></g></svg>