<svg viewBox="0 0 400 300" xmlns="http://www.w3.org/2000/svg"><path d="m227.36 218.44-108.13-20.57 20.16-105.92 129.88 24.71-16.08 84.48z" fill="#68e1fd"/><path d="m227.36 219.44h-.18l-108.13-20.59a1 1 0 0 1 -.8-1.17l20.15-105.92a1 1 0 0 1 1.17-.8l129.89 24.72a1 1 0 0 1 .79 1.16l-16.07 84.49a1 1 0 0 1 -.43.65l-25.83 17.29a1 1 0 0 1 -.56.17zm-107-22.37 106.75 20.31 25.14-16.83 15.81-83.1-127.88-24.33z" fill="#093f68"/><path d="m262.59 211.53-109.85 6.91-6.78-107.61 131.96-8.31 5.4 85.83z" fill="#fff"/><path d="m152.74 219.44a1 1 0 0 1 -1-.93l-6.74-107.61a1 1 0 0 1 .24-.73 1 1 0 0 1 .69-.34l132-8.31a1.06 1.06 0 0 1 .73.25 1 1 0 0 1 .33.69l5.41 85.83a1.06 1.06 0 0 1 -.25.73l-20.73 23.17a1 1 0 0 1 -.68.33l-109.94 6.92zm-5.74-107.67 6.65 105.61 108.44-6.83 20.21-22.55-5.3-84.42z" fill="#093f68"/><path d="m262.59 211.53-.95-21.81 21.68-1.37z" fill="#68e1fd"/><path d="m262.59 212.53a1 1 0 0 1 -.33-.06 1 1 0 0 1 -.67-.9l-.95-21.81a1 1 0 0 1 .93-1l21.69-1.36a1 1 0 0 1 1 .56 1 1 0 0 1 -.15 1.1l-20.73 23.17a1 1 0 0 1 -.79.3zm.09-21.87.8 18.37 17.52-19.52z" fill="#093f68"/><g fill="#dfeaef"><path d="m166.51 131.76a1 1 0 0 1 -.06-2l90.63-5.71a1 1 0 1 1 .13 2l-90.64 5.71z"/><path d="m167.6 149.05a1 1 0 0 1 -.06-2l90.63-5.71a1 1 0 0 1 .13 2l-90.64 5.7z"/><path d="m168.69 166.35a1 1 0 0 1 -.06-2l90.63-5.71a1 1 0 0 1 .13 2l-90.64 5.71z"/><path d="m169.78 183.64a1 1 0 0 1 -.06-2l90.63-5.71a1 1 0 1 1 .13 2l-90.64 5.71z"/><path d="m170.87 200.94a1 1 0 0 1 -.07-2l63.42-4a1 1 0 1 1 .12 2l-63.41 4z"/></g><path d="m210.71 120.27a3 3 0 0 1 -1.75-5.43l11-7.9a3 3 0 1 1 3.5 4.87l-11 7.9a3 3 0 0 1 -1.75.56z" fill="#093f68"/><ellipse cx="227.96" cy="104.33" fill="#ffbc0e" rx="11.69" ry="17.42" transform="matrix(.76671715 -.64198506 .64198506 .76671715 -13.8 170.7)"/><path d="m233.35 120.66a14.42 14.42 0 0 1 -4.09-.62 23.3 23.3 0 0 1 -11-7.56c-6.52-7.79-7.46-17.78-2.09-22.27 2.65-2.23 6.4-2.79 10.53-1.59a23.3 23.3 0 0 1 11 7.56 23.35 23.35 0 0 1 5.51 12.18c.45 4.28-.76 7.87-3.42 10.09a9.76 9.76 0 0 1 -6.44 2.21zm-10.76-30.66a7.9 7.9 0 0 0 -5.17 1.74c-4.52 3.78-3.47 12.51 2.35 19.45a21.28 21.28 0 0 0 10 6.93c3.48 1 6.57.59 8.7-1.2s3.09-4.75 2.71-8.35a21.29 21.29 0 0 0 -5.06-11.1 21.26 21.26 0 0 0 -10-6.93 12.57 12.57 0 0 0 -3.53-.54z" fill="#093f68"/><path d="m240.91 85.73-15.36 9.06s-1.21 3.89 2.45 9.06c3.84 5.42 8.68 4.41 8.68 4.41l13.32-13.64z" fill="#ffbc0e"/><path d="m235.71 109.33c-1.84 0-5.49-.61-8.52-4.91-3.9-5.5-2.65-9.74-2.6-9.92a1.06 1.06 0 0 1 .45-.57l15.36-9.06a1 1 0 0 1 1.21.15l9.06 8.89a1 1 0 0 1 0 1.41l-13.27 13.68a1 1 0 0 1 -.51.28 5.6 5.6 0 0 1 -1.18.05zm-9.28-13.89c-.16 1-.34 4 2.39 7.83 2.92 4.12 6.38 4.14 7.38 4l12.36-12.67-7.8-7.6z" fill="#093f68"/><ellipse cx="248.48" cy="87.2" fill="#ffbc0e" rx="7.25" ry="11.97" transform="matrix(.78184703 -.62347031 .62347031 .78184703 -.16 173.94)"/><path d="m252.72 98.6c-3.41 0-7.5-2.27-10.68-6.26-4.54-5.68-5.26-12.4-1.64-15.28 1.8-1.44 4.34-1.65 7.16-.61a17.54 17.54 0 0 1 7.37 5.6c4.54 5.69 5.26 12.4 1.64 15.29a6.1 6.1 0 0 1 -3.85 1.26zm-8.49-20.8a4.06 4.06 0 0 0 -2.58.82c-2.65 2.11-1.76 7.83 1.95 12.47s9.07 6.79 11.72 4.68 1.76-7.82-1.95-12.47a15.62 15.62 0 0 0 -6.5-5 8 8 0 0 0 -2.64-.5z" fill="#093f68"/></svg>