<?xml version="1.0" encoding="UTF-8"?>
<svg version="1.1" xmlns="http://www.w3.org/2000/svg" width="64" height="64">
<path d="M0 0 C3.23626706 2.62800482 3.57703419 5.39823591 4.0625 9.4375 C4.17102882 15.44050036 3.72348692 20.40808233 -0.125 25.1875 C-4.11914898 28.47840566 -8.12676893 30.73891751 -13.1875 31.875 C-18.60206926 30.60776039 -23.4649404 28.16886146 -27.0625 23.875 C-29.47909121 17.76244576 -31.80230075 10.57882508 -29.34765625 4.15234375 C-27.92133044 1.86019716 -26.61145872 0.89344152 -24.3125 -0.5 C-23.31283203 -1.12455078 -23.31283203 -1.12455078 -22.29296875 -1.76171875 C-15.25201925 -5.17435914 -6.74056772 -3.63489292 0 0 Z " fill="#F26745" transform="translate(45.125,19.8125)"/>
<path d="M0 0 C3.2168325 2.07662792 4.76386234 3.18712058 5.84765625 6.91796875 C6.31184416 13.98206482 6.62519614 20.25599083 2 26 C-1.99414898 29.29090566 -6.00176893 31.55141751 -11.0625 32.6875 C-16.69710203 31.36876335 -21.76573468 28.85139798 -25 24 C-23.68 24 -22.36 24 -21 24 C-21 24.66 -21 25.32 -21 26 C-15.45009574 26.73025056 -11.89938629 24.67239252 -7.171875 22.09375 C-5 21 -5 21 -3 21 C-2.896875 20.113125 -2.79375 19.22625 -2.6875 18.3125 C-1.97932089 14.90036427 -0.80556803 12.93404804 1 10 C1.33 8.35 1.66 6.7 2 5 C-1.96 5 -5.92 5 -10 5 C-10 4.01 -10 3.02 -10 2 C-6.4547921 -0.83616632 -4.28627228 -1.6073521 0 0 Z " fill="#97392D" transform="translate(43,19)"/>
<path d="M0 0 C0.66 0.33 1.32 0.66 2 1 C1.67 1.33 1.34 1.66 1 2 C0.90105545 3.4346959 0.87029265 4.87440397 0.875 6.3125 C0.87242188 7.09238281 0.86984375 7.87226563 0.8671875 8.67578125 C0.94509948 11.30964812 0.94509948 11.30964812 2 15 C6.455 15.99 6.455 15.99 11 17 C11.66 15.68 12.32 14.36 13 13 C14.72274774 12.05736444 16.44745075 11.11763984 18.19140625 10.21484375 C20.29370964 8.80271339 21.35756612 7.35346395 22.75 5.25 C23.4925 4.1775 24.235 3.105 25 2 C25.99 2 26.98 2 28 2 C27.50145553 7.85789758 26.03106261 12.91761219 23 18 C20.6875 19.875 20.6875 19.875 18 21 C16.865625 21.5775 15.73125 22.155 14.5625 22.75 C10.75885642 24.08461178 8.83824716 24.02977363 5 23 C5 22.34 5 21.68 5 21 C3.68 21 2.36 21 1 21 C-3.50579151 7.6703668 -3.50579151 7.6703668 -1 1.5625 C-0.67 1.046875 -0.34 0.53125 0 0 Z " fill="#D8573D" transform="translate(17,22)"/>
<path d="M0 0 C0.33 0 0.66 0 1 0 C0.50145553 5.85789758 -0.96893739 10.91761219 -4 16 C-6.3125 17.875 -6.3125 17.875 -9 19 C-10.134375 19.5775 -11.26875 20.155 -12.4375 20.75 C-16.24114358 22.08461178 -18.16175284 22.02977363 -22 21 C-22 20.34 -22 19.68 -22 19 C-23.32 19 -24.64 19 -26 19 C-26.33 17.68 -26.66 16.36 -27 15 C-26.278125 15.144375 -25.55625 15.28875 -24.8125 15.4375 C-23.4203125 15.7159375 -23.4203125 15.7159375 -22 16 C-21.175 16.226875 -20.35 16.45375 -19.5 16.6875 C-16.41994273 17.07250716 -14.81133621 16.22545425 -12 15 C-10.68 15 -9.36 15 -8 15 C-7.896875 14.38125 -7.79375 13.7625 -7.6875 13.125 C-7 11 -7 11 -4 9 C-1.99617289 6.07132961 -0.64752739 3.49664792 0 0 Z " fill="#BE4836" transform="translate(44,24)"/>
<path d="M0 0 C2.5 1 2.5 1 7.5 6 C2.55 6 -2.4 6 -7.5 6 C-7.5 5.01 -7.5 4.02 -7.5 3 C-4.93411493 0.94729194 -3.31548818 0 0 0 Z " fill="#60C389" transform="translate(40.5,18)"/>
<path d="M0 0 C2.64 0.33 5.28 0.66 8 1 C8 1.66 8 2.32 8 3 C6.35 3.66 4.7 4.32 3 5 C3 6.32 3 7.64 3 9 C2.01 8.67 1.02 8.34 0 8 C0 5.36 0 2.72 0 0 Z " fill="#C56A4A" transform="translate(30,16)"/>
<path d="M0 0 C1.32 0 2.64 0 4 0 C4 0.66 4 1.32 4 2 C8.21878192 2.19622241 11.17010894 1.80230168 15 0 C12.9375 2.5625 12.9375 2.5625 10 5 C6.375 5.0625 6.375 5.0625 3 4 C1.0625 1.9375 1.0625 1.9375 0 0 Z " fill="#A94033" transform="translate(18,43)"/>
<path d="M0 0 C0.33 0 0.66 0 1 0 C0.53992345 4.6927808 0.04833319 8.29845255 -3 12 C-5.6875 12.8125 -5.6875 12.8125 -8 13 C-7.401875 12.443125 -6.80375 11.88625 -6.1875 11.3125 C-2.98068029 7.92243345 -0.85574575 4.62102706 0 0 Z " fill="#C65037" transform="translate(44,24)"/>
<path d="M0 0 C1.28317658 2.1134673 2.01559731 3.50088598 1.9375 6 C0.60240388 8.84820505 -1.48196904 10.1921829 -4 12 C-3.71125 11.319375 -3.4225 10.63875 -3.125 9.9375 C-1.87402645 6.67106907 -0.92552045 3.37153877 0 0 Z " fill="#AF4531" transform="translate(45,24)"/>
</svg>
