<?xml version="1.0" encoding="UTF-8"?>
<svg version="1.1" xmlns="http://www.w3.org/2000/svg" width="64" height="64">
<path d="M0 0 C2.34858511 0.90912972 4.67035636 1.844757 6.94921875 2.91796875 C20.62910121 9.32811116 34.98980805 11.43577977 50 11 C49.37342412 15.29960687 48.35645285 17.24601172 44.7890625 19.92578125 C38.35854914 23.78689735 31.11581079 23.54175901 24 22 C17.36028126 19.4723798 11.35286378 16.08813371 7 10.375 C4.80655277 7.77028141 3.21495877 6.98234851 0 6 C0 4.02 0 2.04 0 0 Z " fill="#F4B64D" transform="translate(7,19)"/>
<path d="M0 0 C0.66 0 1.32 0 2 0 C1.78789666 3.71180848 1.04918847 4.94841209 -1.5625 7.6875 C-7.54774131 12.1835225 -13.99915737 12.45409253 -21.1875 11.60546875 C-28.37683105 10.05776554 -34.24111493 6.55203258 -39 1 C-35.94758946 2.10996747 -33.1725505 3.42911064 -30.375 5.0625 C-23.35710054 9.09129414 -15.24239772 8.98927862 -7.37109375 7.50390625 C-3.94436558 6.38690646 -2.27475026 5.49226089 -0.5 2.3125 C-0.335 1.549375 -0.17 0.78625 0 0 Z " fill="#B46C24" transform="translate(55,30)"/>
<path d="M0 0 C4.10337082 0.62987659 8.04851117 1.51206297 12.0625 2.5625 C18.77951323 4.15662987 25.1284681 4.30365198 32 4 C28.40869754 7.59130246 24.22321308 7.20985583 19.3125 7.3125 C12.36362839 7.26906955 6.44850166 6.24701617 1.26171875 1.36328125 C0.84535156 0.91339844 0.42898437 0.46351562 0 0 Z " fill="#E49238" transform="translate(19,32)"/>
<path d="M0 0 C0.66 0 1.32 0 2 0 C1.78743957 3.71980755 1.02398225 4.97426295 -1.5625 7.75 C-5.27349892 10.58466664 -8.37276631 10.9253672 -13 11 C-15.2421875 10.00390625 -15.2421875 10.00390625 -17 9 C-16.25234375 8.87882812 -15.5046875 8.75765625 -14.734375 8.6328125 C-13.74953125 8.46523438 -12.7646875 8.29765625 -11.75 8.125 C-10.28820313 7.88136719 -10.28820313 7.88136719 -8.796875 7.6328125 C-6.18883551 7.04272535 -4.24893982 6.43114352 -2 5 C-0.71745356 2.46229997 -0.71745356 2.46229997 0 0 Z " fill="#A7662D" transform="translate(55,30)"/>
<path d="M0 0 C7.8246759 0.67454103 15.34556614 2.26876958 23 4 C23 4.33 23 4.66 23 5 C15.73814054 5.4271682 8.94703096 4.14511721 2 2 C1.34 1.34 0.68 0.68 0 0 Z " fill="#FEB047" transform="translate(23,32)"/>
<path d="M0 0 C3.65316671 1.24976756 4.78065836 1.67098753 7 5 C6.01 6.485 6.01 6.485 5 8 C2.525 7.01 2.525 7.01 0 6 C0 4.02 0 2.04 0 0 Z " fill="#904D35" transform="translate(7,19)"/>
<path d="M0 0 C4.34174442 0.67963477 8.59703519 1.55848785 12.875 2.5625 C14.02742188 2.83191406 15.17984375 3.10132813 16.3671875 3.37890625 C17.23601563 3.58386719 18.10484375 3.78882813 19 4 C19 4.33 19 4.66 19 5 C6.01646707 5.52994012 6.01646707 5.52994012 1.0625 1.375 C0.711875 0.92125 0.36125 0.4675 0 0 Z " fill="#F29D3D" transform="translate(19,32)"/>
<path d="M0 0 C1.37478516 0.01740234 1.37478516 0.01740234 2.77734375 0.03515625 C3.69644531 0.04417969 4.61554687 0.05320312 5.5625 0.0625 C6.27277344 0.07410156 6.98304687 0.08570312 7.71484375 0.09765625 C7.71484375 0.75765625 7.71484375 1.41765625 7.71484375 2.09765625 C6.25849004 2.31940558 4.79961419 2.52464323 3.33984375 2.72265625 C2.52773438 2.83867188 1.715625 2.9546875 0.87890625 3.07421875 C0.16476563 3.08195312 -0.549375 3.0896875 -1.28515625 3.09765625 C-1.94515625 2.43765625 -2.60515625 1.77765625 -3.28515625 1.09765625 C-2.28515625 0.09765625 -2.28515625 0.09765625 0 0 Z " fill="#FEC757" transform="translate(46.28515625,31.90234375)"/>
<path d="M0 0 C5.75 0.875 5.75 0.875 8 2 C8 2.66 8 3.32 8 4 C5.125 3.6875 5.125 3.6875 2 3 C1.34 2.01 0.68 1.02 0 0 Z " fill="#F5AA46" transform="translate(14,28)"/>
</svg>
