<?xml version="1.0" encoding="UTF-8"?>
<svg version="1.1" xmlns="http://www.w3.org/2000/svg" width="192" height="256">
<path d="M0 0 C8.43276066 6.19549763 13.68003604 14.78556154 16 25 C17.30865205 40.36905318 13.61181828 52.22491319 6.55078125 65.7421875 C4.60098397 69.83823519 3.6928719 73.53482557 3 78 C3.721875 78.165 4.44375 78.33 5.1875 78.5 C9.36561625 80.72832867 11.27586547 83.62606854 13 88 C13.87773046 93.34961583 13.71331938 97.54694201 11.3125 102.4375 C6.85565853 107.37616217 3.37557727 109.49986417 -3 111 C-3.93423645 114.01031744 -4.04449911 114.86650268 -3 118 C-1.27234836 119.71289005 -1.27234836 119.71289005 0.8125 121.375 C3.31310657 123.47515356 5.19490702 125.25616351 7.1875 127.875 C8.81951418 130.26099677 8.81951418 130.26099677 11.5625 130.375 C12.366875 130.58125 13.17125 130.7875 14 131 C15.8125 134.5625 15.8125 134.5625 17 138 C16.34 138.66 15.68 139.32 15 140 C15.40992188 141.03898438 15.81984375 142.07796875 16.2421875 143.1484375 C22.33732287 158.80604591 27.23364872 176.63624924 20.21484375 192.921875 C18.1397396 196.47157085 15.58989348 198.20505326 12 200 C5.34869562 200.3162858 -1.47484762 200.45003386 -8 199 C-10.88212403 196.11787597 -10.37608879 193.45227459 -10.55859375 189.5078125 C-11.07165573 186.59289402 -12.20207816 185.29866931 -14 183 C-14.19363942 177.96537498 -12.76166213 175.36753827 -9.5625 171.6875 C-7.74261894 169.75363892 -5.87768439 167.87768439 -4 166 C-4.33378491 160.99322638 -5.23038111 156.71898372 -7 152 C-8.98 152 -10.96 152 -13 152 C-13.88028084 155.13648991 -14.2651152 158.15825061 -14.53515625 161.40234375 C-14.62313477 162.45147949 -14.71111328 163.50061523 -14.80175781 164.58154297 C-15.15027692 169.06725801 -15.46872412 173.55473301 -15.77587891 178.04345703 C-15.95645929 180.42562309 -16.19280297 182.78170785 -16.48046875 185.15234375 C-16.90386428 190.21468165 -16.8882086 192.8198627 -13.765625 196.96875 C-11.99037368 198.92358621 -10.17550583 200.60559345 -8.1875 202.3671875 C-6 205 -6 205 -6 212 C-17.88 212 -29.76 212 -42 212 C-42 200.12 -42 188.24 -42 176 C-43.32 176 -44.64 176 -46 176 C-46 187.88 -46 199.76 -46 212 C-57.88 212 -69.76 212 -82 212 C-82 205 -82 205 -80.57421875 202.92578125 C-79.64029297 202.12720703 -79.64029297 202.12720703 -78.6875 201.3125 C-73.69544619 197.07753289 -73.69544619 197.07753289 -71.6015625 191.08203125 C-71.64494642 185.02997379 -72.03448369 180.20159693 -74.2734375 174.59375 C-75.46332312 170.34598627 -75.49918871 165.97120986 -75.62084961 161.58276367 C-75.74984825 157.91054297 -75.99460527 155.1329259 -78 152 C-78.99 152 -79.98 152 -81 152 C-81.53532823 153.55759343 -82.05265378 155.12138045 -82.5625 156.6875 C-82.85253906 157.55761719 -83.14257812 158.42773438 -83.44140625 159.32421875 C-84.07275159 162.34849537 -83.98337955 164.07850348 -83 167 C-81.47597048 168.93101148 -81.47597048 168.93101148 -79.5625 170.5625 C-77.0091948 172.87060261 -75.2307281 174.74961553 -74 178 C-74.44444444 184.44444444 -74.44444444 184.44444444 -77 187 C-77.38710381 189.36730201 -77.38710381 189.36730201 -77.5 192 C-77.77777778 196.77777778 -77.77777778 196.77777778 -80 199 C-87.49745633 200.66610141 -96.42924943 201.50347392 -103.5625 198.5 C-110.57452787 191.30817654 -111.28617437 182.95810305 -111.32128906 173.34350586 C-111.14437394 161.31447307 -107.42538858 150.11055006 -103 139 C-103.66 138.34 -104.32 137.68 -105 137 C-102.36328125 131.62890625 -102.36328125 131.62890625 -101 130 C-100.22011719 129.86464844 -99.44023438 129.72929687 -98.63671875 129.58984375 C-94.96171398 128.76773157 -93.83395681 126.89279154 -91.5 124 C-87.60958904 119.17808219 -87.60958904 119.17808219 -84.21875 118.1875 C-83.4865625 118.125625 -82.754375 118.06375 -82 118 C-81.34 115.69 -80.68 113.38 -80 111 C-80.68707031 110.62488281 -81.37414062 110.24976563 -82.08203125 109.86328125 C-82.98308594 109.35152344 -83.88414063 108.83976562 -84.8125 108.3125 C-86.15248047 107.56419922 -86.15248047 107.56419922 -87.51953125 106.80078125 C-90.90431195 104.34348376 -92.49667229 101.80306002 -93.6171875 97.7890625 C-94.42488253 91.00931938 -92.96580178 86.74020853 -88.9375 81.125 C-87 79 -87 79 -85 78 C-84.51187706 64.57661915 -88.98565252 57.39499313 -97 47 C-93.30614925 42.09868159 -89.55049166 39.02831429 -84.3125 35.875 C-83.60279053 35.44123047 -82.89308105 35.00746094 -82.16186523 34.56054688 C-76.96513914 31.44404819 -71.81513971 28.77656133 -66 27 C-65.32582031 26.77828125 -64.65164062 26.5565625 -63.95703125 26.328125 C-50.49234424 22.58933761 -37.09059226 25.37092492 -24 29 C-17.66947694 21.62867528 -11.48117024 14.17789356 -5.5300293 6.49560547 C-3.76537909 4.22157507 -2.03780428 2.03780428 0 0 Z " fill="#218E54" transform="translate(140,44)"/>
<path d="M0 0 C8.43276066 6.19549763 13.68003604 14.78556154 16 25 C17.13889685 38.3754165 15.26378361 49.3574711 8.5 61.125 C3.22890535 71.04639656 2.69135751 82.38568121 1.4831543 93.40307617 C1 96 1 96 -1 99 C-4 99.3125 -4 99.3125 -7 99 C-9 97 -9 97 -9.08203125 93.71875 C-9.00596009 92.31168776 -8.91506529 90.90537942 -8.8125 89.5 C-8.76424072 88.75693604 -8.71598145 88.01387207 -8.66625977 87.24829102 C-8.03287074 78.74062388 -6.55827385 70.37939711 -5 62 C-13.92674318 60.66627062 -20.29966382 60.76339678 -28.4765625 64.7734375 C-39.66230282 70.21046917 -58.59690824 68.64459719 -70.1875 65 C-71.80838569 64.37508022 -73.42290131 63.72839197 -75 63 C-74.79503906 64.28132813 -74.59007813 65.56265625 -74.37890625 66.8828125 C-70.77069338 89.85873676 -70.77069338 89.85873676 -71 97 C-73 99 -73 99 -76.625 99.125 C-77.73875 99.08375 -78.8525 99.0425 -80 99 C-81.73849776 95.20054119 -82.29553395 92.03588412 -82.5 87.875 C-82.8354111 82.66141694 -83.44335214 77.6516277 -84.49609375 72.53515625 C-85 70 -85 70 -85.22265625 67.80859375 C-86.29671834 59.59428791 -92.08991051 53.36862161 -97 47 C-93.30614925 42.09868159 -89.55049166 39.02831429 -84.3125 35.875 C-83.60279053 35.44123047 -82.89308105 35.00746094 -82.16186523 34.56054688 C-76.96513914 31.44404819 -71.81513971 28.77656133 -66 27 C-65.32582031 26.77828125 -64.65164062 26.5565625 -63.95703125 26.328125 C-50.49234424 22.58933761 -37.09059226 25.37092492 -24 29 C-17.66947694 21.62867528 -11.48117024 14.17789356 -5.5300293 6.49560547 C-3.76537909 4.22157507 -2.03780428 2.03780428 0 0 Z " fill="#BD7857" transform="translate(140,44)"/>
<path d="M0 0 C1.11181641 0.14888672 1.11181641 0.14888672 2.24609375 0.30078125 C4.6971772 0.70998405 7.12888537 1.18532555 9.5625 1.6875 C9.42972656 2.78964844 9.29695313 3.89179687 9.16015625 5.02734375 C8.21229815 13.09085044 7.37723289 21.1452713 6.875 29.25 C6.82674072 29.9814624 6.77848145 30.7129248 6.72875977 31.46655273 C6.63022569 33.20496043 6.59027018 34.94652352 6.5625 36.6875 C7.68784105 38.04368499 7.68784105 38.04368499 10.625 37.75 C11.594375 37.729375 12.56375 37.70875 13.5625 37.6875 C15.34124156 31.08074562 16.5038873 24.44460231 17.5625 17.6875 C22.31107203 19.29163946 24.14986891 20.99652857 26.609375 25.26953125 C28.36445898 29.7219779 28.33663249 34.00686559 27.5625 38.6875 C25.38846538 43.11608903 22.68940814 46.00021098 18.5625 48.6875 C17.36625 48.97625 16.17 49.265 14.9375 49.5625 C11.3240393 50.33272939 11.3240393 50.33272939 10.0625 53.5625 C9.5675 54.59375 9.0725 55.625 8.5625 56.6875 C4.01855362 60.42363369 0.95255909 60.80862689 -4.875 60.875 C-12.22066718 61.12640251 -16.97017332 63.71149416 -22.93139648 67.71362305 C-26.10179908 69.76206011 -27.76419703 70.79677514 -31.56640625 70.1796875 C-34.48782169 68.66134642 -37.15241362 66.97481401 -39.875 65.125 C-47.00263668 60.80359009 -53.26398362 60.60933796 -61.4375 60.6875 C-62.48452186 56.9610915 -62.51192057 53.55736958 -62.4375 49.6875 C-63.46875 49.605 -64.5 49.5225 -65.5625 49.4375 C-70.72507097 48.43829272 -73.89359349 46.55083544 -77.25 42.5 C-79.52477606 37.11237249 -80.02355385 32.53819636 -78.25 26.9375 C-73.95455686 19.23532609 -73.95455686 19.23532609 -70.1875 17.875 C-69.32125 17.7821875 -69.32125 17.7821875 -68.4375 17.6875 C-67.35284997 20.94145008 -67.15483072 23.70592206 -66.9375 27.125 C-66.7055198 30.76626068 -66.47163692 34.18005227 -65.4375 37.6875 C-63.10455225 37.72991723 -60.77047433 37.72842937 -58.4375 37.6875 C-58.1075 37.3575 -57.7775 37.0275 -57.4375 36.6875 C-57.67171194 25.35524516 -59.26992716 13.95514464 -60.4375 2.6875 C-57.28940351 3.14819705 -54.40461537 3.69870014 -51.38671875 4.7265625 C-45.82260564 6.36602957 -39.99898173 6.05619283 -34.25 6.0625 C-32.5165332 6.09923828 -32.5165332 6.09923828 -30.74804688 6.13671875 C-21.8928058 6.16655112 -14.15771167 4.62694743 -6.23730469 0.55688477 C-3.92776293 -0.55872541 -2.51825181 -0.36224419 0 0 Z " fill="#F9D2AD" transform="translate(125.4375,104.3125)"/>
<path d="M0 0 C19.8 0 39.6 0 60 0 C60 16.38422131 60 16.38422131 59.26171875 22.73828125 C59.17535156 23.48464844 59.08898437 24.23101562 59 25 C58.86207031 26.00417969 58.72414063 27.00835937 58.58203125 28.04296875 C58.15378148 33.33712891 57.99978365 36.64068671 61.23046875 41.03125 C63.9418083 43.88491159 63.9418083 43.88491159 66.8125 46.3671875 C69 49 69 49 69 56 C57.12 56 45.24 56 33 56 C33 44.12 33 32.24 33 20 C31.68 20 30.36 20 29 20 C29 31.88 29 43.76 29 56 C17.12 56 5.24 56 -7 56 C-7 49 -7 49 -5.57421875 46.92578125 C-4.95160156 46.39339844 -4.32898437 45.86101562 -3.6875 45.3125 C1.30455381 41.07753289 1.30455381 41.07753289 3.3984375 35.08203125 C3.39423981 27.7220881 3.39423981 27.7220881 1.5 20.6875 C0 16 0 16 0 0 Z " fill="#E69C5E" transform="translate(65,200)"/>
<path d="M0 0 C1.1755401 2.48568403 2.15129107 4.85603173 3.0625 7.4375 C3.32562988 8.17178223 3.58875977 8.90606445 3.85986328 9.66259766 C8.60530143 23.20096582 11.08120933 39.31023672 5.21484375 52.921875 C3.1397396 56.47157085 0.58989348 58.20505326 -3 60 C-9.65130438 60.3162858 -16.47484762 60.45003386 -23 59 C-25.88212403 56.11787597 -25.37608879 53.45227459 -25.55859375 49.5078125 C-26.07165573 46.59289402 -27.20207816 45.29866931 -29 43 C-29.19363942 37.96537498 -27.76166213 35.36753827 -24.5625 31.6875 C-22.74261894 29.75363892 -20.87768439 27.87768439 -19 26 C-19.29133239 20.27046301 -20.66706437 16.20037133 -23 11 C-19.73925221 8.96253343 -16.46493707 6.94799087 -13.1875 4.9375 C-12.25873047 4.35677734 -11.32996094 3.77605469 -10.37304688 3.17773438 C-9.48037109 2.63310547 -8.58769531 2.08847656 -7.66796875 1.52734375 C-6.84578857 1.01937256 -6.0236084 0.51140137 -5.17651367 -0.01196289 C-3 -1 -3 -1 0 0 Z " fill="#F2CCA9" transform="translate(155,184)"/>
<path d="M0 0 C4.97357688 1.7342733 9.31498953 4.43327957 13.8125 7.125 C14.60076172 7.59292969 15.38902344 8.06085938 16.20117188 8.54296875 C18.13602454 9.69215397 20.06887228 10.84457003 22 12 C21.69964844 12.73605469 21.39929688 13.47210938 21.08984375 14.23046875 C20.70957031 15.20628906 20.32929687 16.18210938 19.9375 17.1875 C19.36322266 18.63189453 19.36322266 18.63189453 18.77734375 20.10546875 C17.91854865 23.30329373 17.90006994 24.8955245 19 28 C20.52402952 29.93101148 20.52402952 29.93101148 22.4375 31.5625 C24.9908052 33.87060261 26.7692719 35.74961553 28 39 C27.55555556 45.44444444 27.55555556 45.44444444 25 48 C24.61289619 50.36730201 24.61289619 50.36730201 24.5 53 C24.22222222 57.77777778 24.22222222 57.77777778 22 60 C14.50254367 61.66610141 5.57075057 62.50347392 -1.5625 59.5 C-8.57391862 52.30880141 -9.28614492 43.95957776 -9.32128906 34.34570312 C-9.17656247 24.5121178 -7.22143051 7.22143051 0 0 Z " fill="#F2CCA9" transform="translate(38,183)"/>
<path d="M0 0 C8.0739065 5.93184968 14.38587827 14.95657591 16 25 C16.13676177 29.00661347 16.11842582 32.99325992 16 37 C15.67 37 15.34 37 15 37 C14.79375 36.01 14.5875 35.02 14.375 34 C12.27043034 26.67846893 6.90401669 21.49829843 1 17 C-4.9892023 22.04189057 -10.66239713 27.35834977 -16.30273438 32.78515625 C-17.31883789 33.75001953 -17.31883789 33.75001953 -18.35546875 34.734375 C-19.26268677 35.60400879 -19.26268677 35.60400879 -20.18823242 36.49121094 C-22.12148593 38.10117006 -23.61278464 39.18535752 -26 40 C-28.38818359 39.55664062 -28.38818359 39.55664062 -31.0234375 38.65625 C-36.97818009 36.87081474 -42.43141215 36.46101796 -48.625 36.5 C-49.6660791 36.50427002 -50.7071582 36.50854004 -51.77978516 36.51293945 C-64.39354025 36.78757345 -74.92831011 40.09319736 -85.984375 46.12890625 C-88.91490304 47.39539414 -91.0190044 46.94519373 -94 46 C-94.99 46 -95.98 46 -97 46 C-84.12774548 32.87745164 -67.54526893 25.0971207 -49.125 24.5 C-40.44709436 24.70539422 -32.3335895 26.68969796 -24 29 C-17.66947694 21.62867528 -11.48117024 14.17789356 -5.5300293 6.49560547 C-3.76537909 4.22157507 -2.03780428 2.03780428 0 0 Z " fill="#D8865E" transform="translate(140,44)"/>
<path d="M0 0 C0.73605469 0.40992188 1.47210938 0.81984375 2.23046875 1.2421875 C3.20628906 1.78101563 4.18210937 2.31984375 5.1875 2.875 C6.15042969 3.40867188 7.11335938 3.94234375 8.10546875 4.4921875 C10.69739518 5.8423678 13.26761098 6.97098329 16 8 C16.66 6.02 17.32 4.04 18 2 C18.66 2 19.32 2 20 2 C20.66 3.98 21.32 5.96 22 8 C22.97582031 7.4946875 23.95164063 6.989375 24.95703125 6.46875 C26.2420258 5.81218344 27.52719101 5.1559508 28.8125 4.5 C29.45509766 4.16613281 30.09769531 3.83226562 30.75976562 3.48828125 C33.69547699 1.99760916 35.66126517 1 39 1 C39.83806616 3.93622464 40.67062444 6.87382067 41.5 9.8125 C41.73847656 10.64587891 41.97695312 11.47925781 42.22265625 12.33789062 C42.44824219 13.14033203 42.67382812 13.94277344 42.90625 14.76953125 C43.11572266 15.50792236 43.32519531 16.24631348 43.54101562 17.00708008 C44 19 44 19 44 22 C45.65 22 47.3 22 49 22 C49 23.32 49 24.64 49 26 C28.54 26 8.08 26 -13 26 C-13 24.35 -13 22.7 -13 21 C-10.69 21.33 -8.38 21.66 -6 22 C-5.5978125 20.14375 -5.5978125 20.14375 -5.1875 18.25 C-4.31204766 14.32297094 -3.3913107 10.40875364 -2.4375 6.5 C-2.18871094 5.4790625 -1.93992187 4.458125 -1.68359375 3.40625 C-1 1 -1 1 0 0 Z " fill="#3DB675" transform="translate(77,174)"/>
<path d="M0 0 C0.66 0 1.32 0 2 0 C2.33 3.63 2.66 7.26 3 11 C3.66 11 4.32 11 5 11 C6.52384602 18.36525575 5.23155466 23.54060361 2.9921875 30.66796875 C1.85329892 34.4926615 1.3172259 38.03467625 1 42 C-4.68587873 40.01445505 -9.63475864 36.73201118 -14.76171875 33.6328125 C-18.42959064 31.43858118 -21.94409667 29.4163472 -26 28 C-25.46085342 26.67773548 -24.89266121 25.36728944 -24.3125 24.0625 C-23.99925781 23.33160156 -23.68601563 22.60070312 -23.36328125 21.84765625 C-22 20 -22 20 -19.63671875 19.55859375 C-15.94633985 18.77678015 -14.83611584 16.89546752 -12.5 14 C-8.60958904 9.17808219 -8.60958904 9.17808219 -5.21875 8.1875 C-4.4865625 8.125625 -3.754375 8.06375 -3 8 C-2.690625 6.865625 -2.38125 5.73125 -2.0625 4.5625 C-1 1 -1 1 0 0 Z " fill="#3DBB79" transform="translate(61,154)"/>
<path d="M0 0 C2.50947151 2.42852082 4.88672573 4.86767599 7.16015625 7.5234375 C7.93230469 8.42320312 8.70445312 9.32296875 9.5 10.25 C10.2321875 11.12140625 10.964375 11.9928125 11.71875 12.890625 C14.27933133 15.25828582 15.66910426 15.39184651 19 16 C20.8125 19.5625 20.8125 19.5625 22 23 C21.28457031 23.3403125 20.56914062 23.680625 19.83203125 24.03125 C12.79437844 27.45448086 6.19731873 31.24775995 -0.3828125 35.4609375 C-3 37 -3 37 -5 37 C-5.10957031 36.33355469 -5.21914062 35.66710937 -5.33203125 34.98046875 C-6.18671541 30.01218278 -7.18259097 25.20809565 -8.625 20.375 C-11.46566308 9.83899568 -11.46566308 9.83899568 -10 6 C-6.93122997 3.40788011 -3.64471447 1.65964677 0 0 Z " fill="#3DB877" transform="translate(135,159)"/>
<path d="M0 0 C1.03165283 0.02094727 2.06330566 0.04189453 3.1262207 0.06347656 C4.24448242 0.07636719 5.36274414 0.08925781 6.51489258 0.10253906 C7.68213867 0.13605469 8.84938477 0.16957031 10.05200195 0.20410156 C11.23084961 0.22214844 12.40969727 0.24019531 13.62426758 0.25878906 C16.53849121 0.30598297 19.45109226 0.37181079 22.36450195 0.45410156 C24.26479433 6.15497869 23.36450195 12.44484944 23.36450195 18.45410156 C11.48450195 18.45410156 -0.39549805 18.45410156 -12.63549805 18.45410156 C-12.63549805 11.45410156 -12.63549805 11.45410156 -11.2097168 9.37988281 C-10.58709961 8.8475 -9.96448242 8.31511719 -9.32299805 7.76660156 C-6.54268991 5.33679672 -6.54268991 5.33679672 -4.3815918 2.3737793 C-2.63549805 0.45410156 -2.63549805 0.45410156 0 0 Z " fill="#AE6F51" transform="translate(70.635498046875,237.5458984375)"/>
<path d="M0 0 C20.15507982 -1.17513182 20.15507982 -1.17513182 25.54101562 2.72998047 C30.81597528 8.31929092 31.72851562 10.53822059 31.72851562 18.51513672 C19.84851563 18.51513672 7.96851562 18.51513672 -4.27148438 18.51513672 C-4.27148438 0.96870508 -4.27148438 0.96870508 0 0 Z " fill="#AE6F51" transform="translate(102.271484375,237.48486328125)"/>
<path d="M0 0 C19.8 0 39.6 0 60 0 C60 2.97 60 5.94 60 9 C40.2 9 20.4 9 0 9 C0 6.03 0 3.06 0 0 Z " fill="#BC7757" transform="translate(65,200)"/>
<path d="M0 0 C4.49761395 1.22662199 6.8385846 2.61866005 10 6 C9.18844632 8.93776444 8.37579766 11.87521836 7.5625 14.8125 C7.33240234 15.64587891 7.10230469 16.47925781 6.86523438 17.33789062 C6.64287109 18.14033203 6.42050781 18.94277344 6.19140625 19.76953125 C5.98717041 20.50792236 5.78293457 21.24631348 5.57250977 22.00708008 C5.0907348 23.68415002 4.55178535 25.34464396 4 27 C2.72125 27.061875 1.4425 27.12375 0.125 27.1875 C-0.95394531 27.23970703 -0.95394531 27.23970703 -2.0546875 27.29296875 C-2.69664063 27.19628906 -3.33859375 27.09960938 -4 27 C-6 24 -6 24 -5.390625 20.234375 C-5.02343177 18.73633307 -4.64265289 17.24157105 -4.25 15.75 C-4.06695312 15.01136719 -3.88390625 14.27273437 -3.6953125 13.51171875 C-2.56021874 8.97933733 -1.30543774 4.48595877 0 0 Z " fill="#B17554" transform="translate(67,169)"/>
<path d="M0 0 C1.98 8.25 3.96 16.5 6 25 C2.00889681 26.9955516 0.30013434 27.19546065 -4 27 C-6.57281882 19.77160428 -8.36695592 12.49347179 -10 5 C-8.71186658 4.16121545 -7.41936744 3.32913217 -6.125 2.5 C-5.40570313 2.0359375 -4.68640625 1.571875 -3.9453125 1.09375 C-2 0 -2 0 0 0 Z " fill="#AF7353" transform="translate(125,169)"/>
<path d="M0 0 C7.92 0 15.84 0 24 0 C24 3.3 24 6.6 24 10 C22.36289063 10.04898438 20.72578125 10.09796875 19.0390625 10.1484375 C16.901024 10.22345639 14.76300402 10.2990046 12.625 10.375 C11.54476562 10.4059375 10.46453125 10.436875 9.3515625 10.46875 C8.3203125 10.50742188 7.2890625 10.54609375 6.2265625 10.5859375 C4.79691162 10.63306885 4.79691162 10.63306885 3.33837891 10.68115234 C0.81104824 10.78555796 0.81104824 10.78555796 -1 13 C-1.07972012 8.2965127 -0.93491183 4.67455917 0 0 Z " fill="#D38949" transform="translate(99,228)"/>
<path d="M0 0 C7.92 0 15.84 0 24 0 C24.93491183 4.67455917 25.07972012 8.2965127 25 13 C24.67 12.01 24.34 11.02 24 10 C16.08 10 8.16 10 0 10 C0 6.7 0 3.4 0 0 Z " fill="#D38949" transform="translate(69,228)"/>
<path d="M0 0 C20.79 0 41.58 0 63 0 C63 0.33 63 0.66 63 1 C62.175 0.96777344 61.35 0.93554688 60.5 0.90234375 C51.45874895 0.99315989 45.94715845 3.03002682 38.5078125 8.02514648 C35.33682878 10.07374757 33.67401299 11.10939037 29.87109375 10.4921875 C26.94967831 8.97384642 24.28508638 7.28731401 21.5625 5.4375 C14.43486332 1.11609009 8.17351638 0.92183796 0 1 C0 0.67 0 0.34 0 0 Z " fill="#B59E7A" transform="translate(64,164)"/>
<path d="M0 0 C4.468236 2.234118 8.82106099 4.63746278 13.1875 7.0625 C14.01958984 7.52205078 14.85167969 7.98160156 15.70898438 8.45507812 C16.49982422 8.89400391 17.29066406 9.33292969 18.10546875 9.78515625 C18.82887451 10.18613525 19.55228027 10.58711426 20.29760742 11.00024414 C22 12 22 12 23 13 C23.07179964 14.51928038 23.08392007 16.04167482 23.0625 17.5625 C23.05347656 18.38878906 23.04445313 19.21507812 23.03515625 20.06640625 C23.02355469 20.70449219 23.01195313 21.34257812 23 22 C17.31412127 20.01445505 12.36524136 16.73201118 7.23828125 13.6328125 C3.57040936 11.43858118 0.05590333 9.4163472 -4 8 C-2.68 5.36 -1.36 2.72 0 0 Z " fill="#28A463" transform="translate(39,174)"/>
<path d="M0 0 C2.17476401 1.54338091 2.81832637 2.63665273 4 5 C4.49512681 9.37362014 4.49223866 11.31955244 1.875 14.9375 C-1 17 -1 17 -4 17.625 C-8.14182881 16.762119 -9.56226471 15.44150865 -12 12 C-12.8876276 8.10215706 -12.59158203 4.98597004 -10.5 1.5 C-6.74351164 -0.75389302 -4.35420619 -0.48380069 0 0 Z " fill="#FBF5F1" transform="translate(87,126)"/>
<path d="M0 0 C1.16796875 2.1796875 1.16796875 2.1796875 2.1875 4.875 C2.53167969 5.75929687 2.87585938 6.64359375 3.23046875 7.5546875 C4 10 4 10 4 13 C-4.58 13 -13.16 13 -22 13 C-22 12.01 -22 11.02 -22 10 C-20.3034668 8.63378906 -20.3034668 8.63378906 -17.94921875 7.265625 C-16.68368164 6.52892578 -16.68368164 6.52892578 -15.39257812 5.77734375 C-14.05356445 5.02130859 -14.05356445 5.02130859 -12.6875 4.25 C-11.80642578 3.73050781 -10.92535156 3.21101562 -10.01757812 2.67578125 C-3.38378661 -1.12792887 -3.38378661 -1.12792887 0 0 Z " fill="#F6F7F6" transform="translate(155,184)"/>
<path d="M0 0 C4.97357688 1.7342733 9.31498953 4.43327957 13.8125 7.125 C14.60076172 7.59292969 15.38902344 8.06085938 16.20117188 8.54296875 C18.13602454 9.69215397 20.06887228 10.84457003 22 12 C21.67 12.66 21.34 13.32 21 14 C12.42 14 3.84 14 -5 14 C-2.75 3.875 -2.75 3.875 0 0 Z " fill="#F6F7F6" transform="translate(38,183)"/>
<path d="M0 0 C2 3 2 3 1.86328125 5.01171875 C0.74689132 7.58295167 -0.44406251 8.33169314 -2.8125 9.8125 C-3.61429688 10.31652344 -4.41609375 10.82054687 -5.2421875 11.33984375 C-6.15226562 11.88769531 -7.06234375 12.43554688 -8 13 C-9.05445313 13.64066406 -10.10890625 14.28132812 -11.1953125 14.94140625 C-19.67739899 20 -19.67739899 20 -22 20 C-22.33 17.03 -22.66 14.06 -23 11 C-19.73486809 9.15637057 -16.46201438 7.32690521 -13.1875 5.5 C-12.25873047 4.97535156 -11.32996094 4.45070312 -10.37304688 3.91015625 C-9.48037109 3.41386719 -8.58769531 2.91757813 -7.66796875 2.40625 C-6.84578857 1.94541016 -6.0236084 1.48457031 -5.17651367 1.00976562 C-3 0 -3 0 0 0 Z " fill="#29A362" transform="translate(152,176)"/>
<path d="M0 0 C2.31 0 4.62 0 7 0 C8.1875 1.6875 8.1875 1.6875 9 4 C7.77882106 6.94519626 6.3542456 8.67896492 4 10.8125 C-0.53091234 12.60598613 -5.22233249 13.04339865 -10 12 C-11.65 10.35 -13.3 8.7 -15 7 C-10.05 7 -5.1 7 0 7 C0 4.69 0 2.38 0 0 Z " fill="#C27E5D" transform="translate(105,148)"/>
<path d="M0 0 C6.65050424 -0.24991456 12.56986533 0.26044666 19 2 C19 4.31 19 6.62 19 9 C12.73 8.34 6.46 7.68 0 7 C0 4.69 0 2.38 0 0 Z " fill="#C37F5D" transform="translate(109,119)"/>
<path d="M0 0 C0.33 1.98 0.66 3.96 1 6 C-1.413762 6.69951063 -3.83010234 7.38483919 -6.25 8.0625 C-6.93191406 8.26166016 -7.61382812 8.46082031 -8.31640625 8.66601562 C-14.58342161 10.40009269 -14.58342161 10.40009269 -18 9 C-18.33 7.02 -18.66 5.04 -19 3 C-16.77518771 2.29853686 -14.54492632 1.61434046 -12.3125 0.9375 C-11.07113281 0.55464844 -9.82976562 0.17179687 -8.55078125 -0.22265625 C-5.1468214 -0.96785758 -3.28440924 -0.99851065 0 0 Z " fill="#C17C5B" transform="translate(92,114)"/>
<path d="M0 0 C1.05960938 0.00676758 1.05960938 0.00676758 2.140625 0.01367188 C3.88545275 0.02546125 5.630237 0.04339676 7.375 0.0625 C7.375 2.3725 7.375 4.6825 7.375 7.0625 C4.72909986 7.08934679 2.08346904 7.10926357 -0.5625 7.125 C-1.69461914 7.13756836 -1.69461914 7.13756836 -2.84960938 7.15039062 C-4.77494313 7.15902441 -6.70035581 7.11474333 -8.625 7.0625 C-9.625 6.0625 -9.625 6.0625 -9.6875 3.5 C-9.666875 2.695625 -9.64625 1.89125 -9.625 1.0625 C-6.55966836 -0.47016582 -3.35745728 -0.04026471 0 0 Z " fill="#FEFBF9" transform="translate(97.625,147.9375)"/>
<path d="M0 0 C2.375 0.8125 2.375 0.8125 3.375 2.8125 C3.49505453 4.30899362 3.55031451 5.81124793 3.5625 7.3125 C3.57667969 8.1065625 3.59085938 8.900625 3.60546875 9.71875 C3.375 11.8125 3.375 11.8125 1.375 13.8125 C-1.125 14.125 -1.125 14.125 -3.625 13.8125 C-6.16186376 10.00720436 -6.21855135 7.27340938 -5.625 2.8125 C-3.96830231 -0.0649223 -3.31156425 -0.2365403 0 0 Z " fill="#C17D5D" transform="translate(85.625,127.1875)"/>
<path d="M0 0 C2.4375 0.375 2.4375 0.375 5 1 C6.17673198 3.35346396 6.16623866 4.8806033 6.1875 7.5 C6.20167969 8.2940625 6.21585938 9.088125 6.23046875 9.90625 C6 12 6 12 4 14 C1.5 14.3125 1.5 14.3125 -1 14 C-3.47342266 10.28986601 -3.38503486 8.38939738 -3 4 C-1.5 1.5625 -1.5 1.5625 0 0 Z " fill="#C17E5D" transform="translate(113,127)"/>
<path d="M0 0 C3.5625 0.1875 3.5625 0.1875 6.5625 1.1875 C7.25 3.5 7.25 3.5 7.5625 6.1875 C6.5625 8 6.5625 8 4.5625 9.1875 C0.72556413 9.60607482 -1.54953064 9.73394269 -4.875 7.6875 C-5.390625 7.1925 -5.90625 6.6975 -6.4375 6.1875 C-5.5547777 1.7738885 -4.80941444 0.2623317 0 0 Z " fill="#E7B688" transform="translate(99.4375,135.8125)"/>
<path d="M0 0 C4.875 4.875 4.875 4.875 5.3125 8.8125 C4.9188546 12.8276831 3.91113808 14.24207971 1 17 C-2.25 18.3125 -2.25 18.3125 -5 19 C-5 17.68 -5 16.36 -5 15 C-5.99 14.67 -6.98 14.34 -8 14 C-6.35 13.67 -4.7 13.34 -3 13 C-2.01 8.71 -1.02 4.42 0 0 Z " fill="#D9AC82" transform="translate(142,129)"/>
<path d="M0 0 C0.33 0 0.66 0 1 0 C1.06058594 0.89203125 1.12117188 1.7840625 1.18359375 2.703125 C1.26738281 3.87359375 1.35117187 5.0440625 1.4375 6.25 C1.51871094 7.41015625 1.59992187 8.5703125 1.68359375 9.765625 C1.93247787 12.30977376 2.28114942 14.55953248 3 17 C4.98 17.33 6.96 17.66 9 18 C7.68 18.33 6.36 18.66 5 19 C5 19.99 5 20.98 5 22 C1.62765029 21.71897086 0.21360261 21.19628348 -2.3125 18.875 C-4.43489558 15.25906679 -4.52605872 13.13331855 -4 9 C-2.5625 6.875 -2.5625 6.875 -1 5 C-0.28566879 2.35065178 -0.28566879 2.35065178 0 0 Z " fill="#D7A97F" transform="translate(57,125)"/>
<path d="M0 0 C2.3125 -0.25 2.3125 -0.25 5 0 C7.69642883 2.32450761 7.98583627 3.90262433 8.5 7.4375 C8 11 8 11 5.875 13.9375 C2.56851204 16.30954571 0.9760803 16.46233492 -3 16 C-2.34 15.525625 -1.68 15.05125 -1 14.5625 C1.87751779 10.87568033 1.50865551 7.52786786 1 3 C0.67 2.01 0.34 1.02 0 0 Z " fill="#FCF9F6" transform="translate(117,127)"/>
<path d="M0 0 C0.33 1.32 0.66 2.64 1 4 C10.9 4 20.8 4 31 4 C31 2.68 31 1.36 31 0 C31.66 0 32.32 0 33 0 C33.042721 1.66611905 33.04063832 3.33382885 33 5 C32 6 32 6 28.94897461 6.11352539 C27.60008729 6.11336634 26.25119386 6.10767612 24.90234375 6.09765625 C23.83905602 6.09553383 23.83905602 6.09553383 22.75428772 6.09336853 C20.48198288 6.08775443 18.20977525 6.07519963 15.9375 6.0625 C14.40039204 6.05748681 12.86328255 6.05292359 11.32617188 6.04882812 C7.55074358 6.03778042 3.77538829 6.02050641 0 6 C-0.38218767 4.34385343 -0.71395102 2.67542976 -1 1 C-0.67 0.67 -0.34 0.34 0 0 Z " fill="#A16C52" transform="translate(100,250)"/>
<path d="M0 0 C0.66 0 1.32 0 2 0 C2 1.32 2 2.64 2 4 C11.9 4 21.8 4 32 4 C32.33 2.68 32.66 1.36 33 0 C33.38218767 1.65614657 33.71395102 3.32457024 34 5 C32.32326351 6.67673649 30.27144924 6.12787817 28.03344727 6.13894653 C27.34178467 6.1369223 26.65012207 6.13489807 25.9375 6.1328125 C25.23101318 6.13376923 24.52452637 6.13472595 23.79663086 6.13571167 C22.30029207 6.13639333 20.80395033 6.13454005 19.30761719 6.13037109 C17.00969843 6.12502257 14.71197514 6.13031651 12.4140625 6.13671875 C10.96354123 6.13605797 9.51302009 6.1347768 8.0625 6.1328125 C7.0250061 6.13584885 7.0250061 6.13584885 5.96655273 6.13894653 C1.11495224 6.11495224 1.11495224 6.11495224 0 5 C-0.04063832 3.33382885 -0.042721 1.66611905 0 0 Z " fill="#A16C52" transform="translate(59,250)"/>
<path d="M0 0 C0.66 0.33 1.32 0.66 2 1 C1.525625 1.94875 1.05125 2.8975 0.5625 3.875 C-1.42757782 8.4465467 -1.71226902 13.06888627 -2 18 C-3.9375 17.203125 -3.9375 17.203125 -6 16 C-7 12.75 -7 12.75 -7 9 C-5.11473799 5.49879912 -2.95462303 2.65916073 0 0 Z " fill="#E1BC98" transform="translate(133,213)"/>
<path d="M0 0 C3.82919612 1.50432705 5.78089547 3.55656194 8 7 C9.56565657 12.94949495 9.56565657 12.94949495 7.6875 16.4375 C6 18 6 18 4 18 C3.81824219 16.67935547 3.81824219 16.67935547 3.6328125 15.33203125 C3.46523438 14.17058594 3.29765625 13.00914062 3.125 11.8125 C2.96257813 10.66394531 2.80015625 9.51539063 2.6328125 8.33203125 C2.05939755 5.31275375 1.25240957 2.79424152 0 0 Z " fill="#E1BC98" transform="translate(57,213)"/>
<path d="M0 0 C0.66 0 1.32 0 2 0 C2 2.97 2 5.94 2 9 C1.01 9.020625 0.02 9.04125 -1 9.0625 C-5.5548644 9.66548612 -8.07912182 12.31750776 -11.30078125 15.40625 C-13 17 -13 17 -15 18 C-13.63746417 14.88175879 -12.14891747 12.95262649 -9.5625 10.75 C-8.96566406 10.22921875 -8.36882813 9.7084375 -7.75390625 9.171875 C-6 8 -6 8 -3 8 C-2.690625 6.865625 -2.38125 5.73125 -2.0625 4.5625 C-1 1 -1 1 0 0 Z " fill="#51B87E" transform="translate(61,154)"/>
<path d="M0 0 C0.33 0 0.66 0 1 0 C1 4.62 1 9.24 1 14 C0.01 13.34 -0.98 12.68 -2 12 C-2.66 13.32 -3.32 14.64 -4 16 C-4.2846391 11.0662556 -4.14832529 8.77799034 -1 5 C-0.28566879 2.35065178 -0.28566879 2.35065178 0 0 Z " fill="#E1B186" transform="translate(57,125)"/>
<path d="M0 0 C0.12375 0.639375 0.2475 1.27875 0.375 1.9375 C0.58125 2.618125 0.7875 3.29875 1 4 C1.66 4.33 2.32 4.66 3 5 C-0.42766564 5.85691641 -2.62751675 6.01174497 -6 5 C-6.99 5 -7.98 5 -9 5 C-4.5 0 -4.5 0 0 0 Z " fill="#C9815D" transform="translate(52,85)"/>
<path d="M0 0 C1.32 1.32 2.64 2.64 4 4 C3.1875 6.4375 3.1875 6.4375 2 9 C1.01 9.33 0.02 9.66 -1 10 C-0.67 6.7 -0.34 3.4 0 0 Z " fill="#E3B286" transform="translate(142,129)"/>
<path d="M0 0 C0.66 0 1.32 0 2 0 C2.08121924 1.60332791 2.13929134 3.20784026 2.1875 4.8125 C2.23970703 6.15248047 2.23970703 6.15248047 2.29296875 7.51953125 C1.95081002 10.41647515 1.24606427 11.22555028 -1 13 C-1.07654536 8.48382401 -1.10228696 4.40914783 0 0 Z " fill="#CA8754" transform="translate(99,228)"/>
<path d="M0 0 C0.66 0 1.32 0 2 0 C3.10228696 4.40914783 3.07654536 8.48382401 3 13 C2.67 12.01 2.34 11.02 2 10 C1.34 10 0.68 10 0 10 C0 6.7 0 3.4 0 0 Z " fill="#CB8853" transform="translate(91,228)"/>
<path d="M0 0 C1.32 0.33 2.64 0.66 4 1 C1.69 3.31 -0.62 5.62 -3 8 C-3.99 7.67 -4.98 7.34 -6 7 C-4.02 4.69 -2.04 2.38 0 0 Z " fill="#B67D5D" transform="translate(68,238)"/>
<path d="M0 0 C1.98 0 3.96 0 6 0 C6.33 1.98 6.66 3.96 7 6 C4.0625 5.25 4.0625 5.25 1 4 C0.125 1.875 0.125 1.875 0 0 Z " fill="#26985A" transform="translate(66,165)"/>
<path d="M0 0 C0.99 0.33 1.98 0.66 3 1 C3 1.66 3 2.32 3 3 C1.68 3.33 0.36 3.66 -1 4 C-0.67 5.65 -0.34 7.3 0 9 C-1.32 8.34 -2.64 7.68 -4 7 C-2.68 4.69 -1.36 2.38 0 0 Z " fill="#42A56C" transform="translate(39,174)"/>
<path d="M0 0 C0.66 0 1.32 0 2 0 C2 2.31 2 4.62 2 7 C0.35 7 -1.3 7 -3 7 C-2.01 4.69 -1.02 2.38 0 0 Z " fill="#1D1D1D" transform="translate(61,154)"/>
<path d="M0 0 C0.66 0 1.32 0 2 0 C2.99 2.31 3.98 4.62 5 7 C3.68 7.33 2.36 7.66 1 8 C0.67 5.36 0.34 2.72 0 0 Z " fill="#44A56C" transform="translate(152,175)"/>
<path d="" fill="#1D1D1D" transform="translate(0,0)"/>
</svg>
