<?xml version="1.0" encoding="UTF-8"?>
<svg version="1.1" xmlns="http://www.w3.org/2000/svg" width="64" height="64">
<path d="M0 0 C1.17973389 0.16435547 1.17973389 0.16435547 2.38330078 0.33203125 C6.54973022 1.03202411 10.67972405 1.85622115 14.80859375 2.75 C15.65744141 2.92789062 16.50628906 3.10578125 17.38085938 3.2890625 C23.60197967 4.61544296 23.60197967 4.61544296 25.87109375 5.75 C26.86628489 8.91119539 27.28239716 10.53155085 26.87109375 13.75 C25.24255612 16.67627855 23.37464094 19.33334309 21.44140625 22.06640625 C19.80576935 24.86163648 19.51521372 26.03659845 19.80859375 29.1875 C19.82921875 30.363125 19.84984375 31.53875 19.87109375 32.75 C13.86686625 38.19569471 7.09097178 38.04364825 -0.640625 37.96484375 C-9.32166095 37.43017748 -16.51391516 35.48299228 -23.12890625 29.75 C-24.33163444 27.34454362 -24.22962097 25.80003047 -24.19140625 23.125 C-24.18238281 22.30773437 -24.17335938 21.49046875 -24.1640625 20.6484375 C-24.15246094 20.02195312 -24.14085937 19.39546875 -24.12890625 18.75 C-22.97390625 18.358125 -21.81890625 17.96625 -20.62890625 17.5625 C-15.06422941 14.86895961 -12.820678 9.85677036 -9.98828125 4.6484375 C-7.315933 0.48271816 -4.87831836 -0.68349293 0 0 Z " fill="#E6936A" transform="translate(30.12890625,12.25)"/>
<path d="M0 0 C8.24430867 0.47912816 16.00044527 1.97785501 24 4 C22.6993094 7.61020953 21.1097205 10.37635819 18.8125 13.4375 C16.28300922 17.09213286 16.28300922 17.09213286 16.125 21.5625 C16.41375 22.366875 16.7025 23.17125 17 24 C9.51593843 27.90472778 2.79703799 27.94633321 -5.3125 25.75 C-9.18153367 24.45219816 -12.20163833 23.07819783 -15 20 C-15 18.68 -15 17.36 -15 16 C-13.93652344 15.64292969 -12.87304688 15.28585938 -11.77734375 14.91796875 C-7.58057148 13.11935206 -5.69000399 10.2320333 -3.5625 6.3125 C-3.21251953 5.70599609 -2.86253906 5.09949219 -2.50195312 4.47460938 C-1.65035372 2.99305972 -0.82263046 1.49782845 0 0 Z " fill="#EBBC95" transform="translate(27,16)"/>
<path d="M0 0 C0.33 0 0.66 0 1 0 C1.20625 1.0725 1.4125 2.145 1.625 3.25 C3.30609174 7.83479564 4.70358287 8.8112592 9 11 C15.08281057 13.19613161 20.75678201 13.33380788 27.1875 13.3125 C28.17169922 13.32861328 29.15589844 13.34472656 30.16992188 13.36132812 C31.59208008 13.36229492 31.59208008 13.36229492 33.04296875 13.36328125 C34.32723755 13.36775269 34.32723755 13.36775269 35.63745117 13.37231445 C38.47927686 12.92447068 39.79807852 11.79204127 42 10 C42.66 10 43.32 10 44 10 C43.8125 12.3125 43.8125 12.3125 43 15 C36.4136183 20.12274132 27.9439136 19.4892668 20 19 C12.50397428 17.8626102 6.75639967 15.98887971 1 11 C-0.20272819 8.59454362 -0.10071472 7.05003047 -0.0625 4.375 C-0.05347656 3.55773438 -0.04445313 2.74046875 -0.03515625 1.8984375 C-0.02355469 1.27195313 -0.01195312 0.64546875 0 0 Z " fill="#C0694A" transform="translate(6,31)"/>
<path d="M0 0 C-0.1875 2.3125 -0.1875 2.3125 -1 5 C-6.03730148 8.91790115 -11.24143979 9.13959614 -17.4375 9.125 C-18.52933594 9.12757812 -19.62117188 9.13015625 -20.74609375 9.1328125 C-23.91192524 9.00359489 -26.89035545 8.59097317 -30 8 C-30 7.67 -30 7.34 -30 7 C-29.10539062 6.96261719 -28.21078125 6.92523438 -27.2890625 6.88671875 C-18.15754781 6.39022915 -7.62997937 0 0 0 Z " fill="#884935" transform="translate(50,41)"/>
<path d="M0 0 C0.33 0 0.66 0 1 0 C1.47618831 4.65133934 0.07415149 6.99723976 -2.5 10.8125 C-3.1496875 11.78832031 -3.799375 12.76414062 -4.46875 13.76953125 C-4.9740625 14.50558594 -5.479375 15.24164063 -6 16 C-6.66 15.67 -7.32 15.34 -8 15 C-6.53025751 9.26800429 -3.55513098 4.66416601 0 0 Z " fill="#874B37" transform="translate(56,21)"/>
<path d="M0 0 C-0.639375 0.28875 -1.27875 0.5775 -1.9375 0.875 C-4.15206079 1.82823451 -4.15206079 1.82823451 -5 4 C-16.52164009 4.18451025 -16.52164009 4.18451025 -22 3 C-22 2.67 -22 2.34 -22 2 C-21.04738281 1.95101562 -20.09476563 1.90203125 -19.11328125 1.8515625 C-17.85902344 1.77679688 -16.60476562 1.70203125 -15.3125 1.625 C-13.45044922 1.52058594 -13.45044922 1.52058594 -11.55078125 1.4140625 C-7.10203285 0.89528656 -4.27094102 -1.42364701 0 0 Z " fill="#A0533A" transform="translate(42,46)"/>
<path d="M0 0 C0.33 0 0.66 0 1 0 C1.268125 1.051875 1.53625 2.10375 1.8125 3.1875 C2.8676829 6.57519246 4.04726378 9.07089567 6 12 C3.5625 11.625 3.5625 11.625 1 11 C-0.20272819 8.59454362 -0.10071472 7.05003047 -0.0625 4.375 C-0.05347656 3.55773438 -0.04445313 2.74046875 -0.03515625 1.8984375 C-0.02355469 1.27195313 -0.01195312 0.64546875 0 0 Z " fill="#B16850" transform="translate(6,31)"/>
</svg>
