<?xml version="1.0" encoding="UTF-8"?>
<svg version="1.1" xmlns="http://www.w3.org/2000/svg" width="192" height="256">
<path d="M0 0 C3.29107721 2.43042718 6.18711269 5.02259824 8.9375 8.0625 C9.49179688 8.62453125 10.04609375 9.1865625 10.6171875 9.765625 C18.46753667 18.05397648 21.31448755 27.07579908 22.95019531 38.13647461 C23.53190509 42.06848627 24.44187278 45.39821331 25.9375 49.0625 C26.23828125 51.4921875 26.23828125 51.4921875 26.25 53.9375 C26.26675781 54.73929688 26.28351563 55.54109375 26.30078125 56.3671875 C25.91319245 59.24284637 24.88488441 61.42136598 23.68823242 64.04101562 C22.21868737 67.99803449 21.92261586 72.20360254 21.4375 76.375 C20.77823616 81.97060361 20.00672362 87.05542985 18.0859375 92.37109375 C16.80226443 96.32914386 16.80226443 96.32914386 18.5078125 100.234375 C19.35085937 101.08515625 20.19390625 101.9359375 21.0625 102.8125 C24.51238586 106.40210086 26.89547671 109.49797736 28.9375 114.0625 C29.9275 114.0625 30.9175 114.0625 31.9375 114.0625 C32.30302803 115.47627782 32.65445495 116.89370576 33 118.3125 C33.19722656 119.10140625 33.39445312 119.8903125 33.59765625 120.703125 C33.9375 123.0625 33.9375 123.0625 33.45825195 124.72241211 C32.70737674 128.09659817 32.87607615 131.42828281 32.9453125 134.86328125 C32.96283503 136.41340484 32.97974271 137.96353548 32.99609375 139.51367188 C33.02697597 141.94282776 33.06243548 144.37162633 33.10888672 146.80053711 C33.15150483 149.15482884 33.17474525 151.50870693 33.1953125 153.86328125 C33.22324387 154.93863884 33.22324387 154.93863884 33.2517395 156.03572083 C33.28112102 161.88165785 31.91576647 166.14559659 28.63671875 170.98046875 C24.07720074 173.88388596 16.41375039 172.49235356 11.3046875 171.60546875 C9.49836347 171.15550631 7.71366687 170.61972882 5.9375 170.0625 C5.9375 166.4325 5.9375 162.8025 5.9375 159.0625 C5.2775 159.0625 4.6175 159.0625 3.9375 159.0625 C2.13413955 156.41049934 1.93962367 154.94782161 2 151.6875 C3.60048182 145.49897028 7.80747396 141.66738316 12.9375 138.0625 C13.5975 138.0625 14.2575 138.0625 14.9375 138.0625 C14.4425 134.5975 14.4425 134.5975 13.9375 131.0625 C13.31875 131.02125 12.7 130.98 12.0625 130.9375 C9.9375 130.0625 9.9375 130.0625 8.75 127.25 C8.30065268 125.4871759 7.86684551 123.71932103 7.5 121.9375 C6.78651797 119.55922656 5.43754261 118.01907732 3.9375 116.0625 C3.9375 115.4025 3.9375 114.7425 3.9375 114.0625 C1.39296614 115.03544516 1.39296614 115.03544516 -1.0625 117.0625 C-1.92305563 119.7499007 -2.47194008 122.00046383 -2.875 124.75 C-3.05579102 125.8028418 -3.05579102 125.8028418 -3.24023438 126.87695312 C-3.53365927 128.60229153 -3.80070217 130.3320802 -4.0625 132.0625 C-3.4025 132.0625 -2.7425 132.0625 -2.0625 132.0625 C0.42277582 148.90468167 0.42277582 148.90468167 -0.0625 156.0625 C-0.7225 156.7225 -1.3825 157.3825 -2.0625 158.0625 C-2.81564176 162.93164905 -2.5779872 166.99187274 -0.4375 171.4375 C1.86173892 174.22491402 1.86173892 174.22491402 5.1875 176.0625 C6.095 176.7225 7.0025 177.3825 7.9375 178.0625 C7.9375 180.0425 7.9375 182.0225 7.9375 184.0625 C-1.9625 184.0625 -11.8625 184.0625 -22.0625 184.0625 C-22.3925 172.1825 -22.7225 160.3025 -23.0625 148.0625 C-27.6825 148.0625 -32.3025 148.0625 -37.0625 148.0625 C-37.3925 159.9425 -37.7225 171.8225 -38.0625 184.0625 C-47.9625 184.0625 -57.8625 184.0625 -68.0625 184.0625 C-68.0625 178.0625 -68.0625 178.0625 -66.3828125 176.3046875 C-65.65835938 175.85351562 -64.93390625 175.40234375 -64.1875 174.9375 C-61.05294522 172.94891148 -59.28577046 171.63090034 -58.0625 168.0625 C-57.64070592 163.07961059 -57.92797749 158.05838764 -58.0625 153.0625 C-58.08715332 152.02851074 -58.11180664 150.99452148 -58.13720703 149.92919922 C-58.22506357 146.43150508 -58.32876307 142.93460447 -58.4375 139.4375 C-58.4681958 138.31851318 -58.4988916 137.19952637 -58.53051758 136.04663086 C-58.80559326 128.26534916 -59.72009873 120.73043489 -61.0625 113.0625 C-66.19037615 118.16923027 -68.12828596 120.72224681 -69.0625 128.0625 C-69.7225 129.0525 -70.3825 130.0425 -71.0625 131.0625 C-72.0525 131.0625 -73.0425 131.0625 -74.0625 131.0625 C-74.3925 133.3725 -74.7225 135.6825 -75.0625 138.0625 C-74.52625 138.289375 -73.99 138.51625 -73.4375 138.75 C-67.95510953 141.7797421 -64.14453924 145.06132808 -62.0625 151.0625 C-62.29803225 154.12441921 -62.69347529 156.32445058 -64.0625 159.0625 C-64.7225 159.0625 -65.3825 159.0625 -66.0625 159.0625 C-66.0625 162.6925 -66.0625 166.3225 -66.0625 170.0625 C-72.93606199 172.2189116 -79.88814739 173.16771235 -87.0625 172.0625 C-90.16513403 170.1082847 -91.58016405 167.62934765 -92.66577148 164.10279846 C-93.34870982 160.59057792 -93.16191454 157.02868711 -93.125 153.46484375 C-93.11932007 152.21883141 -93.11932007 152.21883141 -93.11352539 150.94764709 C-93.1013266 148.29837829 -93.08269552 145.64921919 -93.0625 143 C-93.03594134 139.50911751 -93.01593178 136.0182891 -93 132.52734375 C-92.99170166 131.72417221 -92.98340332 130.92100067 -92.97485352 130.0934906 C-92.96037205 126.81575656 -93.01820142 124.19539573 -94.0625 121.0625 C-93.46456327 118.71061553 -92.80368205 116.37324405 -92.0625 114.0625 C-91.0725 114.0625 -90.0825 114.0625 -89.0625 114.0625 C-87.67275367 112.16609175 -87.67275367 112.16609175 -86.4375 109.6875 C-84.09634916 105.45679087 -81.56488088 102.50667942 -78.0625 99.1875 C-74.81506807 95.757409 -74.81506807 95.757409 -73.8984375 91.29296875 C-74.40501225 88.33720104 -74.40501225 88.33720104 -75.25 85.3359375 C-76.16158934 81.66328428 -76.31487494 78.27838478 -76.4375 74.5 C-76.75329219 68.55460466 -78.00937337 64.0328672 -80.26953125 58.57421875 C-81.70297378 54.0338072 -81.18739791 49.31229582 -79.0625 45.0625 C-78.79315023 42.77302696 -78.54698933 40.48080566 -78.3125 38.1875 C-76.99626971 27.27878262 -73.09893704 18.50227139 -66.0625 10.0625 C-65.464375 9.19625 -64.86625 8.33 -64.25 7.4375 C-48.61266443 -9.54017862 -19.11387445 -12.1862758 0 0 Z " fill="#B57455" transform="translate(126.0625,71.9375)"/>
<path d="M0 0 C3.29107721 2.43042718 6.18711269 5.02259824 8.9375 8.0625 C9.49179688 8.62453125 10.04609375 9.1865625 10.6171875 9.765625 C18.59546155 18.1890388 23.00136012 29.00842203 23.0625 40.625 C23.02125 41.759375 22.98 42.89375 22.9375 44.0625 C22.174375 43.423125 21.41125 42.78375 20.625 42.125 C18.05503287 39.92017219 18.05503287 39.92017219 14.9375 39.0625 C13.8483272 41.2408456 13.65717644 42.7828964 13.40234375 45.1953125 C13.31533203 46.00097656 13.22832031 46.80664062 13.13867188 47.63671875 C13.05166016 48.47847656 12.96464844 49.32023437 12.875 50.1875 C12.73868164 51.46173828 12.73868164 51.46173828 12.59960938 52.76171875 C12.3754632 54.8616145 12.15603552 56.96201293 11.9375 59.0625 C6.97111674 59.26290891 3.17151977 58.74214756 -1.5 57.0625 C-2.55058594 56.69125 -3.60117188 56.32 -4.68359375 55.9375 C-5.46863281 55.64875 -6.25367187 55.36 -7.0625 55.0625 C-7.248125 56.733125 -7.248125 56.733125 -7.4375 58.4375 C-8.0625 62.0625 -8.0625 62.0625 -10.0625 64.0625 C-13.35964793 63.73278521 -14.6851839 63.4398161 -17.0625 61.0625 C-17.37787716 56.72606399 -17.51147847 54.73596771 -15.0625 51.0625 C-15.84753906 50.40765625 -16.63257813 49.7528125 -17.44140625 49.078125 C-24.65366958 42.88044486 -30.17968076 36.92189038 -34.0625 28.0625 C-34.0625 27.0725 -34.0625 26.0825 -34.0625 25.0625 C-34.63355469 25.50980469 -35.20460937 25.95710938 -35.79296875 26.41796875 C-45.56370041 33.70329967 -55.21732652 37.02186227 -67.234375 38.53125 C-71.06685296 39.25116299 -73.10369232 40.58349897 -76.0625 43.0625 C-77.0525 43.5575 -77.0525 43.5575 -78.0625 44.0625 C-78.82578317 30.8322584 -74.07670592 18.93137823 -65.75 8.75 C-49.46961618 -8.74693998 -20.27333939 -12.92550633 0 0 Z " fill="#BD7959" transform="translate(126.0625,71.9375)"/>
<path d="M0 0 C0.3403125 0.76183594 0.680625 1.52367188 1.03125 2.30859375 C5.48915622 11.80535673 10.76552607 19.69017749 20 25 C19.67 25.515625 19.34 26.03125 19 26.5625 C17.65707286 29.8358849 17.74047344 32.49639145 18 36 C18.66 36.66 19.32 37.32 20 38 C22.60280568 37.67958603 22.60280568 37.67958603 25 37 C25.66 34.69 26.32 32.38 27 30 C31.11390262 30.81019497 35.2132475 31.68135227 39.3125 32.5625 C40.56675781 32.83191406 41.82101563 33.10132813 43.11328125 33.37890625 C44.06589844 33.58386719 45.01851563 33.78882813 46 34 C46.07347656 32.10314453 46.07347656 32.10314453 46.1484375 30.16796875 C46.2234738 28.50779053 46.29902127 26.84763536 46.375 25.1875 C46.4059375 24.35412109 46.436875 23.52074219 46.46875 22.66210938 C46.50742188 21.85966797 46.54609375 21.05722656 46.5859375 20.23046875 C46.63306885 19.12288208 46.63306885 19.12288208 46.68115234 17.99291992 C47 16 47 16 49 13 C53.88461676 15.6516491 58.19320406 18.57961219 60 24 C60.52166057 28.96860315 60.5724051 32.85518979 58.3125 37.375 C54.9276039 41.2173145 52.63364995 43.67910447 47.5 44.6875 C42.91499506 46.40687685 42.3843579 48.45535839 40.30078125 52.68359375 C36.81571955 58.88972465 30.40896126 62.3645393 24 65 C23.15953125 65.35835938 22.3190625 65.71671875 21.453125 66.0859375 C11.0417113 68.84189995 -3.92769018 68.86447346 -13.77734375 64.33203125 C-20.88177377 60.07436757 -27.56587648 55.4974735 -29.75 47.125 C-29.87375 46.073125 -29.87375 46.073125 -30 45 C-31.010625 44.938125 -32.02125 44.87625 -33.0625 44.8125 C-37.59056867 44.13283046 -40.82846189 42.29414912 -44 39 C-46.95227616 34.35926453 -47.54886349 29.56103444 -46.7109375 24.1796875 C-45.25802168 19.72514338 -42.17626739 16.39516916 -38.26953125 13.890625 C-35.09931524 12.64654712 -31.84566983 12.21285311 -28.5 11.6875 C-19.45878922 10.11914773 -7.17086942 0 0 0 Z " fill="#FBD4AE" transform="translate(92,97)"/>
<path d="M0 0 C1.83643141 3.67286281 0.3303395 8.04609815 -0.25 12 C-0.43369141 13.36318359 -0.43369141 13.36318359 -0.62109375 14.75390625 C-1.30491246 19.51355528 -2.23287039 23.80011023 -3.8671875 28.328125 C-5.13690962 32.27650721 -5.13690962 32.27650721 -3.4296875 36.171875 C-2.58664063 37.02265625 -1.74359375 37.8734375 -0.875 38.75 C2.57488586 42.33960086 4.95797671 45.43547736 7 50 C7.99 50 8.98 50 10 50 C10.36552803 51.41377782 10.71695495 52.83120576 11.0625 54.25 C11.25972656 55.03890625 11.45695312 55.8278125 11.66015625 56.640625 C12 59 12 59 11.52075195 60.65991211 C10.76987674 64.03409817 10.93857615 67.36578281 11.0078125 70.80078125 C11.02533503 72.35090484 11.04224271 73.90103548 11.05859375 75.45117188 C11.08947597 77.88032776 11.12493548 80.30912633 11.17138672 82.73803711 C11.21400483 85.09232884 11.23724525 87.44620693 11.2578125 89.80078125 C11.28574387 90.87613884 11.28574387 90.87613884 11.3142395 91.97322083 C11.34362102 97.81915785 9.97826647 102.08309659 6.69921875 106.91796875 C2.13970074 109.82138596 -5.52374961 108.42985356 -10.6328125 107.54296875 C-12.43913653 107.09300631 -14.22383313 106.55722882 -16 106 C-16 102.37 -16 98.74 -16 95 C-16.66 95 -17.32 95 -18 95 C-19.80336045 92.34799934 -19.99787633 90.88532161 -19.9375 87.625 C-18.33701818 81.43647028 -14.13002604 77.60488316 -9 74 C-8.34 74 -7.68 74 -7 74 C-7.495 70.535 -7.495 70.535 -8 67 C-8.61875 66.95875 -9.2375 66.9175 -9.875 66.875 C-12 66 -12 66 -13.1875 63.1875 C-13.63684732 61.4246759 -14.07065449 59.65682103 -14.4375 57.875 C-15.15098203 55.49672656 -16.49995739 53.95657732 -18 52 C-18 51.34 -18 50.68 -18 50 C-20.54453386 50.97294516 -20.54453386 50.97294516 -23 53 C-23.86055563 55.6874007 -24.40944008 57.93796383 -24.8125 60.6875 C-24.93302734 61.38939453 -25.05355469 62.09128906 -25.17773438 62.81445312 C-25.47115927 64.53979153 -25.73820217 66.2695802 -26 68 C-30.76456094 67.54456403 -33.53066249 65.31345845 -37 62.25 C-37.55453857 61.77062988 -38.10907715 61.29125977 -38.68041992 60.79736328 C-45.08012964 55.18446627 -51.18922707 49.21971439 -57 43 C-57 42.67 -57 42.34 -57 42 C-56.31035156 41.99742187 -55.62070313 41.99484375 -54.91015625 41.9921875 C-47.46448077 41.6857811 -42.58121538 40.00104746 -37 35 C-34.84205756 32.56708429 -33.18607482 30.2590257 -32.69921875 26.96484375 C-32 25 -32 25 -29.92578125 23.76171875 C-29.06339844 23.40722656 -28.20101562 23.05273438 -27.3125 22.6875 C-20.76745032 19.63438838 -17.26645141 15.66831022 -14.125 9.25 C-11.62913116 5.43278883 -10.10227501 4.88146693 -5.90625 3.62109375 C-3.54387976 2.85138705 -1.85997242 1.62747587 0 0 Z " fill="#71A1BD" transform="translate(148,136)"/>
<path d="M0 0 C3.82004503 1.45422169 5.15578619 5.0833887 7.08203125 8.50390625 C9.28382356 12.15184617 11.78046412 15.26077187 14.5625 18.47265625 C15.03961426 19.0241333 15.51672852 19.57561035 16.00830078 20.14379883 C16.93630193 21.21069646 17.86655805 22.27563787 18.79931641 23.33837891 C19.89499894 24.59331024 20.97085109 25.86550281 22.04296875 27.140625 C25.51996665 31.25414425 29.21111545 34.80788141 33.36328125 38.2421875 C35.0625 39.78515625 35.0625 39.78515625 37.0625 42.78515625 C26.5025 42.78515625 15.9425 42.78515625 5.0625 42.78515625 C4.5675 40.20703125 4.0725 37.62890625 3.5625 34.97265625 C3.40587891 34.16465576 3.24925781 33.35665527 3.08789062 32.52416992 C2.52652571 29.56475212 2.0625 26.80393559 2.0625 23.78515625 C-3.13295111 28.80145387 -5.01186249 31.51229007 -5.9375 38.78515625 C-6.5975 39.77515625 -7.2575 40.76515625 -7.9375 41.78515625 C-8.9275 41.78515625 -9.9175 41.78515625 -10.9375 41.78515625 C-11.2675 44.09515625 -11.5975 46.40515625 -11.9375 48.78515625 C-11.40125 49.01203125 -10.865 49.23890625 -10.3125 49.47265625 C-4.83010953 52.50239835 -1.01953924 55.78398433 1.0625 61.78515625 C0.82696775 64.84707546 0.43152471 67.04710683 -0.9375 69.78515625 C-1.5975 69.78515625 -2.2575 69.78515625 -2.9375 69.78515625 C-2.9375 73.41515625 -2.9375 77.04515625 -2.9375 80.78515625 C-9.81106199 82.94156785 -16.76314739 83.8903686 -23.9375 82.78515625 C-27.04013403 80.83094095 -28.45516405 78.3520039 -29.54077148 74.82545471 C-30.22370982 71.31323417 -30.03691454 67.75134336 -30 64.1875 C-29.99432007 62.94148766 -29.99432007 62.94148766 -29.98852539 61.67030334 C-29.9763266 59.02103454 -29.95769552 56.37187544 -29.9375 53.72265625 C-29.91094134 50.23177376 -29.89093178 46.74094535 -29.875 43.25 C-29.86670166 42.44682846 -29.85840332 41.64365692 -29.84985352 40.81614685 C-29.83537205 37.53841281 -29.89320142 34.91805198 -30.9375 31.78515625 C-30.33956327 29.43327178 -29.67868205 27.0959003 -28.9375 24.78515625 C-27.9475 24.78515625 -26.9575 24.78515625 -25.9375 24.78515625 C-24.58284439 22.92134783 -24.58284439 22.92134783 -23.375 20.47265625 C-18.79710728 12.41831868 -10.47085484 -0.44270158 0 0 Z " fill="#75A7C3" transform="translate(62.9375,161.21484375)"/>
<path d="M0 0 C15.51 0 31.02 0 47 0 C47.66 3.96 48.32 7.92 49 12 C51.7018576 15.1490712 51.7018576 15.1490712 55 16 C55.02578125 16.65226562 55.0515625 17.30453125 55.078125 17.9765625 C55.45090923 23.72082863 56.06391604 27.5320128 60 32 C61.0725 32.66 62.145 33.32 63.25 34 C64.1575 34.66 65.065 35.32 66 36 C66 37.98 66 39.96 66 42 C56.1 42 46.2 42 36 42 C35.67 30.12 35.34 18.24 35 6 C30.38 6 25.76 6 21 6 C20.67 17.88 20.34 29.76 20 42 C10.1 42 0.2 42 -10 42 C-10 36 -10 36 -8.3203125 34.2421875 C-7.59585938 33.79101562 -6.87140625 33.33984375 -6.125 32.875 C-2.93067003 30.84848959 -1.38123494 29.54622984 0 26 C0.27469547 23.09627521 0.27469547 23.09627521 0.1953125 19.921875 C0.19031738 18.87612305 0.18532227 17.83037109 0.18017578 16.75292969 C0.16196777 15.43196289 0.14375977 14.11099609 0.125 12.75 C0.08375 8.5425 0.0425 4.335 0 0 Z " fill="#E59B5D" transform="translate(68,214)"/>
<path d="M0 0 C1.20375935 3.61127805 1.18117153 6.94179806 1.203125 10.703125 C1.20882507 11.45914001 1.21452515 12.21515503 1.22039795 12.99407959 C1.22983965 14.59450892 1.23637864 16.19495762 1.24023438 17.79541016 C1.24990945 20.22724 1.28092679 22.65821328 1.3125 25.08984375 C1.3190337 26.64843251 1.32428273 28.20702728 1.328125 29.765625 C1.3404718 30.48566711 1.3528186 31.20570923 1.36553955 31.9475708 C1.34016777 37.78529509 -0.02459498 42.08731572 -3.30078125 46.91796875 C-7.86029926 49.82138596 -15.52374961 48.42985356 -20.6328125 47.54296875 C-22.43913653 47.09300631 -24.22383313 46.55722882 -26 46 C-26 42.37 -26 38.74 -26 35 C-26.66 35 -27.32 35 -28 35 C-29.80336045 32.34799934 -29.99787633 30.88532161 -29.9375 27.625 C-28.33701818 21.43647028 -24.13002604 17.60488316 -19 14 C-18.34 14 -17.68 14 -17 14 C-17.66 11.36 -18.32 8.72 -19 6 C-5.89320388 0 -5.89320388 0 0 0 Z " fill="#EFCAA7" transform="translate(158,196)"/>
<path d="M0 0 C4.31931387 0.61611835 8.25208775 1.64238578 12.375 3.0625 C13.43460938 3.42472656 14.49421875 3.78695312 15.5859375 4.16015625 C16.38257812 4.43730469 17.17921875 4.71445313 18 5 C17.67 7.97 17.34 10.94 17 14 C18.32 14.66 19.64 15.32 21 16 C25.37459539 19.21398845 28.16895762 21.72228962 30 27 C29.76446775 30.06191921 29.36902471 32.26195058 28 35 C27.34 35 26.68 35 26 35 C26 38.63 26 42.26 26 46 C19.12643801 48.1564116 12.17435261 49.10521235 5 48 C1.96750862 46.08996453 0.59758793 43.69688759 -0.60107422 40.29321289 C-1.1930002 36.89054416 -1.14228639 33.50103367 -1.1328125 30.05859375 C-1.13376923 29.29450699 -1.13472595 28.53042023 -1.13571167 27.74317932 C-1.1363907 26.13192665 -1.13455573 24.52067121 -1.13037109 22.90942383 C-1.12501154 20.44280874 -1.13032921 17.97637512 -1.13671875 15.50976562 C-1.13605806 13.94270793 -1.1347771 12.37565035 -1.1328125 10.80859375 C-1.13483673 10.07104355 -1.13686096 9.33349335 -1.13894653 8.57359314 C-1.12460119 5.44440529 -0.99722717 2.9916815 0 0 Z " fill="#EFCAA7" transform="translate(34,196)"/>
<path d="M0 0 C3.29107721 2.43042718 6.18711269 5.02259824 8.9375 8.0625 C9.50339844 8.65933594 10.06929688 9.25617188 10.65234375 9.87109375 C14.73933509 14.30370803 17.62612234 18.47667066 19.9375 24.0625 C19.6075 24.7225 19.2775 25.3825 18.9375 26.0625 C17.761875 24.5465625 17.761875 24.5465625 16.5625 23 C8.82221707 14.04803726 -2.4123253 8.03037082 -14.0625 6.0625 C-34.8968871 4.76393306 -52.14081221 5.65135452 -68.5 19.75 C-70.75113257 21.79434795 -72.92550734 23.89936676 -75.0625 26.0625 C-72.35678396 15.51020745 -64.51084843 6.18089817 -55.45703125 0.4453125 C-38.61522405 -9.2806251 -16.87260382 -10.75732731 0 0 Z " fill="#D9865E" transform="translate(126.0625,71.9375)"/>
<path d="M0 0 C0.67804688 0.37511719 1.35609375 0.75023438 2.0546875 1.13671875 C5.02886556 2.77210475 8.01376609 4.3867472 11 6 C11.81339844 6.45246094 12.62679687 6.90492187 13.46484375 7.37109375 C24.00754617 13.00205461 35.10072689 15.56412919 47 16 C47.09945415 22.11090483 47.0712828 27.97403427 46 34 C39.11168659 34.62621031 33.41097745 32.35806067 27 30 C26.87625 31.11375 26.7525 32.2275 26.625 33.375 C26 37 26 37 24 39 C20.70285207 38.67028521 19.3773161 38.3773161 17 36 C16.68462284 31.66356399 16.55102153 29.67346771 19 26 C18.21496094 25.34515625 17.42992188 24.6903125 16.62109375 24.015625 C9.40883042 17.81794486 3.88281924 11.85939038 0 3 C0 2.01 0 1.02 0 0 Z " fill="#DA865D" transform="translate(92,97)"/>
<path d="M0 0 C1.63001953 -0.0309375 1.63001953 -0.0309375 3.29296875 -0.0625 C14.11247075 -0.1142061 24.03262359 1.92446478 33 8.25 C37 12.34756098 37 12.34756098 37 16.25 C36.23816406 16.05664062 35.47632813 15.86328125 34.69140625 15.6640625 C33.65886719 15.40367188 32.62632812 15.14328125 31.5625 14.875 C30.55316406 14.61976562 29.54382813 14.36453125 28.50390625 14.1015625 C26.76947266 13.68003906 26.76947266 13.68003906 25 13.25 C24.36505615 13.07355957 23.7301123 12.89711914 23.07592773 12.71533203 C16.07075239 10.90864447 9.14136478 10.86660171 1.9375 10.875 C0.65359375 10.87516113 -0.6303125 10.87532227 -1.953125 10.87548828 C-13.52908583 11.01448174 -23.28702288 12.81290873 -34 17.25 C-33.3433364 12.00568656 -31.34715958 10.1661259 -27.3984375 6.89453125 C-23.54514875 4.25245542 -19.41435798 2.7083847 -15 1.25 C-10.12002721 -0.3766576 -5.11039106 0.02357735 0 0 Z " fill="#72A0BB" transform="translate(97,80.75)"/>
<path d="M0 0 C3.06627706 -0.21665549 6.11727238 -0.37459318 9.1875 -0.5 C10.05181641 -0.56703125 10.91613281 -0.6340625 11.80664062 -0.703125 C14.42376535 -0.78334338 16.4868787 -0.75115122 19 0 C20.76661711 1.90810696 21.81902516 3.71385607 22.92773438 6.06005859 C24.00635885 8.37459019 24.00635885 8.37459019 27.3125 10.125 C28.6428125 11.053125 28.6428125 11.053125 30 12 C30 13.98 30 15.96 30 18 C20.1 18 10.2 18 0 18 C0 12.06 0 6.12 0 0 Z " fill="#AC6F52" transform="translate(104,238)"/>
<path d="M0 0 C6.27 0 12.54 0 19 0 C19 5.94 19 11.88 19 18 C9.1 18 -0.8 18 -11 18 C-11 12 -11 12 -9.35546875 10.3125 C-8.64003906 9.879375 -7.92460938 9.44625 -7.1875 9 C-2.77665818 6.3004684 -2.65094933 5.30189867 0 0 Z " fill="#AC6F52" transform="translate(69,238)"/>
<path d="M0 0 C1.84301892 3.68603784 0.32965983 8.09426798 -0.25 12.0625 C-0.37246094 12.97966797 -0.49492187 13.89683594 -0.62109375 14.84179688 C-1.47818043 20.82867459 -2.87444324 26.33795657 -5 32 C-7.89509722 31.41923675 -8.92752889 31.06737855 -11.16796875 28.984375 C-15.14559152 26.19729588 -18.56245505 26.33247908 -23.3125 26.25 C-24.56643555 26.20552734 -24.56643555 26.20552734 -25.84570312 26.16015625 C-27.89662485 26.08983893 -29.94831562 26.04261027 -32 26 C-30.3054832 24.87032213 -28.60357838 23.75105014 -26.87890625 22.66796875 C-21.92840025 19.50398599 -17.76559651 16.70364664 -15.16015625 11.23828125 C-13.31068681 7.45202837 -12.06452412 5.68011034 -8 4.25 C-7.3090625 4.04246094 -6.618125 3.83492187 -5.90625 3.62109375 C-3.54387976 2.85138705 -1.85997242 1.62747587 0 0 Z " fill="#B67657" transform="translate(148,136)"/>
<path d="M0 0 C0.58555664 0.21366211 1.17111328 0.42732422 1.77441406 0.64746094 C8.56875267 2.92999649 14.61875312 3.39915026 21.75 3.25 C22.75160156 3.24484375 23.75320312 3.2396875 24.78515625 3.234375 C29.62205302 3.18312311 34.24752393 3.00222284 39 2 C38.67581909 7.34898508 35.70529751 10.44628284 32 14 C27.18014914 17.75948367 22.45449284 19.30457329 16.2890625 19.1953125 C9.07257074 16.57269198 3.81986606 8.45880955 0 2 C0 1.34 0 0.68 0 0 Z " fill="#BE9C7B" transform="translate(77,160)"/>
<path d="M0 0 C0.95132813 0.38671875 0.95132813 0.38671875 1.921875 0.78125 C4.40388195 1.76397356 6.89211099 2.71692721 9.390625 3.65625 C10.18210937 3.95660156 10.97359375 4.25695312 11.7890625 4.56640625 C13.44335481 5.19398698 15.09965277 5.81630376 16.7578125 6.43359375 C17.54414062 6.73394531 18.33046875 7.03429687 19.140625 7.34375 C19.85766602 7.61380859 20.57470703 7.88386719 21.31347656 8.16210938 C23 9 23 9 24 11 C23.06553465 13.03144641 22.06775224 15.03533587 21 17 C20.01 17 19.02 17 18 17 C18 16.34 18 15.68 18 15 C16.989375 14.896875 15.97875 14.79375 14.9375 14.6875 C10.87793427 13.97868694 7.73895088 12.69952313 4 11 C2.00736409 10.31163487 0.00958663 9.63718601 -2 9 C-1.34 6.03 -0.68 3.06 0 0 Z " fill="#598EAD" transform="translate(34,186)"/>
<path d="M0 0 C0.66 2.97 1.32 5.94 2 9 C-2.72107287 10.81579726 -7.46723285 12.54049317 -12.25 14.1875 C-13.24515625 14.53167969 -14.2403125 14.87585938 -15.265625 15.23046875 C-18 16 -18 16 -22 16 C-22.66 14.02 -23.32 12.04 -24 10 C-23.24976563 9.69707031 -22.49953125 9.39414063 -21.7265625 9.08203125 C-15.66030591 6.59899171 -9.763401 3.96942609 -3.9609375 0.91796875 C-2 0 -2 0 0 0 Z " fill="#598EAC" transform="translate(158,186)"/>
<path d="M0 0 C6.27 0 12.54 0 19 0 C19 3.3 19 6.6 19 10 C12.73 10 6.46 10 0 10 C0 6.7 0 3.4 0 0 Z " fill="#F6D0AB" transform="translate(69,228)"/>
<path d="M0 0 C2.22889496 -0.05428973 4.45817471 -0.09292338 6.6875 -0.125 C8.54955078 -0.15980469 8.54955078 -0.15980469 10.44921875 -0.1953125 C13.81237857 -0.01032021 15.9985587 0.54232105 19 2 C19 4.64 19 7.28 19 10 C12.73 10 6.46 10 0 10 C0 6.7 0 3.4 0 0 Z " fill="#F7D0AB" transform="translate(104,228)"/>
<path d="M0 0 C2.31 0 4.62 0 7 0 C8.1875 1.6875 8.1875 1.6875 9 4 C7.77882106 6.94519626 6.3542456 8.67896492 4 10.8125 C-0.53091234 12.60598613 -5.22233249 13.04339865 -10 12 C-11.65 10.35 -13.3 8.7 -15 7 C-10.05 7 -5.1 7 0 7 C0 4.69 0 2.38 0 0 Z " fill="#C27E5D" transform="translate(103,144)"/>
<path d="M0 0 C0 0.33 0 0.66 0 1 C-1.2065625 1.185625 -1.2065625 1.185625 -2.4375 1.375 C-3.283125 1.58125 -4.12875 1.7875 -5 2 C-6.12256131 4.24512262 -6.13413762 5.51456649 -6.125 8 C-6.12757812 8.70125 -6.13015625 9.4025 -6.1328125 10.125 C-6.11377236 12.09153775 -6.11377236 12.09153775 -5 14 C-3.35 14 -1.7 14 0 14 C1.26237731 11.47524538 1.09856404 9.68799534 1.0625 6.875 C1.05347656 5.96492188 1.04445313 5.05484375 1.03515625 4.1171875 C1.02355469 3.41851562 1.01195313 2.71984375 1 2 C3.57412647 4.25920675 3.96847031 4.7871746 4.5 8.375 C4 12 4 12 1.9375 14.9375 C-1.74062512 17.52001338 -3.59231863 17.72125695 -8 17 C-10.97270015 14.96604727 -11.82340322 13.54156347 -12.9375 10.125 C-13.01436966 6.28151695 -12.02763285 4.22919306 -10 1 C-6.78548731 -0.60725635 -3.56387464 -0.05748185 0 0 Z " fill="#FCF5F1" transform="translate(86,121)"/>
<path d="M0 0 C1.48831242 0.00667405 2.97660807 0.01863442 4.46484375 0.03515625 C5.22345703 0.03966797 5.98207031 0.04417969 6.76367188 0.04882812 C8.64326246 0.06064945 10.52281274 0.07858547 12.40234375 0.09765625 C12.40234375 2.40765625 12.40234375 4.71765625 12.40234375 7.09765625 C9.75644361 7.12450304 7.11081279 7.14441982 4.46484375 7.16015625 C3.33272461 7.17272461 3.33272461 7.17272461 2.17773438 7.18554688 C0.25240062 7.19418066 -1.67301206 7.14989958 -3.59765625 7.09765625 C-4.59765625 6.09765625 -4.59765625 6.09765625 -4.72265625 3.59765625 C-4.52490553 -0.35735814 -4.12100293 0.11186219 0 0 Z " fill="#FEFBF8" transform="translate(90.59765625,143.90234375)"/>
<path d="M0 0 C0.99 0.66 1.98 1.32 3 2 C3 2.66 3 3.32 3 4 C2.37609375 4.37769531 1.7521875 4.75539062 1.109375 5.14453125 C-1.91888401 7.8082776 -2.14532535 10.8780497 -2.75 14.6875 C-2.87503906 15.38939453 -3.00007813 16.09128906 -3.12890625 16.81445312 C-3.43417555 18.54039881 -3.71910154 20.26992084 -4 22 C-8.875 21.125 -8.875 21.125 -10 20 C-10.56642314 14.22248399 -9.57337256 11.51373376 -6 7 C-4.03592655 4.63353102 -2.0414472 2.30003051 0 0 Z " fill="#668A9F" transform="translate(126,182)"/>
<path d="M0 0 C0.33774332 2.22850277 0.6700187 4.45783467 1 6.6875 C1.185625 7.92886719 1.37125 9.17023438 1.5625 10.44921875 C1.92100411 13.35886371 2.08942256 16.07700022 2 19 C-1.80195622 18.4568634 -3.50130343 16.84334437 -6 14 C-7.41000664 11.17998673 -7.24548451 9.12992745 -7 6 C-4.06666667 0 -4.06666667 0 0 0 Z " fill="#E6B587" transform="translate(59,117)"/>
<path d="M0 0 C1.8871875 0.00773438 1.8871875 0.00773438 3.8125 0.015625 C5.070625 0.01046875 6.32875 0.0053125 7.625 0 C10.8125 0.265625 10.8125 0.265625 12.8125 2.265625 C13.0625 5.265625 13.0625 5.265625 12.8125 8.265625 C12.1525 8.925625 11.4925 9.585625 10.8125 10.265625 C10.8125 8.945625 10.8125 7.625625 10.8125 6.265625 C6.1925 6.265625 1.5725 6.265625 -3.1875 6.265625 C-3.5175 7.585625 -3.8475 8.905625 -4.1875 10.265625 C-5.1640625 4.2109375 -5.1640625 4.2109375 -5.1875 2.265625 C-3.1875 0.265625 -3.1875 0.265625 0 0 Z " fill="#D38F59" transform="translate(92.1875,213.734375)"/>
<path d="M0 0 C0.66 1.32 1.32 2.64 2 4 C2.70125 4.53625 3.4025 5.0725 4.125 5.625 C6.73135712 8.92638569 6.56051326 11.53471459 6.390625 15.6484375 C6 18 6 18 4.25 20.625 C2 22 2 22 -2 22 C-2 21.01 -2 20.02 -2 19 C-2.66 18.67 -3.32 18.34 -4 18 C-3.01 18 -2.02 18 -1 18 C-0.505 9.09 -0.505 9.09 0 0 Z " fill="#E5B386" transform="translate(139,113)"/>
<path d="M0 0 C4.75 0.75 4.75 0.75 7 3 C7.46376812 10.30434783 7.46376812 10.30434783 5 14 C2.5 14.375 2.5 14.375 0 14 C-1.99825961 11.00261059 -2.27550398 10.36652492 -2.25 7 C-2.25515625 6.319375 -2.2603125 5.63875 -2.265625 4.9375 C-2 3 -2 3 0 0 Z " fill="#C17E5D" transform="translate(81,122)"/>
<path d="M0 0 C1.19109375 0.00773438 1.19109375 0.00773438 2.40625 0.015625 C3.2003125 0.01046875 3.994375 0.0053125 4.8125 0 C6.90625 0.265625 6.90625 0.265625 8.90625 2.265625 C9.21875 4.765625 9.21875 4.765625 8.90625 7.265625 C5.21907562 9.72374125 3.26279296 9.57680664 -1.09375 9.265625 C-2.08375 8.605625 -3.07375 7.945625 -4.09375 7.265625 C-4.40625 4.765625 -4.40625 4.765625 -4.09375 2.265625 C-2.09375 0.265625 -2.09375 0.265625 0 0 Z " fill="#E7B688" transform="translate(96.09375,130.734375)"/>
<path d="M0 0 C1.12894876 0.93274109 2.25300876 1.87140122 3.375 2.8125 C4.00148438 3.33457031 4.62796875 3.85664063 5.2734375 4.39453125 C7.51000072 6.47423144 8.91016896 8.13214077 9.23046875 11.2265625 C9.20919922 12.41378906 9.20919922 12.41378906 9.1875 13.625 C9.17783203 14.81996094 9.17783203 14.81996094 9.16796875 16.0390625 C9 18 9 18 8 19 C6.33382885 19.04063832 4.66611905 19.042721 3 19 C2.49666458 16.39643759 1.99720622 13.79223349 1.5 11.1875 C1.35691406 10.44951172 1.21382813 9.71152344 1.06640625 8.95117188 C0.49073719 5.92205609 0 3.090804 0 0 Z " fill="#5A8DAB" transform="translate(65,185)"/>
<path d="M0 0 C2.96175123 0.61277612 4.38058783 1.25372522 7 3 C7.36328125 4.875 7.36328125 4.875 7.3125 7 C7.30863281 7.70125 7.30476563 8.4025 7.30078125 9.125 C7 11 7 11 5 13 C1.70285207 12.67028521 0.3773161 12.3773161 -2 10 C-2.31537716 5.66356399 -2.44897847 3.67346771 0 0 Z " fill="#C17D5D" transform="translate(111,123)"/>
<path d="M0 0 C2.77170395 0.11386459 5.54178046 0.24060778 8.3125 0.375 C9.09818359 0.4059375 9.88386719 0.436875 10.69335938 0.46875 C11.8293457 0.52675781 11.8293457 0.52675781 12.98828125 0.5859375 C14.03302612 0.63306885 14.03302612 0.63306885 15.09887695 0.68115234 C17 1 17 1 20 3 C19.67 3.99 19.34 4.98 19 6 C14.76473973 7.05881507 10.29512167 8.07168728 6 7 C3.57182962 4.94657896 1.77136234 2.63020469 0 0 Z " fill="#6499B9" transform="translate(95,182)"/>
<path d="M0 0 C0 1.65 0 3.3 0 5 C-1.87387477 5.3396019 -3.74916697 5.67138691 -5.625 6 C-6.66914062 6.185625 -7.71328125 6.37125 -8.7890625 6.5625 C-11.90574865 6.98715797 -14.85930812 7.07545206 -18 7 C-18 5.35 -18 3.7 -18 2 C-15.56281065 1.66424944 -13.12529385 1.33130715 -10.6875 1 C-9.99720703 0.90460938 -9.30691406 0.80921875 -8.59570312 0.7109375 C-5.70352927 0.31972558 -2.92235023 0 0 0 Z " fill="#C4805F" transform="translate(88,112)"/>
<path d="M0 0 C4.15921731 1.96407484 6.24853703 4.17719671 8.34765625 8.15625 C9.35793385 11.01164536 8.85913986 13.15822971 8 16 C7.67 16.66 7.34 17.32 7 18 C6.34 18 5.68 18 5 18 C4.72285156 16.95199219 4.44570313 15.90398437 4.16015625 14.82421875 C3.79432048 13.44529933 3.42843233 12.0663938 3.0625 10.6875 C2.88009766 9.99720703 2.69769531 9.30691406 2.50976562 8.59570312 C1.7406739 5.70112156 0.94738424 2.84215271 0 0 Z " fill="#DBB897" transform="translate(55,213)"/>
<path d="M0 0 C0.66 0 1.32 0 2 0 C1.86722656 0.52078125 1.73445312 1.0415625 1.59765625 1.578125 C0.8449883 4.62815201 0.14166329 7.68842047 -0.5625 10.75 C-0.96662109 12.50570312 -0.96662109 12.50570312 -1.37890625 14.296875 C-1.58386719 15.18890625 -1.78882813 16.0809375 -2 17 C-2.66 17 -3.32 17 -4 17 C-5.80336045 14.34799934 -5.99787633 12.88532161 -5.9375 9.625 C-4.76887056 5.10629951 -3.27404028 3.27404028 0 0 Z " fill="#DCB998" transform="translate(134,214)"/>
<path d="M0 0 C1.65 0.33 3.3 0.66 5 1 C5.3125 3.1875 5.3125 3.1875 5 6 C2.875 8.8125 2.875 8.8125 0 11 C-3.3125 11.3125 -3.3125 11.3125 -6 11 C-5.195625 10.113125 -4.39125 9.22625 -3.5625 8.3125 C-1.2960841 5.61712968 -0.31582634 3.57936522 0 0 Z " fill="#FCF7F4" transform="translate(119,127)"/>
<path d="M0 0 C0.99 0.33 1.98 0.66 3 1 C2.67 3.97 2.34 6.94 2 10 C0.68 9.67 -0.64 9.34 -2 9 C-1.34 6.03 -0.68 3.06 0 0 Z " fill="#6B94AB" transform="translate(34,186)"/>
<path d="M0 0 C0.66 0 1.32 0 2 0 C2.66 2.97 3.32 5.94 4 9 C2.68 9.33 1.36 9.66 0 10 C-0.19412181 8.52168779 -0.38012131 7.04230684 -0.5625 5.5625 C-0.66691406 4.73878906 -0.77132812 3.91507813 -0.87890625 3.06640625 C-0.91886719 2.38449219 -0.95882812 1.70257813 -1 1 C-0.67 0.67 -0.34 0.34 0 0 Z " fill="#6B94AC" transform="translate(156,186)"/>
<path d="M0 0 C6.93 0.495 6.93 0.495 14 1 C9.60582947 4.2956279 8.29205973 4.67353487 3 4 C2.01 2.68 1.02 1.36 0 0 Z " fill="#6093B0" transform="translate(95,182)"/>
<path d="M0 0 C2.2636564 1.40445835 4.0208685 3.1967913 6 5 C3.45297384 6.27351308 2.5717055 5.80191925 -0.125 5.0625 C-0.84945312 4.86785156 -1.57390625 4.67320312 -2.3203125 4.47265625 C-2.87460938 4.31667969 -3.42890625 4.16070312 -4 4 C-3.67 3.01 -3.34 2.02 -3 1 C-2.01 0.67 -1.02 0.34 0 0 Z " fill="#6A9AB7" transform="translate(79,183)"/>
<path d="M0 0 C3.63 0 7.26 0 11 0 C9.3125 2.0625 9.3125 2.0625 7 4 C4.25573284 3.80398092 2.44789508 3.22394754 0 2 C0 1.34 0 0.68 0 0 Z " fill="#AF8E70" transform="translate(92,165)"/>
<path d="M0 0 C0.66 0 1.32 0 2 0 C1.88590407 1.45922693 1.75834456 2.91740598 1.625 4.375 C1.55539063 5.18710938 1.48578125 5.99921875 1.4140625 6.8359375 C1 9 1 9 -1 11 C-1.02688151 9.35425434 -1.04634123 7.70838587 -1.0625 6.0625 C-1.07410156 5.14597656 -1.08570312 4.22945312 -1.09765625 3.28515625 C-1 1 -1 1 0 0 Z " fill="#6492AD" transform="translate(122,191)"/>
<path d="M0 0 C2.31 0 4.62 0 7 0 C6.01 1.98 5.02 3.96 4 6 C0 1.125 0 1.125 0 0 Z " fill="#C17D5C" transform="translate(70,121)"/>
<path d="M0 0 C0.99 0.33 1.98 0.66 3 1 C2.01 3.31 1.02 5.62 0 8 C-0.99 8 -1.98 8 -3 8 C-3 7.34 -3 6.68 -3 6 C-2.01 5.34 -1.02 4.68 0 4 C0 2.68 0 1.36 0 0 Z " fill="#6A94AC" transform="translate(55,195)"/>
</svg>
