<?xml version="1.0" encoding="UTF-8"?>
<svg version="1.1" xmlns="http://www.w3.org/2000/svg" width="192" height="256">
<path d="M0 0 C1.76065796 -0.00700928 1.76065796 -0.00700928 3.55688477 -0.01416016 C15.77222042 0.0085921 15.77222042 0.0085921 20.0625 1.125 C21.83984375 2.97265625 21.83984375 2.97265625 23 5.1875 C23.40089844 5.92097656 23.80179687 6.65445313 24.21484375 7.41015625 C24.49457031 7.97605469 24.77429688 8.54195312 25.0625 9.125 C27.64620878 7.92289549 29.2679706 6.93063592 31.375 4.9375 C34.0625 3.125 34.0625 3.125 37.5625 3.125 C41.32560298 4.20017228 43.30955015 5.37205015 46.0625 8.125 C47.27443119 11.76079356 47.00671613 14.35974752 46.75 18.1875 C46.70367432 18.88560791 46.65734863 19.58371582 46.60961914 20.30297852 C46.17179394 26.4714643 45.50108796 32.60996419 44.72338867 38.74438477 C43.74904504 46.42734337 43.74904504 46.42734337 44.0625 54.125 C46.29180256 56.93768079 46.29180256 56.93768079 49.0625 59.125 C52.56677551 63.23346094 52.56785548 67.26775117 52.4140625 72.46875 C51.74322597 77.5372927 49.14664109 80.16992333 45.4375 83.4375 C41.70704088 86.08808938 39.62114123 86.2241009 35.0625 86.125 C35.29110058 87.58684058 35.54620392 89.04455419 35.8125 90.5 C35.95171875 91.31210938 36.0909375 92.12421875 36.234375 92.9609375 C37.31338209 95.78060698 38.3779402 95.89155361 41.0625 97.125 C43.14330275 99.37954771 45.04164873 101.73925042 46.96484375 104.12890625 C49.39867981 106.44490295 50.84700418 106.51810178 54.0625 107.125 C55.875 110.6875 55.875 110.6875 57.0625 114.125 C56.4025 114.785 55.7425 115.445 55.0625 116.125 C55.47242188 117.16398437 55.88234375 118.20296875 56.3046875 119.2734375 C62.39982287 134.93104591 67.29614872 152.76124924 60.27734375 169.046875 C58.2022396 172.59657085 55.65239348 174.33005326 52.0625 176.125 C45.41119562 176.4412858 38.58765238 176.57503386 32.0625 175.125 C29.18037597 172.24287597 29.68641121 169.57727459 29.50390625 165.6328125 C28.99084427 162.71789402 27.86042184 161.42366931 26.0625 159.125 C25.86886058 154.09037498 27.30083787 151.49253827 30.5 147.8125 C32.31988106 145.87863892 34.18481561 144.00268439 36.0625 142.125 C35.72871509 137.11822638 34.83211889 132.84398372 33.0625 128.125 C32.4025 128.125 31.7425 128.125 31.0625 128.125 C30.4025 133.735 29.7425 139.345 29.0625 145.125 C27.7425 145.125 26.4225 145.125 25.0625 145.125 C24.77647348 147.95972711 24.52817649 150.79077835 24.32421875 153.6328125 C24.15405393 155.90336995 23.93023505 158.17075843 23.64453125 160.4296875 C23.21199467 165.65773839 23.09629971 168.81699155 26.29296875 173.14453125 C29.0023369 176.00987989 29.0023369 176.00987989 31.875 178.4921875 C34.0625 181.125 34.0625 181.125 34.0625 188.125 C22.1825 188.125 10.3025 188.125 -1.9375 188.125 C-1.9375 176.245 -1.9375 164.365 -1.9375 152.125 C-3.2575 152.125 -4.5775 152.125 -5.9375 152.125 C-5.9375 164.005 -5.9375 175.885 -5.9375 188.125 C-17.8175 188.125 -29.6975 188.125 -41.9375 188.125 C-41.9375 181.125 -41.9375 181.125 -40.51171875 179.05078125 C-39.57779297 178.25220703 -39.57779297 178.25220703 -38.625 177.4375 C-33.63294619 173.20253289 -33.63294619 173.20253289 -31.5390625 167.20703125 C-31.58358685 160.99588506 -31.92321575 155.71560486 -34.28125 149.9296875 C-34.9375 148.125 -34.9375 148.125 -34.9375 145.125 C-35.5975 145.125 -36.2575 145.125 -36.9375 145.125 C-37.22625 143.949375 -37.515 142.77375 -37.8125 141.5625 C-38.77063721 137.7231073 -39.82955511 133.9236682 -40.9375 130.125 C-42.46889514 133.61173583 -43.87556796 136.85539325 -44.0625 140.6875 C-42.5503541 143.96381613 -40.28676392 145.97629169 -37.62890625 148.37890625 C-35.83336725 150.23249963 -34.8495913 151.71614348 -33.9375 154.125 C-34.38194444 160.56944444 -34.38194444 160.56944444 -36.9375 163.125 C-37.32460381 165.49230201 -37.32460381 165.49230201 -37.4375 168.125 C-37.71527778 172.90277778 -37.71527778 172.90277778 -39.9375 175.125 C-47.43495633 176.79110141 -56.36674943 177.62847392 -63.5 174.625 C-70.51202787 167.43317654 -71.22367437 159.08310305 -71.25878906 149.46850586 C-71.08187394 137.43947307 -67.36288858 126.23555006 -62.9375 115.125 C-63.5975 114.465 -64.2575 113.805 -64.9375 113.125 C-62.30078125 107.75390625 -62.30078125 107.75390625 -60.9375 106.125 C-60.15761719 105.98964844 -59.37773438 105.85429687 -58.57421875 105.71484375 C-54.89921398 104.89273157 -53.77145681 103.01779154 -51.4375 100.125 C-47.54708904 95.30308219 -47.54708904 95.30308219 -44.15625 94.3125 C-43.4240625 94.250625 -42.691875 94.18875 -41.9375 94.125 C-41.793125 93.155625 -41.64875 92.18625 -41.5 91.1875 C-40.9375 88.125 -40.9375 88.125 -39.9375 87.125 C-41.5153125 86.5371875 -41.5153125 86.5371875 -43.125 85.9375 C-48.20804227 83.72971396 -51.04389315 80.67391853 -53.8125 75.875 C-55.20769752 71.2243416 -55.39861912 67.77040588 -53.9375 63.125 C-51.87668117 59.57248382 -49.67981433 55.99615717 -45.9375 54.125 C-45.75352208 46.82720899 -46.47653666 39.85386837 -47.4375 32.625 C-49.95120679 13.71558403 -49.95120679 13.71558403 -47.8125 8.25 C-41.04658408 0.58196196 -27.93624195 0.88138152 -18.3984375 0.28125 C-12.26899024 0.02205185 -6.13398143 0.01716485 0 0 Z " fill="#B87657" transform="translate(99.9375,67.875)"/>
<path d="M0 0 C1.76065796 -0.00700928 1.76065796 -0.00700928 3.55688477 -0.01416016 C15.77222042 0.0085921 15.77222042 0.0085921 20.0625 1.125 C21.83984375 2.97265625 21.83984375 2.97265625 23 5.1875 C23.40089844 5.92097656 23.80179687 6.65445313 24.21484375 7.41015625 C24.49457031 7.97605469 24.77429688 8.54195312 25.0625 9.125 C27.64620878 7.92289549 29.2679706 6.93063592 31.375 4.9375 C34.0625 3.125 34.0625 3.125 37.5625 3.125 C41.32560298 4.20017228 43.30955015 5.37205015 46.0625 8.125 C50.39796547 21.13139642 44.40439293 40.86153894 42.57861328 54.24658203 C42.21886166 56.94999467 41.87725365 59.65081943 41.55810547 62.35888672 C41.4323539 63.39081398 41.4323539 63.39081398 41.30406189 64.44358826 C41.07147375 66.35878607 40.84690246 68.27495251 40.62280273 70.19116211 C40.0625 73.125 40.0625 73.125 38.0625 75.125 C35.0625 75.375 35.0625 75.375 32.0625 75.125 C30.0625 73.125 30.0625 73.125 30.015625 69.7734375 C30.10232812 68.34815991 30.20216803 66.92364339 30.3125 65.5 C30.3633374 64.75177979 30.4141748 64.00355957 30.46655273 63.23266602 C31.03167782 55.49361451 31.99729043 47.80898745 33.0625 40.125 C32.216875 40.40214844 31.37125 40.67929688 30.5 40.96484375 C29.365625 41.32707031 28.23125 41.68929687 27.0625 42.0625 C25.94875 42.42214844 24.835 42.78179687 23.6875 43.15234375 C15.14546656 45.44433333 6.48532204 45.34241473 -2.29833984 45.36523438 C-4.53651863 45.37488794 -6.77375647 45.40595858 -9.01171875 45.4375 C-18.40700034 45.5044479 -26.80409103 44.53704945 -35.9375 42.125 C-35.73253906 43.18976563 -35.52757813 44.25453125 -35.31640625 45.3515625 C-31.67885796 64.73760798 -31.67885796 64.73760798 -31.9375 73.125 C-33.9375 75.125 -33.9375 75.125 -37.5625 75.25 C-38.67625 75.20875 -39.79 75.1675 -40.9375 75.125 C-42.30855816 69.45795962 -43.2455571 64.00564314 -43.69140625 58.19140625 C-43.82646254 56.06515553 -43.82646254 56.06515553 -44.9375 54.125 C-45.30335712 51.68551899 -45.62420442 49.25764327 -45.91015625 46.80859375 C-45.99752548 46.07810318 -46.08489471 45.34761261 -46.1749115 44.59498596 C-46.35916084 43.04426283 -46.54144372 41.493305 -46.72192383 39.94213867 C-46.99616101 37.59535216 -47.27988147 35.24984971 -47.56445312 32.90429688 C-49.87295195 13.51559944 -49.87295195 13.51559944 -47.8125 8.25 C-41.04658408 0.58196196 -27.93624195 0.88138152 -18.3984375 0.28125 C-12.26899024 0.02205185 -6.13398143 0.01716485 0 0 Z " fill="#3D3E41" transform="translate(99.9375,67.875)"/>
<path d="M0 0 C0.495 1.98 0.495 1.98 1 4 C0.02160156 4.556875 -0.95679687 5.11375 -1.96484375 5.6875 C-5.38665117 7.6609649 -8.75662906 9.7071092 -12.1015625 11.80810547 C-13.72438478 12.82696071 -15.36088565 13.82397373 -17 14.81640625 C-19.67795742 16.73475075 -21.31270669 18.15964873 -23 21 C-23.8313198 26.41771678 -23.58598592 31.55636686 -23 37 C-22.91202148 37.82773926 -22.82404297 38.65547852 -22.73339844 39.50830078 C-22.49703933 41.67323158 -22.25256437 43.83690839 -22 46 C-21.44014404 46.05534912 -20.88028809 46.11069824 -20.3034668 46.16772461 C-17.76444195 46.4207582 -15.225981 46.6790698 -12.6875 46.9375 C-11.80642578 47.02451172 -10.92535156 47.11152344 -10.01757812 47.20117188 C-9.17001953 47.28818359 -8.32246094 47.37519531 -7.44921875 47.46484375 C-6.27879028 47.58267212 -6.27879028 47.58267212 -5.0847168 47.70288086 C-3 48 -3 48 0 49 C-0.0721875 49.71542969 -0.144375 50.43085938 -0.21875 51.16796875 C-0.41539724 53.27919536 -0.58650421 55.39288657 -0.73828125 57.5078125 C-0.90844607 59.77836995 -1.13226495 62.04575843 -1.41796875 64.3046875 C-1.85050533 69.53273839 -1.96620029 72.69199155 1.23046875 77.01953125 C3.9398369 79.88487989 3.9398369 79.88487989 6.8125 82.3671875 C9 85 9 85 9 92 C-2.88 92 -14.76 92 -27 92 C-27 80.12 -27 68.24 -27 56 C-28.32 56 -29.64 56 -31 56 C-31 67.88 -31 79.76 -31 92 C-42.88 92 -54.76 92 -67 92 C-67 85 -67 85 -65.57421875 82.92578125 C-64.95160156 82.39339844 -64.32898438 81.86101562 -63.6875 81.3125 C-58.69544619 77.07753289 -58.69544619 77.07753289 -56.6015625 71.08203125 C-56.64608685 64.87088506 -56.98571575 59.59060486 -59.34375 53.8046875 C-60 52 -60 52 -60 49 C-57.63980407 47.81990204 -55.83904283 47.70232315 -53.2109375 47.46484375 C-51.79941406 47.33432617 -51.79941406 47.33432617 -50.359375 47.20117188 C-48.88210937 47.0706543 -48.88210937 47.0706543 -47.375 46.9375 C-46.38242188 46.84662109 -45.38984375 46.75574219 -44.3671875 46.66210938 C-41.91176132 46.43781564 -39.45605611 46.21726893 -37 46 C-36.75335137 43.83368634 -36.51109388 41.66704902 -36.27539062 39.49951172 C-36.10702191 37.97135662 -35.93061735 36.44402589 -35.74023438 34.91845703 C-35.03220194 28.78474129 -34.45607944 23.28619006 -38.03125 17.9921875 C-44.19542351 12.19998998 -51.54492515 7.92920175 -59 4 C-58.67 3.01 -58.34 2.02 -58 1 C-48.80303993 -0.41089728 -43.08640229 1.96885048 -35.609375 6.97436523 C-31.60339295 9.60965008 -31.60339295 9.60965008 -26.91015625 9.53125 C-23.70456883 7.84455165 -20.78940094 5.93849158 -17.8125 3.875 C-11.87213297 -0.04903871 -7.04287141 -1.0162059 0 0 Z " fill="#6669C0" transform="translate(125,164)"/>
<path d="M0 0 C6.72524587 2.69009835 10.30725856 6.21546179 14.82421875 11.85546875 C17.31774165 14.31317803 18.65694591 14.39825026 22 15 C23.8125 18.5625 23.8125 18.5625 25 22 C24.34 22.66 23.68 23.32 23 24 C23.40992188 25.03898437 23.81984375 26.07796875 24.2421875 27.1484375 C30.33732287 42.80604591 35.23364872 60.63624924 28.21484375 76.921875 C26.1397396 80.47157085 23.58989348 82.20505326 20 84 C13.34869562 84.3162858 6.52515238 84.45003386 0 83 C-2.88212403 80.11787597 -2.37608879 77.45227459 -2.55859375 73.5078125 C-3.07165573 70.59289402 -4.20207816 69.29866931 -6 67 C-6.19363942 61.96537498 -4.76166213 59.36753827 -1.5625 55.6875 C0.25738106 53.75363892 2.12231561 51.87768439 4 50 C3.66621509 44.99322638 2.76961889 40.71898372 1 36 C0.34 36 -0.32 36 -1 36 C-1.66 41.61 -2.32 47.22 -3 53 C-20.4715262 52.11161731 -20.4715262 52.11161731 -29 50 C-31.33611014 41.82361452 -32.63047584 33.39737298 -31 25 C-25.72986162 17.21111986 -16.33951927 12.04259201 -8 8 C-7.34 8 -6.68 8 -6 8 C-6.33 6.68 -6.66 5.36 -7 4 C-6.21625 3.71125 -5.4325 3.4225 -4.625 3.125 C-1.90328368 2.15087746 -1.90328368 2.15087746 0 0 Z " fill="#E49B5D" transform="translate(132,160)"/>
<path d="M0 0 C1.32 0.33 2.64 0.66 4 1 C4 3.31 4 5.62 4 8 C5.32 8.33 6.64 8.66 8 9 C7.67 9.66 7.34 10.32 7 11 C7.73863281 11.27714844 8.47726563 11.55429688 9.23828125 11.83984375 C13.58519217 13.66591524 17.19099676 16.2477265 21 19 C22.38832031 19.90685547 22.38832031 19.90685547 23.8046875 20.83203125 C28.22312495 24.10517967 30.68518821 26.27996686 31.69921875 31.8203125 C31.99678844 39.00437387 30.97152869 46.09964959 29 53 C20.69433011 55.01290353 12.50825713 55.56891497 4 56 C3.71125 54.824375 3.4225 53.64875 3.125 52.4375 C2.16686279 48.5981073 1.10794489 44.7986682 0 41 C-1.53139514 44.48673583 -2.93806796 47.73039325 -3.125 51.5625 C-1.6128541 54.83881613 0.65073608 56.85129169 3.30859375 59.25390625 C5.10413275 61.10749963 6.0879087 62.59114348 7 65 C6.55555556 71.44444444 6.55555556 71.44444444 4 74 C3.61289619 76.36730201 3.61289619 76.36730201 3.5 79 C3.22222222 83.77777778 3.22222222 83.77777778 1 86 C-6.49745633 87.66610141 -15.42924943 88.50347392 -22.5625 85.5 C-29.57452787 78.30817654 -30.28617437 69.95810305 -30.32128906 60.34350586 C-30.14437394 48.31447307 -26.42538858 37.11055006 -22 26 C-22.66 25.34 -23.32 24.68 -24 24 C-21.36328125 18.62890625 -21.36328125 18.62890625 -20 17 C-19.22011719 16.86464844 -18.44023438 16.72929687 -17.63671875 16.58984375 C-13.96171398 15.76773157 -12.83395681 13.89279154 -10.5 11 C-6.60958904 6.17808219 -6.60958904 6.17808219 -3.21875 5.1875 C-2.4865625 5.125625 -1.754375 5.06375 -1 5 C-0.67 3.35 -0.34 1.7 0 0 Z " fill="#B67455" transform="translate(59,157)"/>
<path d="M0 0 C1.1755401 2.48568403 2.15129107 4.85603173 3.0625 7.4375 C3.32562988 8.17178223 3.58875977 8.90606445 3.85986328 9.66259766 C8.60530143 23.20096582 11.08120933 39.31023672 5.21484375 52.921875 C3.1397396 56.47157085 0.58989348 58.20505326 -3 60 C-9.65130438 60.3162858 -16.47484762 60.45003386 -23 59 C-25.88212403 56.11787597 -25.37608879 53.45227459 -25.55859375 49.5078125 C-26.07165573 46.59289402 -27.20207816 45.29866931 -29 43 C-29.19363942 37.96537498 -27.76166213 35.36753827 -24.5625 31.6875 C-22.74261894 29.75363892 -20.87768439 27.87768439 -19 26 C-19.29133239 20.27046301 -20.66706437 16.20037133 -23 11 C-19.73925221 8.96253343 -16.46493707 6.94799087 -13.1875 4.9375 C-12.25873047 4.35677734 -11.32996094 3.77605469 -10.37304688 3.17773438 C-9.48037109 2.63310547 -8.58769531 2.08847656 -7.66796875 1.52734375 C-6.84578857 1.01937256 -6.0236084 0.51140137 -5.17651367 -0.01196289 C-3 -1 -3 -1 0 0 Z " fill="#B67455" transform="translate(155,184)"/>
<path d="M0 0 C1.32 0.33 2.64 0.66 4 1 C4 3.31 4 5.62 4 8 C5.32 8.33 6.64 8.66 8 9 C7.67 9.66 7.34 10.32 7 11 C7.73863281 11.27714844 8.47726563 11.55429688 9.23828125 11.83984375 C13.58519217 13.66591524 17.19099676 16.2477265 21 19 C22.38832031 19.90685547 22.38832031 19.90685547 23.8046875 20.83203125 C28.22312495 24.10517967 30.68518821 26.27996686 31.69921875 31.8203125 C31.99678844 39.00437387 30.97152869 46.09964959 29 53 C20.69433011 55.01290353 12.50825713 55.56891497 4 56 C3.71125 54.88625 3.4225 53.7725 3.125 52.625 C2.93139893 51.89361816 2.73779785 51.16223633 2.53833008 50.40869141 C2 48 2 48 1.7800293 45.57177734 C1.36467026 41.72356472 0.98555456 38.95633953 -1.86132812 36.19384766 C-4.28243389 34.61808578 -6.72712985 33.28787955 -9.3125 32 C-10.16779297 31.53722656 -11.02308594 31.07445312 -11.90429688 30.59765625 C-15.8602926 28.48329758 -19.81666458 26.62370059 -24 25 C-23.46085342 23.67773548 -22.89266121 22.36728944 -22.3125 21.0625 C-21.99925781 20.33160156 -21.68601563 19.60070312 -21.36328125 18.84765625 C-20 17 -20 17 -17.63671875 16.55859375 C-13.94633985 15.77678015 -12.83611584 13.89546752 -10.5 11 C-6.60958904 6.17808219 -6.60958904 6.17808219 -3.21875 5.1875 C-2.4865625 5.125625 -1.754375 5.06375 -1 5 C-0.67 3.35 -0.34 1.7 0 0 Z " fill="#E69C5E" transform="translate(59,157)"/>
<path d="M0 0 C0.495 1.98 0.495 1.98 1 4 C0.02160156 4.556875 -0.95679688 5.11375 -1.96484375 5.6875 C-5.38665117 7.6609649 -8.75662906 9.7071092 -12.1015625 11.80810547 C-13.72438478 12.82696071 -15.36088565 13.82397373 -17 14.81640625 C-19.67985651 16.73611115 -21.31333554 18.15625703 -23 21 C-23.83126456 26.46825057 -23.55091813 31.51330513 -23 37 C-22.91492188 37.928125 -22.82984375 38.85625 -22.7421875 39.8125 C-22.54996907 41.5486665 -22.287168 43.27699199 -22 45 C-26.95 45 -31.9 45 -37 45 C-36.835 44.01 -36.67 43.02 -36.5 42 C-36.32218708 40.33448563 -36.15792645 38.66751755 -36 37 C-35.85046875 35.76507813 -35.7009375 34.53015625 -35.546875 33.2578125 C-35.05393792 27.63819515 -34.74680254 22.85810624 -38.03125 17.98828125 C-44.19963391 12.20099002 -51.54493653 7.92919576 -59 4 C-58.67 3.01 -58.34 2.02 -58 1 C-48.80303993 -0.41089728 -43.08640229 1.96885048 -35.609375 6.97436523 C-31.60339295 9.60965008 -31.60339295 9.60965008 -26.91015625 9.53125 C-23.70456883 7.84455165 -20.78940094 5.93849158 -17.8125 3.875 C-11.87213297 -0.04903871 -7.04287141 -1.0162059 0 0 Z " fill="#A2B2BF" transform="translate(125,164)"/>
<path d="M0 0 C1.76065796 -0.00700928 1.76065796 -0.00700928 3.55688477 -0.01416016 C15.94588708 0.00891557 15.94588708 0.00891557 20.0625 1.125 C21.83984375 3.19140625 21.83984375 3.19140625 23 5.6875 C23.40089844 6.51378906 23.80179687 7.34007813 24.21484375 8.19140625 C24.49457031 8.82949219 24.77429688 9.46757813 25.0625 10.125 C22.09665113 11.11361629 20.25853365 11.22836786 17.171875 11.1875 C16.16705078 11.17887939 15.16222656 11.17025879 14.12695312 11.16137695 C12.48629883 11.14337036 12.48629883 11.14337036 10.8125 11.125 C1.06739269 11.0828044 -8.6711481 11.13393591 -18.41296387 11.38745117 C-20.39261082 11.43639029 -22.37258908 11.47128804 -24.35253906 11.50585938 C-37.03531993 11.69610824 -37.03531993 11.69610824 -47.5625 17.8125 C-48.01625 18.575625 -48.47 19.33875 -48.9375 20.125 C-49.52205882 10.1875 -49.52205882 10.1875 -45.9375 6.125 C-34.0849448 -2.08061514 -13.79619026 0.03860617 0 0 Z " fill="#484D53" transform="translate(99.9375,67.875)"/>
<path d="M0 0 C24.36634308 -1.76593555 24.36634308 -1.76593555 29.953125 2.203125 C35.17450033 7.79091264 36 10.07389672 36 18 C24.12 18 12.24 18 0 18 C0 12.06 0 6.12 0 0 Z " fill="#EEEDED" transform="translate(98,238)"/>
<path d="M0 0 C1.07354736 0.02094727 2.14709473 0.04189453 3.25317383 0.06347656 C4.41655273 0.07636719 5.57993164 0.08925781 6.77856445 0.10253906 C7.99350586 0.13605469 9.20844727 0.16957031 10.46020508 0.20410156 C11.68674805 0.22214844 12.91329102 0.24019531 14.17700195 0.25878906 C17.20923466 0.30598335 20.241067 0.3777272 23.27270508 0.45410156 C23.27270508 6.39410156 23.27270508 12.33410156 23.27270508 18.45410156 C11.39270508 18.45410156 -0.48729492 18.45410156 -12.72729492 18.45410156 C-12.72729492 11.45410156 -12.72729492 11.45410156 -11.30151367 9.37988281 C-10.67889648 8.8475 -10.0562793 8.31511719 -9.41479492 7.76660156 C-6.63563965 5.34042457 -6.63563965 5.34042457 -4.48706055 2.3737793 C-2.72729492 0.45410156 -2.72729492 0.45410156 0 0 Z " fill="#EEEDED" transform="translate(70.727294921875,237.5458984375)"/>
<path d="M0 0 C7.78616751 3.33692893 7.78616751 3.33692893 11.625 8.125 C14.73543763 11.99901077 16.18008061 13.13901273 21 14 C22.8125 17.5625 22.8125 17.5625 24 21 C23.29617187 21.3403125 22.59234375 21.680625 21.8671875 22.03125 C13.67054947 26.05466501 5.97023336 30.44558094 -2 35 C-1.34 23.45 -0.68 11.9 0 0 Z " fill="#E4EEF6" transform="translate(133,161)"/>
<path d="M0 0 C0.66 10.89 1.32 21.78 2 33 C-11.79310345 26.10344828 -11.79310345 26.10344828 -16.125 23.75 C-17.45917969 23.03070313 -17.45917969 23.03070313 -18.8203125 22.296875 C-21 21 -21 21 -23 19 C-20.36328125 13.62890625 -20.36328125 13.62890625 -19 12 C-18.22398438 11.86464844 -17.44796875 11.72929687 -16.6484375 11.58984375 C-12.95033813 10.76622575 -11.71317473 8.8693973 -9.3125 6 C-4.24147727 0 -4.24147727 0 0 0 Z " fill="#E5EFF8" transform="translate(58,162)"/>
<path d="M0 0 C2.74676963 1.02022872 5.17374222 2.10505344 7.6875 3.625 C9.83811106 5.17035846 9.83811106 5.17035846 12 5 C12.495 4.175 12.99 3.35 13.5 2.5 C13.995 1.675 14.49 0.85 15 0 C15.66 0 16.32 0 17 0 C18.625 2.5 18.625 2.5 20 5 C22.31 4.34 24.62 3.68 27 3 C27 2.34 27 1.68 27 1 C27.99 1.33 28.98 1.66 30 2 C29.4225 2.3196875 28.845 2.639375 28.25 2.96875 C25.56146825 4.79844522 23.85615854 6.30714855 22 9 C21.17917006 14.42879943 21.50730262 19.54711332 22 25 C22.08378906 25.92941406 22.16757813 26.85882813 22.25390625 27.81640625 C22.44940787 29.55109521 22.71301348 31.27808089 23 33 C18.05 33 13.1 33 8 33 C8.165 32.01 8.33 31.02 8.5 30 C8.68431792 28.33519297 8.84710128 26.66798607 9 25 C9.18949219 23.1128125 9.18949219 23.1128125 9.3828125 21.1875 C10.05163418 13.29490926 10.05163418 13.29490926 6.9921875 6.22265625 C4.74903056 4.27835251 2.48203539 2.62021754 0 1 C0 0.67 0 0.34 0 0 Z " fill="#E5F0FA" transform="translate(80,176)"/>
<path d="M0 0 C1.375 2.125 1.375 2.125 0.9609375 4.7578125 C0.76757812 5.53898438 0.57421875 6.32015625 0.375 7.125 C-1.58325873 7.15194851 -3.54162226 7.17137218 -5.5 7.1875 C-7.13582031 7.20490234 -7.13582031 7.20490234 -8.8046875 7.22265625 C-11.625 7.125 -11.625 7.125 -13.625 6.125 C-15.73841394 6.35982377 -17.85147108 6.59920968 -19.9609375 6.8671875 C-24.51003722 7.30742296 -29.05970489 7.20179936 -33.625 7.125 C-33.955 5.475 -34.285 3.825 -34.625 2.125 C-33.54956217 1.13716806 -32.46426783 0.16006057 -31.375 -0.8125 C-30.77171875 -1.35777344 -30.1684375 -1.90304688 -29.546875 -2.46484375 C-21.58102657 -8.30970408 -7.50829857 -5.36307041 0 0 Z " fill="#424041" transform="translate(115.625,146.875)"/>
<path d="M0 0 C9.24 0 18.48 0 28 0 C27.67 3.96 27.34 7.92 27 12 C18.1521497 11.58285569 9.65541325 11.02861248 1 9 C0.67 6.03 0.34 3.06 0 0 Z " fill="#D28849" transform="translate(102,201)"/>
<path d="M0 0 C0.33 0.66 0.66 1.32 1 2 C2.02738281 1.9278125 3.05476563 1.855625 4.11328125 1.78125 C12.08786254 1.24042068 20.00182208 0.84749237 28 1 C28.125 7.75 28.125 7.75 27 10 C19.14416841 12.67098274 10.20639294 12.58420942 2 13 C-0.28571429 4.57142857 -0.28571429 4.57142857 0 0 Z " fill="#D28849" transform="translate(61,200)"/>
<path d="M0 0 C7.92 0 15.84 0 24 0 C24 3.3 24 6.6 24 10 C15.75 10 7.5 10 -1 10 C-0.67 6.7 -0.34 3.4 0 0 Z " fill="#4C4EA7" transform="translate(99,228)"/>
<path d="M0 0 C7.92 0 15.84 0 24 0 C24.33 3.3 24.66 6.6 25 10 C16.75 10 8.5 10 0 10 C0 6.7 0 3.4 0 0 Z " fill="#4C4EA7" transform="translate(69,228)"/>
<path d="M0 0 C1.6875 3.5625 1.6875 3.5625 3 7 C2.29617187 7.3403125 1.59234375 7.680625 0.8671875 8.03125 C-7.28768806 12.03416542 -15.15423264 16.42717109 -23 21 C-23.17350868 17.48818437 -23.01505286 14.38012604 -22 11 C-19.39056156 8.28381181 -16.30701421 6.74961258 -13 5 C-11.20660577 3.85687245 -9.41490282 2.71108668 -7.625 1.5625 C-3.37931034 -1.12643678 -3.37931034 -1.12643678 0 0 Z " fill="#BBCDDC" transform="translate(154,175)"/>
<path d="M0 0 C11.88 0 23.76 0 36 0 C36 1.98 36 3.96 36 6 C24.12 6 12.24 6 0 6 C0 4.02 0 2.04 0 0 Z " fill="#C88955" transform="translate(98,250)"/>
<path d="M0 0 C11.88 0 23.76 0 36 0 C36 1.98 36 3.96 36 6 C24.12 6 12.24 6 0 6 C0 4.02 0 2.04 0 0 Z " fill="#C88955" transform="translate(58,250)"/>
<path d="M0 0 C3.58096955 1.33646899 6.74476164 2.93858019 10 4.9375 C10.825 5.44152344 11.65 5.94554687 12.5 6.46484375 C13.7375 7.22474609 13.7375 7.22474609 15 8 C15.91136719 8.45117188 16.82273437 8.90234375 17.76171875 9.3671875 C20 11 20 11 20.70703125 13.48046875 C20.75923828 14.82044922 20.75923828 14.82044922 20.8125 16.1875 C20.86019531 17.08855469 20.90789063 17.98960937 20.95703125 18.91796875 C20.97121094 19.60503906 20.98539063 20.29210937 21 21 C-0.65979381 10.34020619 -0.65979381 10.34020619 -4 7 C-2.68 4.69 -1.36 2.38 0 0 Z " fill="#BBCDDC" transform="translate(39,174)"/>
<path d="M0 0 C1.0725 -0.01675781 2.145 -0.03351563 3.25 -0.05078125 C4.1575 0.06910156 5.065 0.18898438 6 0.3125 C8.50031654 4.06297482 8.53603554 5.87106266 8 10.3125 C5.55401113 13.69371991 4.10703441 15.08186783 0 15.9375 C-4.14182881 15.074619 -5.56226471 13.75400865 -8 10.3125 C-8.53966145 7.40277896 -8.34537016 5.32215425 -8 2.3125 C-5.29921247 -0.38828753 -3.75964828 0.01355642 0 0 Z " fill="#F3F0EF" transform="translate(82,125.6875)"/>
<path d="M0 0 C1.0725 -0.01675781 2.145 -0.03351563 3.25 -0.05078125 C4.1575 0.06910156 5.065 0.18898438 6 0.3125 C8.36086122 3.85379184 8.57269578 5.14000218 8 9.3125 C5.65945491 13.02983632 4.35321372 15.00238852 0 16 C-4.11224846 15.05760973 -5.56584727 13.74895091 -8 10.3125 C-8.53966145 7.40277896 -8.34537016 5.32215425 -8 2.3125 C-5.29921247 -0.38828753 -3.75964828 0.01355642 0 0 Z " fill="#F2F0F0" transform="translate(116,125.6875)"/>
<path d="M0 0 C10.56 0 21.12 0 32 0 C28.77900651 3.22099349 26.46971221 5.16725209 22.625 7.375 C21.70976563 7.91898438 20.79453125 8.46296875 19.8515625 9.0234375 C16.08815496 10.3122757 14.57548109 9.64416553 11 8 C9.00624562 6.87298218 7.04607414 5.68437603 5.125 4.4375 C4.15820312 3.81746094 3.19140625 3.19742188 2.1953125 2.55859375 C1.47085938 2.04425781 0.74640625 1.52992188 0 1 C0 0.67 0 0.34 0 0 Z " fill="#814C34" transform="translate(80,165)"/>
<path d="M0 0 C3.76310298 1.07517228 5.74705015 2.24705015 8.5 5 C9.6577506 8.47325181 9.56866652 11.36067448 9.5 15 C8.51 15.495 8.51 15.495 7.5 16 C7.149375 15.21625 6.79875 14.4325 6.4375 13.625 C3.91800135 10.2114857 1.50941487 9.63618022 -2.5 9 C-5.82848201 8.58272674 -9.15539274 8.2557245 -12.5 8 C-11.19112542 6.64264858 -9.85147138 5.31494512 -8.5 4 C-7.736875 3.236875 -6.97375 2.47375 -6.1875 1.6875 C-3.5 0 -3.5 0 0 0 Z " fill="#4D5056" transform="translate(137.5,71)"/>
<path d="M0 0 C2.74676963 1.02022872 5.17374222 2.10505344 7.6875 3.625 C9.83811106 5.17035846 9.83811106 5.17035846 12 5 C12.495 4.175 12.99 3.35 13.5 2.5 C13.995 1.675 14.49 0.85 15 0 C15.66 0 16.32 0 17 0 C18.625 2.5 18.625 2.5 20 5 C22.31 4.34 24.62 3.68 27 3 C27 2.34 27 1.68 27 1 C27.99 1.33 28.98 1.66 30 2 C21.95822454 10 21.95822454 10 15 10 C13.68 9.67 12.36 9.34 11 9 C11 12.3 11 15.6 11 19 C10.67 19 10.34 19 10 19 C10.03222656 18.3709375 10.06445312 17.741875 10.09765625 17.09375 C10.03849873 12.7292398 9.84609458 9.9849818 6.9296875 6.58984375 C4.67467232 4.64233064 2.35554529 2.82257343 0 1 C0 0.67 0 0.34 0 0 Z " fill="#CDD6DD" transform="translate(80,176)"/>
<path d="M0 0 C1.51400391 0.01740234 1.51400391 0.01740234 3.05859375 0.03515625 C4.07050781 0.04417969 5.08242187 0.05320313 6.125 0.0625 C7.29869141 0.07990234 7.29869141 0.07990234 8.49609375 0.09765625 C10.49609375 5.72265625 10.49609375 5.72265625 10.49609375 9.09765625 C5.54609375 9.09765625 0.59609375 9.09765625 -4.50390625 9.09765625 C-3.50825862 0.13682756 -3.50825862 0.13682756 0 0 Z " fill="#BED1E0" transform="translate(92.50390625,199.90234375)"/>
<path d="M0 0 C6.93 0 13.86 0 21 0 C21 1.65 21 3.3 21 5 C10.605 5.495 10.605 5.495 0 6 C0 4.02 0 2.04 0 0 Z " fill="#3D3E41" transform="translate(106,120)"/>
<path d="M0 0 C6.93 0 13.86 0 21 0 C21 1.98 21 3.96 21 6 C14.07 5.67 7.14 5.34 0 5 C0 3.35 0 1.7 0 0 Z " fill="#3D3E41" transform="translate(72,120)"/>
<path d="M0 0 C0.7940625 -0.01675781 1.588125 -0.03351563 2.40625 -0.05078125 C3.0971875 0.06910156 3.788125 0.18898437 4.5 0.3125 C6.5 3.3125 6.5 3.3125 6.25 5.375 C5.5 7.3125 5.5 7.3125 3.5 9.3125 C-3.57368421 9.87390351 -3.57368421 9.87390351 -6.5625 8.0625 C-7.5 6.3125 -7.5 6.3125 -7.3125 4.25 C-5.68979517 0.38047309 -3.92126881 0.01909709 0 0 Z " fill="#955436" transform="translate(99.5,133.6875)"/>
<path d="M0 0 C4.24894725 4.24894725 4.89907061 5.24702478 5 11 C3.28445216 15.19356138 1.03563842 17.03391974 -3 19 C-3.66 19 -4.32 19 -5 19 C-5 17.68 -5 16.36 -5 15 C-5.99 14.67 -6.98 14.34 -8 14 C-6.02 13.34 -4.04 12.68 -2 12 C-1.34 8.04 -0.68 4.08 0 0 Z " fill="#9C5B3E" transform="translate(141,129)"/>
<path d="M0 0 C0.33 0 0.66 0 1 0 C1.66 6.27 2.32 12.54 3 19 C4.98 19 6.96 19 9 19 C7.68 19.33 6.36 19.66 5 20 C5 20.99 5 21.98 5 23 C1.62765029 22.71897086 0.21360261 22.19628348 -2.3125 19.875 C-4.43489558 16.25906679 -4.52605872 14.13331855 -4 10 C-3.04701223 8.63266972 -2.04625409 7.29735507 -1 6 C-0.27954633 2.84881675 -0.27954633 2.84881675 0 0 Z " fill="#9A5B3E" transform="translate(56,124)"/>
<path d="M0 0 C2.5625 0.1875 2.5625 0.1875 4.5625 2.1875 C4.75 5.75 4.75 5.75 4.5625 9.1875 C3.5625 10.1875 3.5625 10.1875 0.625 10.375 C-2.4375 10.1875 -2.4375 10.1875 -4.4375 8.1875 C-3.74456522 0.28804348 -3.74456522 0.28804348 0 0 Z " fill="#404245" transform="translate(83.4375,126.8125)"/>
<path d="M0 0 C2.5625 0.1875 2.5625 0.1875 4.5625 2.1875 C4.8125 5.1875 4.8125 5.1875 4.5625 8.1875 C2.5625 10.1875 2.5625 10.1875 0.0625 10.4375 C-2.4375 10.1875 -2.4375 10.1875 -4.4375 8.1875 C-3.74456522 0.28804348 -3.74456522 0.28804348 0 0 Z " fill="#3F4144" transform="translate(113.4375,126.8125)"/>
<path d="M0 0 C0.66 0.33 1.32 0.66 2 1 C1.54625 1.94875 1.0925 2.8975 0.625 3.875 C-1.34585006 8.42383401 -2.16796155 13.13502224 -3 18 C-5.0625 16.4375 -5.0625 16.4375 -7 14 C-7.18068011 9.21197716 -5.9577311 6.60642913 -2.9375 3.0625 C-1.97194223 2.02878522 -0.99716291 1.00326177 0 0 Z " fill="#A36649" transform="translate(133,213)"/>
<path d="M0 0 C3.82919612 1.50432705 5.78089547 3.55656194 8 7 C9 10.5625 9 10.5625 9 14 C7 16.21484375 7 16.21484375 5 18 C4.70996094 16.67935547 4.70996094 16.67935547 4.4140625 15.33203125 C4.15367188 14.17058594 3.89328125 13.00914062 3.625 11.8125 C3.36976562 10.66394531 3.11453125 9.51539063 2.8515625 8.33203125 C2.10527548 5.41192652 1.19568212 2.76046611 0 0 Z " fill="#A46548" transform="translate(57,213)"/>
<path d="M0 0 C0.33 0.66 0.66 1.32 1 2 C1.99 2 2.98 2 4 2 C4.34179688 4.97851562 4.34179688 4.97851562 4.68359375 7.95703125 C4.97170735 10.19396393 4.97170735 10.19396393 6 13 C4.68 13 3.36 13 2 13 C-0.28571429 4.57142857 -0.28571429 4.57142857 0 0 Z " fill="#CB8953" transform="translate(61,200)"/>
<path d="M0 0 C0.66 0 1.32 0 2 0 C1.67 3.3 1.34 6.6 1 10 C-1.31 10 -3.62 10 -6 10 C-5.38125 9.46375 -4.7625 8.9275 -4.125 8.375 C-1.7217098 5.68896977 -0.93977847 3.44585438 0 0 Z " fill="#C48859" transform="translate(128,203)"/>
<path d="M0 0 C3.3 0 6.6 0 10 0 C10 0.99 10 1.98 10 3 C6.7 3 3.4 3 0 3 C0 2.01 0 1.02 0 0 Z " fill="#D9E5EF" transform="translate(91,185)"/>
<path d="M0 0 C0.66 0.33 1.32 0.66 2 1 C0.8803014 2.00593243 -0.2459412 3.0045849 -1.375 4 C-2.00148438 4.556875 -2.62796875 5.11375 -3.2734375 5.6875 C-5 7 -5 7 -7 7 C-6.875 5.1875 -6.875 5.1875 -6 3 C-3.0625 1.1875 -3.0625 1.1875 0 0 Z " fill="#5C5C60" transform="translate(60,71)"/>
<path d="M0 0 C0.99 0.33 1.98 0.66 3 1 C-0.96 4.465 -0.96 4.465 -5 8 C-5.33 7.34 -5.66 6.68 -6 6 C-4.71034824 4.62437146 -3.37310707 3.29233607 -2 2 C-1.34 2 -0.68 2 0 2 C0 1.34 0 0.68 0 0 Z " fill="#C7CFD6" transform="translate(107,177)"/>
</svg>
