<?xml version="1.0" encoding="UTF-8"?>
<svg version="1.1" xmlns="http://www.w3.org/2000/svg" width="192" height="256">
<path d="M0 0 C0.51691406 0.54527344 1.03382812 1.09054688 1.56640625 1.65234375 C3.04833923 3.28799973 3.04833923 3.28799973 6 3.5625 C9 5 9 5 10.0546875 7.2421875 C11.17038354 10.90804592 12 14.1559478 12 18 C13.98 18 15.96 18 18 18 C17.85888117 20.75031587 17.71228835 23.50015418 17.5625 26.25 C17.52318359 27.02730469 17.48386719 27.80460937 17.44335938 28.60546875 C17.40146484 29.35957031 17.35957031 30.11367187 17.31640625 30.890625 C17.27974854 31.58188477 17.24309082 32.27314453 17.20532227 32.98535156 C16.99324476 35.06628329 16.55491323 36.98572422 16 39 C16.721875 39.0825 17.44375 39.165 18.1875 39.25 C22.73699351 40.46319827 25.16741425 42.79418615 27.8125 46.625 C29.80998755 52.30206987 30.206035 58.25865124 27.5625 63.8125 C24.82570867 68.0122307 20.4307137 69.94558788 16 72 C16.474375 72.598125 16.94875 73.19625 17.4375 73.8125 C19.05413829 77.11044211 19.15533743 78.72528691 19.25 82.3125 C19.66363819 88.70665698 22.33368091 91.83575322 27 96 C28.64552129 97.35934368 30.3045427 98.70347383 32 100 C33.7218774 103.4437548 33.6841409 107.32775863 34.0625 111.125 C34.154104 112.01775635 34.24570801 112.9105127 34.34008789 113.83032227 C35.00785919 120.83786811 35.07531484 127.68708651 34.77734375 134.71484375 C35.02616596 138.38606272 36.04189834 139.95741126 38 143 C38.86434076 147.91350468 38.54522901 151.90954199 36.3125 156.375 C30.6128064 162.84492246 30.6128064 162.84492246 25.75 163.3125 C23 163 23 163 22 162 C21.85884839 159.32941149 21.95752893 156.67567762 22 154 C23.98 153.34 25.96 152.68 28 152 C28.33 150.35 28.66 148.7 29 147 C28.34 147.33 27.68 147.66 27 148 C20.14148681 148.68585132 20.14148681 148.68585132 17.140625 146.8828125 C15.69385855 145.66339507 14.33792975 144.33792975 13 143 C11.74562338 144.03849381 11.74562338 144.03849381 11.8125 146.3125 C12.0054363 149.0779203 12.60174845 150.64045051 14 153 C12.68 154.98 11.36 156.96 10 159 C8.25 158.875 8.25 158.875 6 158 C2.30740955 153.67439404 0.73824982 149.62762894 1 144 C2.69940949 138.10204941 5.12423394 135.41303624 10 132 C10.9075 131.649375 11.815 131.29875 12.75 130.9375 C15.10455624 130.20223114 15.10455624 130.20223114 16.17578125 128.21875 C17.62382974 124.32068582 16.47109734 120.77990288 15 117 C13.35353315 115.31337542 11.68816933 113.64488294 10 112 C9.3125 108.5 9.3125 108.5 9 105 C8.36971413 103.31923769 7.70881051 101.64918461 7 100 C2.75721229 112.48121044 1.85831218 124.97615698 1.17578125 138.07519531 C1.02816603 140.53134858 0.80787805 142.95449903 0.53125 145.3984375 C0.11006906 150.69829767 0.01035834 153.65740921 3.234375 158.03125 C5.00623528 159.98974024 6.81327177 161.65024234 8.8125 163.40234375 C11 166 11 166 11 173 C-0.88 173 -12.76 173 -25 173 C-25 161.12 -25 149.24 -25 137 C-26.32 137 -27.64 137 -29 137 C-29 148.88 -29 160.76 -29 173 C-40.88 173 -52.76 173 -65 173 C-65 166 -65 166 -63.57421875 163.92578125 C-62.64029297 163.12720703 -62.64029297 163.12720703 -61.6875 162.3125 C-56.61031555 157.99012163 -56.61031555 157.99012163 -54.6015625 151.828125 C-54.45577343 144.31548923 -54.45577343 144.31548923 -56.4375 137.1875 C-58.30020081 133.15886802 -58.33753409 129.11472739 -58.5 124.75 C-58.77038109 117.52402579 -59.87275939 110.94363443 -62 104 C-62.33 104 -62.66 104 -63 104 C-62.9175 104.86625 -62.835 105.7325 -62.75 106.625 C-63.09353868 111.26277214 -65.09831114 114.32369649 -68.58203125 117.39453125 C-70.38119245 119.43159807 -70.58011929 120.81926625 -70.875 123.5 C-70.97554687 124.2734375 -71.07609375 125.046875 -71.1796875 125.84375 C-71.18765776 128.06552393 -71.18765776 128.06552393 -69.71875 129.69921875 C-67.85357036 131.23401106 -67.85357036 131.23401106 -64.625 132.3125 C-60.31856681 134.3172189 -58.52796067 135.98500364 -56 140 C-54.43820012 144.93199963 -54.55892118 148.76937244 -56.8125 153.4375 C-58.07042477 155.68541611 -59.16016728 157.16016728 -61 159 C-61.99 159 -62.98 159 -64 159 C-66.1875 156 -66.1875 156 -68 153 C-67.67 152.443125 -67.34 151.88625 -67 151.3125 C-65.8690399 148.69715478 -65.84337026 146.8193354 -66 144 C-68.24362573 143.7715451 -68.24362573 143.7715451 -70.125 146 C-74.081208 148.7521447 -76.2501086 148.38933536 -81 148 C-81.66 147.67 -82.32 147.34 -83 147 C-82.505 149.475 -82.505 149.475 -82 152 C-80.02 152.66 -78.04 153.32 -76 154 C-75.90234375 160.15234375 -75.90234375 160.15234375 -76 162 C-77 163 -77 163 -79.625 163.4375 C-84.3164754 162.82934578 -86.90160358 160.4817032 -90 157 C-91.89068725 153.97365242 -92.29609279 151.61192612 -92.3125 148.0625 C-92.33763672 146.81146484 -92.33763672 146.81146484 -92.36328125 145.53515625 C-92 143 -92 143 -90.484375 140.625 C-88.53549388 137.1785576 -88.77054389 134.87522096 -88.9375 130.9375 C-89.09019379 124.35219097 -88.83263911 117.87425496 -88.25 111.3125 C-88.18804443 110.46357178 -88.12608887 109.61464355 -88.06225586 108.73999023 C-87.57522457 103.66602816 -86.77207621 100.70838262 -83 97 C-81.33729713 95.66172696 -79.67083819 94.32810215 -78 93 C-75.76028924 90.62823082 -75.02697844 89.49667992 -74.84765625 86.1953125 C-74.91855469 85.18210937 -74.98945312 84.16890625 -75.0625 83.125 C-75.21644066 77.65006679 -74.77079717 74.99260876 -71 71 C-70.34 71 -69.68 71 -69 71 C-69 70.34 -69 69.68 -69 69 C-69.5775 68.79375 -70.155 68.5875 -70.75 68.375 C-74.47962009 66.09578772 -76.4415528 63.07531054 -77.578125 58.8515625 C-78.42671287 53.44642669 -77.79126184 49.83818718 -75 45 C-71.98334659 41.42764728 -69.46988491 39.40482097 -65 38 C-65.0721875 37.39414063 -65.144375 36.78828125 -65.21875 36.1640625 C-65.8924937 30.08165405 -66.11713363 24.11697862 -66 18 C-64.35 18 -62.7 18 -61 18 C-60.80664062 17.15695313 -60.61328125 16.31390625 -60.4140625 15.4453125 C-60.15367188 14.34960938 -59.89328125 13.25390625 -59.625 12.125 C-59.36976562 11.03445312 -59.11453125 9.94390625 -58.8515625 8.8203125 C-58 6 -58 6 -56 4 C-55.278125 3.7525 -54.55625 3.505 -53.8125 3.25 C-51.15691523 2.0697401 -49.84216932 1.05698002 -47.75 -0.875 C-33.78293341 -13.32059964 -13.93067248 -10.93942379 0 0 Z " fill="#417197" transform="translate(123,83)"/>
<path d="M0 0 C0.51691406 0.54527344 1.03382812 1.09054688 1.56640625 1.65234375 C3.04833923 3.28799973 3.04833923 3.28799973 6 3.5625 C9 5 9 5 10.0546875 7.2421875 C11.17038354 10.90804592 12 14.1559478 12 18 C13.98 18 15.96 18 18 18 C17.85888117 20.75031587 17.71228835 23.50015418 17.5625 26.25 C17.52318359 27.02730469 17.48386719 27.80460937 17.44335938 28.60546875 C17.40146484 29.35957031 17.35957031 30.11367187 17.31640625 30.890625 C17.27974854 31.58188477 17.24309082 32.27314453 17.20532227 32.98535156 C16.99324476 35.06628329 16.55491323 36.98572422 16 39 C16.721875 39.0825 17.44375 39.165 18.1875 39.25 C22.73699351 40.46319827 25.16741425 42.79418615 27.8125 46.625 C29.62174746 51.76707172 30.01927828 56.80262112 28.34375 62.05859375 C25.90383692 66.94893677 22.83588399 68.91556725 18 71 C16.02 71 14.04 71 12 71 C12.33 65.39 12.66 59.78 13 54 C4.1169107 59.92205953 -0.88377389 65.72985697 -4 76 C-4.33 77.65 -4.66 79.3 -5 81 C-17.87 81 -30.74 81 -44 81 C-44.99 76.05 -44.99 76.05 -46 71 C-49.65811018 63.17921272 -54.24576489 60.04087651 -62 57 C-61.505 63.93 -61.505 63.93 -61 71 C-67.28654496 70.67483388 -70.56859961 69.84362368 -75 65 C-77.79626801 60.31574081 -78.61246275 55.62517784 -77.7734375 50.24609375 C-75.94602103 44.93920247 -71.98529654 41.01376844 -67.0625 38.5 C-66.0415625 38.2525 -66.0415625 38.2525 -65 38 C-65.10828125 37.09121094 -65.10828125 37.09121094 -65.21875 36.1640625 C-65.8924937 30.08165405 -66.11713363 24.11697862 -66 18 C-64.35 18 -62.7 18 -61 18 C-60.80664062 17.15695313 -60.61328125 16.31390625 -60.4140625 15.4453125 C-60.15367188 14.34960938 -59.89328125 13.25390625 -59.625 12.125 C-59.36976562 11.03445312 -59.11453125 9.94390625 -58.8515625 8.8203125 C-58 6 -58 6 -56 4 C-55.278125 3.7525 -54.55625 3.505 -53.8125 3.25 C-51.15691523 2.0697401 -49.84216932 1.05698002 -47.75 -0.875 C-33.78293341 -13.32059964 -13.93067248 -10.93942379 0 0 Z " fill="#5290C1" transform="translate(123,83)"/>
<path d="M0 0 C3.97741136 2.97267906 6.85665214 6.30296776 8.5625 11 C9.42121732 17.36354728 8.60786059 21.86391823 6.5625 28 C10.8525 28 15.1425 28 19.5625 28 C19.73535771 42.57766683 19.73535771 42.57766683 19.0625 47.5625 C18.89261891 49.04130094 18.72634347 50.52051795 18.5625 52 C18.42457031 53.07894531 18.28664063 54.15789062 18.14453125 55.26953125 C17.73156915 60.79364744 17.46936791 64.48186734 20.79296875 69.09765625 C23.50046974 71.94797773 23.50046974 71.94797773 26.375 74.40234375 C28.5625 77 28.5625 77 28.5625 84 C16.6825 84 4.8025 84 -7.4375 84 C-7.4375 72.12 -7.4375 60.24 -7.4375 48 C-8.7575 48 -10.0775 48 -11.4375 48 C-11.4375 59.88 -11.4375 71.76 -11.4375 84 C-23.3175 84 -35.1975 84 -47.4375 84 C-47.4375 77 -47.4375 77 -46.01171875 74.92578125 C-45.38910156 74.39339844 -44.76648437 73.86101562 -44.125 73.3125 C-39.04781555 68.99012163 -39.04781555 68.99012163 -37.0390625 62.828125 C-36.89759757 55.27473516 -36.89759757 55.27473516 -38.9375 48.125 C-41.78548915 42.05463816 -40.65176435 34.5390304 -40.4375 28 C-36.1475 28 -31.8575 28 -27.4375 28 C-28.0975 26.35 -28.7575 24.7 -29.4375 23 C-30.33975536 16.78831886 -30.24252007 11.42395233 -26.875 6 C-20.27267243 -2.44056262 -9.88929621 -5.52526966 0 0 Z " fill="#508DBC" transform="translate(105.4375,172)"/>
<path d="M0 0 C3.97741136 2.97267906 6.85665214 6.30296776 8.5625 11 C9.42121732 17.36354728 8.60786059 21.86391823 6.5625 28 C10.8525 28 15.1425 28 19.5625 28 C19.5625 30.97 19.5625 33.94 19.5625 37 C-0.2375 37 -20.0375 37 -40.4375 37 C-40.4375 34.03 -40.4375 31.06 -40.4375 28 C-36.1475 28 -31.8575 28 -27.4375 28 C-28.0975 26.35 -28.7575 24.7 -29.4375 23 C-30.33975536 16.78831886 -30.24252007 11.42395233 -26.875 6 C-20.27267243 -2.44056262 -9.88929621 -5.52526966 0 0 Z " fill="#314A5F" transform="translate(105.4375,172)"/>
<path d="M0 0 C1.04144125 1.3012217 2.05440193 2.62754888 3 4 C1.68 4.99 0.36 5.98 -1 7 C-0.505 12.94 -0.505 12.94 0 19 C-16.17 19 -32.34 19 -49 19 C-48.67 14.71 -48.34 10.42 -48 6 C-49.32 5.01 -50.64 4.02 -52 3 C-37.18599277 -11.36999066 -16.36659477 -13.68903325 0 0 Z " fill="#BFD3E4" transform="translate(123,83)"/>
<path d="M0 0 C0.66 0 1.32 0 2 0 C3.85083001 6.87451147 4.17873395 13.31280816 3.83789062 20.37695312 C3.6989819 24.93405543 4.53983565 27.24036422 7 31 C7.86434076 35.91350468 7.54522901 39.90954199 5.3125 44.375 C-0.3871936 50.84492246 -0.3871936 50.84492246 -5.25 51.3125 C-8 51 -8 51 -9 50 C-9.14115161 47.32941149 -9.04247107 44.67567762 -9 42 C-7.02 41.34 -5.04 40.68 -3 40 C-2.67 38.35 -2.34 36.7 -2 35 C-2.99 35.495 -2.99 35.495 -4 36 C-10.85851319 36.68585132 -10.85851319 36.68585132 -13.859375 34.8828125 C-15.30614145 33.66339507 -16.66207025 32.33792975 -18 31 C-19.25437662 32.03849381 -19.25437662 32.03849381 -19.1875 34.3125 C-18.9945637 37.0779203 -18.39825155 38.64045051 -17 41 C-18.32 42.98 -19.64 44.96 -21 47 C-22.75 46.875 -22.75 46.875 -25 46 C-28.69259045 41.67439404 -30.26175018 37.62762894 -30 32 C-28.30059051 26.10204941 -25.87576606 23.41303624 -21 20 C-19.63875 19.4740625 -19.63875 19.4740625 -18.25 18.9375 C-15.8991019 18.20358601 -15.8991019 18.20358601 -14.8359375 16.23828125 C-13.85387868 13.60874994 -13.96918991 12.00950858 -14.375 9.25 C-14.48585937 8.45078125 -14.59671875 7.6515625 -14.7109375 6.828125 C-14.80632812 6.22484375 -14.90171875 5.6215625 -15 5 C-14.00419922 5.08701172 -14.00419922 5.08701172 -12.98828125 5.17578125 C-6.99798365 5.56947667 -6.99798365 5.56947667 -2 2.5 C-1.34 1.675 -0.68 0.85 0 0 Z " fill="#508BB8" transform="translate(154,195)"/>
<path d="M0 0 C0.66 0 1.32 0 2 0 C2.66 0.825 3.32 1.65 4 2.5 C8.22407099 6.02005916 11.70960374 5.46226763 17 5 C16.89300781 5.75925781 16.78601563 6.51851562 16.67578125 7.30078125 C16.55589844 8.29464844 16.43601562 9.28851563 16.3125 10.3125 C16.12107422 11.79169922 16.12107422 11.79169922 15.92578125 13.30078125 C15.74802977 15.99742382 15.74802977 15.99742382 17.26953125 17.7734375 C19.16291635 19.22087992 19.16291635 19.22087992 22.375 20.3125 C26.68143319 22.3172189 28.47203933 23.98500364 31 28 C32.56179988 32.93199963 32.44107882 36.76937244 30.1875 41.4375 C28.92957523 43.68541611 27.83983272 45.16016728 26 47 C25.01 47 24.02 47 23 47 C20.8125 44 20.8125 44 19 41 C19.495 40.1646875 19.495 40.1646875 20 39.3125 C21.1309601 36.69715478 21.15662974 34.8193354 21 32 C18.75637427 31.7715451 18.75637427 31.7715451 16.875 34 C12.918792 36.7521447 10.7498914 36.38933536 6 36 C5.34 35.67 4.68 35.34 4 35 C4.33 36.65 4.66 38.3 5 40 C6.98 40.66 8.96 41.32 11 42 C11.09765625 48.15234375 11.09765625 48.15234375 11 50 C10 51 10 51 7.375 51.4375 C2.6835246 50.82934578 0.09839642 48.4817032 -3 45 C-4.89068725 41.97365242 -5.29609279 39.61192612 -5.3125 36.0625 C-5.32925781 35.22847656 -5.34601562 34.39445312 -5.36328125 33.53515625 C-5 31 -5 31 -3.484375 28.6640625 C-1.53929868 25.17316236 -1.75088051 22.18028042 -1.9375 18.3125 C-2.10660554 11.95063279 -1.6649935 6.18426155 0 0 Z " fill="#508AB8" transform="translate(36,195)"/>
<path d="M0 0 C3.60816635 2.68843768 5.34642977 4.25100268 7.1875 8.375 C7.9310095 13.9551538 7.93655755 18.6971111 5.625 23.875 C1.21005349 28.40315027 -2.47537344 30.5759085 -8.75 31 C-14.42885859 30.75760969 -17.9469597 28.41666804 -21.8125 24.375 C-24.46688857 20.55931643 -25.42945195 17.15430082 -25.22265625 12.4609375 C-24.30430951 7.79048836 -21.77480016 4.10844629 -18.23828125 0.984375 C-12.60035354 -2.74795943 -6.02327287 -3.06967654 0 0 Z " fill="#4B7EA2" transform="translate(107.8125,113.625)"/>
<path d="M0 0 C2.5 0.5 2.5 0.5 4.8125 1.8125 C7.50135361 6.09474834 6.80567759 10.57519437 6.5 15.5 C7.32242188 15.37238281 8.14484375 15.24476563 8.9921875 15.11328125 C14.41348488 14.63124903 18.04415908 14.46195414 22.58984375 17.703125 C28.03981954 23.42677246 29.5 25.20324623 29.5 33.5 C17.62 33.5 5.74 33.5 -6.5 33.5 C-6.5825 28.7975 -6.665 24.095 -6.75 19.25 C-6.78641602 17.77241211 -6.82283203 16.29482422 -6.86035156 14.77246094 C-6.8703418 13.60489258 -6.88033203 12.43732422 -6.890625 11.234375 C-6.91157227 10.04038086 -6.93251953 8.84638672 -6.95410156 7.61621094 C-6.30844398 3.18547255 -4.44379309 0.88875862 0 0 Z " fill="#324A5E" transform="translate(104.5,222.5)"/>
<path d="M0 0 C1.9453125 -0.29296875 1.9453125 -0.29296875 4.125 -0.1875 C5.40375 -0.125625 6.6825 -0.06375 8 0 C8.495 1.485 8.495 1.485 9 3 C9.66 3 10.32 3 11 3 C11 12.57 11 22.14 11 32 C-0.88 32 -12.76 32 -25 32 C-25 25 -25 25 -23.57421875 22.92578125 C-22.95160156 22.39339844 -22.32898437 21.86101562 -21.6875 21.3125 C-18.86776723 18.83683219 -18.86776723 18.83683219 -16.6875 15.80859375 C-15 14 -15 14 -11.86328125 13.609375 C-10.69152344 13.65578125 -9.51976563 13.7021875 -8.3125 13.75 C-7.13300781 13.78609375 -5.95351562 13.8221875 -4.73828125 13.859375 C-3.38283203 13.92898437 -3.38283203 13.92898437 -2 14 C-2.02320312 13.24074219 -2.04640625 12.48148438 -2.0703125 11.69921875 C-2.09738281 10.20841797 -2.09738281 10.20841797 -2.125 8.6875 C-2.14820312 7.70136719 -2.17140625 6.71523437 -2.1953125 5.69921875 C-2 3 -2 3 0 0 Z " fill="#324A5D" transform="translate(83,224)"/>
<path d="M0 0 C5.82849171 0.68570491 9.94344037 3.59354372 13.75 7.9375 C18.05901264 13.80254498 18.21241147 17.88421577 18 25 C12.72 25 7.44 25 2 25 C2 24.01 2 23.02 2 22 C-1.11785113 22.64644661 -1.11785113 22.64644661 -2 25 C-2.17218202 29.47673252 -1.85736786 33.60598974 -1 38 C-6.05510556 37.55396127 -8.40166738 35.35299176 -12 32 C-13.8564997 28.2870006 -13.44679302 24.0521645 -13 20 C-11.27748397 16.36357727 -10.34970971 14.51911912 -6.5625 13.0625 C-3.87667723 12.99699213 -1.59735326 13.33210916 1 14 C0.7525 12.7625 0.7525 12.7625 0.5 11.5 C-0.05896045 7.58727683 -0.06807187 3.94816827 0 0 Z " fill="#344F64" transform="translate(61,140)"/>
<path d="M0 0 C-0.14139481 2.25028329 -0.28828003 4.50022206 -0.4375 6.75 C-0.51871094 8.00296875 -0.59992188 9.2559375 -0.68359375 10.546875 C-0.92515522 13.18317553 -1.24283934 15.48037294 -2 18 C-1.1028125 18.0928125 -1.1028125 18.0928125 -0.1875 18.1875 C2 19 2 19 3.75 20.9375 C5.54919491 25.34552754 5.81079609 29.307893 5 34 C3.05171035 37.78060968 0.07583988 40.64138671 -4 42 C-4.99 42 -5.98 42 -7 42 C-6.835 41.175 -6.67 40.35 -6.5 39.5 C-5.94103955 35.58727683 -5.93192813 31.94816827 -6 28 C-9.96 28.33 -13.92 28.66 -18 29 C-18.69637445 20.36495677 -16.64733197 14.32624129 -11.02734375 7.66015625 C-3.61652351 0 -3.61652351 0 0 0 Z " fill="#334E63" transform="translate(137,136)"/>
<path d="M0 0 C4.20662891 1.70055211 6.17039752 3.8593207 8 8 C8.58215321 11.90874297 8.15326961 13.69346078 6.375 17.25 C2.79670279 21.39329151 -0.25673379 21.81649829 -5.5625 22.375 C-9.60624517 21.93386416 -11.1951289 20.8898672 -14 18 C-14 17.34 -14 16.68 -14 16 C-14.66 16 -15.32 16 -16 16 C-16.62739631 7.0247473 -16.62739631 7.0247473 -14.125 2.9375 C-9.88612796 -0.92735392 -5.50468557 -0.47753581 0 0 Z " fill="#344D61" transform="translate(52,179)"/>
<path d="M0 0 C2.93423195 1.79646854 4.47205355 2.9441071 6 6 C6.06996014 7.70702735 6.08440154 9.41668003 6.0625 11.125 C6.05347656 12.03507813 6.04445312 12.94515625 6.03515625 13.8828125 C6.02355469 14.58148438 6.01195312 15.28015625 6 16 C5.34 16 4.68 16 4 16 C3.731875 16.61875 3.46375 17.2375 3.1875 17.875 C2 20 2 20 -1 22 C-6.43220237 22.52232715 -10.23451515 21.65767424 -15 19 C-17.87434293 15.85618742 -18 14.29758561 -18 10 C-17.28721779 5.7633507 -15.34877008 3.69535153 -12 1 C-8.30274625 -0.84862688 -4.03538558 -0.47587094 0 0 Z " fill="#344D61" transform="translate(150,179)"/>
<path d="M0 0 C2.93423195 1.79646854 4.47205355 2.9441071 6 6 C6.40710593 10.23390162 6.25575965 12.51588352 4.25 16.3125 C1.28082736 19.85901176 -0.33145718 20.70337016 -4.8125 21.5 C-8.73156516 20.88524468 -10.75888771 19.66918506 -13.6328125 16.98046875 C-15.80889506 13.82825773 -15.84409285 11.09275115 -15.5390625 7.34765625 C-15 5 -15 5 -13.125 1.875 C-8.7304329 -0.76174026 -5.00472351 -0.91219098 0 0 Z " fill="#FACA06" transform="translate(104,118)"/>
<path d="M0 0 C1.175625 0.8353125 1.175625 0.8353125 2.375 1.6875 C2.92671875 2.03683594 3.4784375 2.38617188 4.046875 2.74609375 C5.75 3.9375 5.75 3.9375 8.375 6.6875 C8.47741519 11.39859857 6.31569119 15.46860612 4.375 19.6875 C0.415 19.6875 -3.545 19.6875 -7.625 19.6875 C-11.67147792 10.36833873 -11.67147792 10.36833873 -11.48046875 7.5703125 C-9.54016506 3.2998724 -4.72480173 -0.5624764 0 0 Z " fill="#F16191" transform="translate(96.625,178.3125)"/>
<path d="M0 0 C4 4.09756098 4 4.09756098 4 7 C-7.55 7 -19.1 7 -31 7 C-28.17785944 2.29643241 -25.55617717 -1.85540047 -20.0703125 -3.62109375 C-12.64634662 -4.97981958 -6.45485355 -4.01491891 0 0 Z " fill="#FEFEFE" transform="translate(112,94)"/>
<path d="M0 0 C8.58 0 17.16 0 26 0 C25.67 2.31 25.34 4.62 25 7 C24.34 6.34 23.68 5.68 23 5 C20.34462628 4.43479997 17.70855287 4.26211802 15 4 C13.99740493 7.00778521 13.69685358 9.53820647 13.4375 12.6875 C13.293125 14.440625 13.14875 16.19375 13 18 C9.04 18 5.08 18 1 18 C0.67 12.06 0.34 6.12 0 0 Z " fill="#477AA3" transform="translate(68,220)"/>
<path d="M0 0 C-0.33 6.27 -0.66 12.54 -1 19 C-4.96 19 -8.92 19 -13 19 C-13.16276042 16.23307292 -13.32552083 13.46614583 -13.48828125 10.69921875 C-14.05123129 7.72976474 -14.57728046 6.7481124 -17 5 C-20.74849077 4.53143865 -21.76746204 4.84497469 -25 7 C-26 6 -26 6 -26.0625 3.4375 C-26.041875 2.633125 -26.02125 1.82875 -26 1 C-22.04169483 0.83265991 -18.08335144 0.66624177 -14.125 0.5 C-12.43310547 0.42845703 -12.43310547 0.42845703 -10.70703125 0.35546875 C-9.63066406 0.31035156 -8.55429688 0.26523438 -7.4453125 0.21875 C-5.95281982 0.1559082 -5.95281982 0.1559082 -4.43017578 0.09179688 C-2.95418617 0.0360432 -1.47704224 0 0 0 Z " fill="#477BA3" transform="translate(124,219)"/>
<path d="M0 0 C4.19719217 0.09993315 6.46959463 1.01942367 9.3125 4 C12.4658629 8.06858696 13.55304518 11.87335896 13 17 C11.66090546 20.92980509 9.93699479 24.06300521 7 27 C6.01 27 5.02 27 4 27 C1.8125 24 1.8125 24 0 21 C0.33 20.443125 0.66 19.88625 1 19.3125 C2.16594721 16.61624708 2.29134297 14.91342967 2 12 C1.67 11.401875 1.34 10.80375 1 10.1875 C-0.546865 6.80373281 -0.12318095 3.69542851 0 0 Z " fill="#B2C5D4" transform="translate(55,215)"/>
<path d="M0 0 C0.05395478 1.62463842 0.09277195 3.24978541 0.125 4.875 C0.14820313 5.77992188 0.17140625 6.68484375 0.1953125 7.6171875 C0 10 0 10 -2 12 C-2.38079379 15.61754103 -1.84651134 17.88401212 0 21 C-1.98 23.97 -1.98 23.97 -4 27 C-5.75 26.875 -5.75 26.875 -8 26 C-11.69259045 21.67439404 -13.26175018 17.62762894 -13 12 C-11.04727547 5.22289723 -7.48173277 0 0 0 Z " fill="#B2C5D4" transform="translate(137,215)"/>
<path d="M0 0 C0.66 0 1.32 0 2 0 C2.268125 0.928125 2.53625 1.85625 2.8125 2.8125 C3.72251395 5.95914625 3.72251395 5.95914625 5.625 7.5625 C7 9 7 9 7.1875 11.6875 C7.125625 12.450625 7.06375 13.21375 7 14 C8.98 14.66 10.96 15.32 13 16 C13.09765625 22.15234375 13.09765625 22.15234375 13 24 C12 25 12 25 9.375 25.4375 C4.6835246 24.82934578 2.09839642 22.4817032 -1 19 C-3.76008034 14.58204962 -3.54713297 10.05485534 -3 5 C-1.625 1.875 -1.625 1.875 0 0 Z " fill="#A8BAC8" transform="translate(34,221)"/>
<path d="M0 0 C3.32566237 3.11780847 4.33893747 5.48814768 4.5 9.9375 C4.23848733 16.00639758 1.85365471 19.14634529 -2.375 23.375 C-5.51657327 25.31978345 -7.36760716 25.41277191 -11 25 C-12 24 -12 24 -12.09765625 22.15234375 C-12.06510417 20.1015625 -12.03255208 18.05078125 -12 16 C-10.02 15.34 -8.04 14.68 -6 14 C-6.0825 13.0925 -6.165 12.185 -6.25 11.25 C-5.94295732 7.25844517 -4.92017367 6.57662383 -2 4 C-0.76487921 1.86690808 -0.76487921 1.86690808 0 0 Z " fill="#A8BAC8" transform="translate(157,221)"/>
<path d="M0 0 C0.66 0 1.32 0 2 0 C2.66 0.825 3.32 1.65 4 2.5 C8.22407099 6.02005916 11.70960374 5.46226763 17 5 C16.85950482 6.47968324 16.71245174 7.95874516 16.5625 9.4375 C16.48128906 10.26121094 16.40007813 11.08492187 16.31640625 11.93359375 C16 14 16 14 15 15 C13.58479382 15.10526327 12.16759312 15.18428376 10.75 15.25 C6.94216726 15.61322729 6.13182998 15.88780427 3.0625 18.5 C2.0415625 19.7375 2.0415625 19.7375 1 21 C0.34 21.33 -0.32 21.66 -1 22 C-3.41833886 14.74498341 -1.69820698 7.26286736 0 0 Z " fill="#4879A1" transform="translate(36,195)"/>
<path d="M0 0 C0.66 0 1.32 0 2 0 C3.45544924 6.22464453 4.89191159 12.58610638 4 19 C3.34 19.99 2.68 20.98 2 22 C1.38125 21.195625 0.7625 20.39125 0.125 19.5625 C-2.0684522 16.9174547 -2.8046453 16.15791842 -6.12890625 15.71875 C-7.75388539 15.57268446 -9.37888549 15.42685186 -11.00390625 15.28125 C-13 15 -13 15 -14 14 C-14.23192865 12.48530552 -14.41215238 10.96245438 -14.5625 9.4375 C-14.64628906 8.61121094 -14.73007813 7.78492188 -14.81640625 6.93359375 C-14.87699219 6.29550781 -14.93757812 5.65742188 -15 5 C-14.00419922 5.08701172 -14.00419922 5.08701172 -12.98828125 5.17578125 C-6.99798365 5.56947667 -6.99798365 5.56947667 -2 2.5 C-1.34 1.675 -0.68 0.85 0 0 Z " fill="#4779A0" transform="translate(154,195)"/>
<path d="M0 0 C0.33 1.32 0.66 2.64 1 4 C4.10385211 4.11613204 7.20714662 4.18722029 10.3125 4.25 C11.19357422 4.28351563 12.07464844 4.31703125 12.98242188 4.3515625 C18.04962019 4.60941947 18.04962019 4.60941947 22.10546875 1.984375 C22.40066406 1.32953125 22.69585937 0.6746875 23 0 C25.24197388 1.77489599 25.94326323 2.62175489 26.375 5.5 C25.92304941 8.5130039 25.41351241 9.19501727 23 11 C20.41210938 11.38818359 20.41210938 11.38818359 17.34375 11.3984375 C16.23902344 11.40230469 15.13429688 11.40617188 13.99609375 11.41015625 C12.84238281 11.39855469 11.68867187 11.38695312 10.5 11.375 C9.34628906 11.38660156 8.19257812 11.39820313 7.00390625 11.41015625 C5.89917969 11.40628906 4.79445313 11.40242187 3.65625 11.3984375 C2.64369141 11.39505371 1.63113281 11.39166992 0.58789062 11.38818359 C-2 11 -2 11 -3.83007812 9.63134766 C-5.50482222 7.29607219 -5.42078964 5.8052643 -5 3 C-2.72413793 0 -2.72413793 0 0 0 Z " fill="#39546A" transform="translate(88,150)"/>
<path d="M0 0 C1.670625 0.061875 1.670625 0.061875 3.375 0.125 C5.64876292 5.08593728 7.16123966 9.80312773 8.375 15.125 C4.415 15.125 0.455 15.125 -3.625 15.125 C-7.28919295 6.47750464 -7.28919295 6.47750464 -5.625 2.125 C-3.625 0.125 -3.625 0.125 0 0 Z " fill="#4B7EA6" transform="translate(127.625,86.875)"/>
<path d="M0 0 C3.0625 0.25 3.0625 0.25 6.0625 2.25 C5.92101011 3.8545556 5.77414314 5.45863767 5.625 7.0625 C5.54378906 7.95582031 5.46257812 8.84914063 5.37890625 9.76953125 C5.0625 12.25 5.0625 12.25 4.0625 15.25 C0.4325 15.25 -3.1975 15.25 -6.9375 15.25 C-8.10335932 11.75242203 -7.69610292 10.63431934 -6.625 7.1875 C-6.36074219 6.30964844 -6.09648438 5.43179688 -5.82421875 4.52734375 C-4.49509881 1.11378901 -3.69224587 0.31423369 0 0 Z " fill="#4A7DA6" transform="translate(69.9375,86.75)"/>
<path d="M0 0 C2.93793754 0.31477902 4.07200359 1.06421942 6.3125 3.0625 C8.28735009 6.50020201 8.44525928 8.23857398 7.75 12.0625 C6.38007791 15.6014654 4.16083225 16.97706736 1 19 C0.01 19 -0.98 19 -2 19 C-1.85761163 16.95809019 -1.71092972 14.91647955 -1.5625 12.875 C-1.48128906 11.73804688 -1.40007812 10.60109375 -1.31640625 9.4296875 C-1.02269035 6.2459522 -0.56875687 3.14489093 0 0 Z " fill="#4478A1" transform="translate(138,129)"/>
<path d="M0 0 C0 3.3 0 6.6 0 10 C0.99 10.33 1.98 10.66 3 11 C2.34 11 1.68 11 1 11 C1 13.31 1 15.62 1 18 C-2.41529114 17.7153924 -3.78498424 17.20339329 -6.3125 14.8125 C-8.32007265 11.46654559 -8.56000259 9.84001776 -8 6 C-5.91701473 1.73934832 -4.89996334 0 0 0 Z " fill="#457AA3" transform="translate(60,129)"/>
<path d="M0 0 C1.18613892 0.00785522 1.18613892 0.00785522 2.39624023 0.01586914 C3.67724609 0.02070313 3.67724609 0.02070313 4.98413086 0.02563477 C5.88196289 0.03401367 6.77979492 0.04239258 7.70483398 0.05102539 C8.6065332 0.05553711 9.50823242 0.06004883 10.43725586 0.06469727 C12.67234712 0.07652315 14.90730835 0.09300319 17.14233398 0.11352539 C17.52452166 1.76967196 17.856285 3.43809563 18.14233398 5.11352539 C17.14233398 6.11352539 17.14233398 6.11352539 15.28466797 6.22705078 C14.49390869 6.22181396 13.70314941 6.21657715 12.88842773 6.21118164 C12.03442383 6.20795898 11.18041992 6.20473633 10.30053711 6.20141602 C9.40270508 6.19303711 8.50487305 6.1846582 7.57983398 6.17602539 C6.67813477 6.17151367 5.77643555 6.16700195 4.84741211 6.16235352 C2.61232085 6.15052764 0.37735962 6.13404759 -1.85766602 6.11352539 C-2.23985369 4.45737882 -2.57161703 2.78895515 -2.85766602 1.11352539 C-1.85766602 0.11352539 -1.85766602 0.11352539 0 0 Z " fill="#B5CDE1" transform="translate(90.857666015625,148.886474609375)"/>
<path d="M0 0 C1.875 1.1875 1.875 1.1875 3 3 C3.42822025 5.85480169 3.40659584 7.34492892 1.875 9.8125 C-0.87155972 11.55198782 -2.81846974 11.39769128 -6 11 C-7.875 9.8125 -7.875 9.8125 -9 8 C-9.42822025 5.14519831 -9.40659584 3.65507108 -7.875 1.1875 C-5.12844028 -0.55198782 -3.18153026 -0.39769128 0 0 Z " fill="#477CA7" transform="translate(129,123)"/>
<path d="M0 0 C1.38125018 2.76250036 1.19079306 4.94731099 1 8 C-1 10 -1 10 -4.5 10.3125 C-6.2325 10.1578125 -6.2325 10.1578125 -8 10 C-10.15502531 6.76746204 -10.46856135 5.74849077 -10 2 C-7.59587398 -2.24257532 -4.222762 -1.01659085 0 0 Z " fill="#477CA6" transform="translate(77,124)"/>
<path d="M0 0 C1.875 1.0625 1.875 1.0625 3 3 C2.8125 6.625 2.8125 6.625 2 10 C-0.76250036 11.38125018 -2.94731099 11.19079306 -6 11 C-8 9 -8 9 -8.3125 6.0625 C-8 3 -8 3 -6.8125 1.125 C-4.34492892 -0.40659584 -2.85480169 -0.42822025 0 0 Z " fill="#43779F" transform="translate(49,184)"/>
<path d="M0 0 C1.38125018 2.76250036 1.19079306 4.94731099 1 8 C-1 10 -1 10 -3.9375 10.3125 C-7 10 -7 10 -8.875 8.8125 C-10.42229478 6.31963619 -10.50405716 4.88032665 -10 2 C-6.90069968 -1.57611576 -4.35899266 -1.25926455 0 0 Z " fill="#44779F" transform="translate(150,185)"/>
<path d="M0 0 C2.5 0.125 2.5 0.125 3.5 1.125 C3.625 4.125 3.625 4.125 3.5 7.125 C2.5 8.125 2.5 8.125 0.0625 8.3125 C-2.5 8.125 -2.5 8.125 -4.5 6.125 C-3.77607362 0.18880368 -3.77607362 0.18880368 0 0 Z " fill="#FEFDF6" transform="translate(101.5,123.875)"/>
<path d="M0 0 C1.65 0.33 3.3 0.66 5 1 C4.6875 2.9375 4.6875 2.9375 4 5 C3.01 5.33 2.02 5.66 1 6 C0.34 5.67 -0.32 5.34 -1 5 C-0.67 3.35 -0.34 1.7 0 0 Z " fill="#43769D" transform="translate(103,227)"/>
<path d="M0 0 C1.65 0.33 3.3 0.66 5 1 C5 2.32 5 3.64 5 5 C3.125 5.625 3.125 5.625 1 6 C0.34 5.34 -0.32 4.68 -1 4 C-0.625 1.875 -0.625 1.875 0 0 Z " fill="#43749C" transform="translate(85,227)"/>
<path d="M0 0 C3.63 0 7.26 0 11 0 C8 3 8 3 5.95703125 3.07421875 C2.97851562 2.53710938 2.97851562 2.53710938 0 2 C0 1.34 0 0.68 0 0 Z " fill="#355A77" transform="translate(92,165)"/>
<path d="M0 0 C0.66 0 1.32 0 2 0 C1.43628586 3.26954202 0.50037734 4.82575883 -2 7 C-2.99 6.67 -3.98 6.34 -5 6 C-3.38405168 3.95880212 -1.7143618 1.95927063 0 0 Z " fill="#5181A7" transform="translate(48,172)"/>
</svg>
