<?xml version="1.0" encoding="UTF-8"?>
<svg version="1.1" xmlns="http://www.w3.org/2000/svg" width="512" height="512">
<path d="M0 0 C3.90863741 1.95431871 6.98579156 4.07759409 9 8 C10.55982223 14.21510564 10.12007447 18.42843844 7 24 C6.21673592 24.69800468 6.21673592 24.69800468 5.41764832 25.41011047 C3.53695628 27.51930253 3.60597076 28.76413448 3.56762695 31.56323242 C3.54783279 32.48396042 3.52803864 33.40468842 3.50764465 34.35331726 C3.50125473 35.34402725 3.49486481 36.33473724 3.48828125 37.35546875 C3.46135445 38.88062859 3.46135445 38.88062859 3.43388367 40.43659973 C3.3796646 43.68685752 3.34584741 46.9369675 3.3125 50.1875 C3.27933721 52.38999458 3.24484853 54.59246963 3.20898438 56.79492188 C3.12393168 62.19648204 3.05563102 67.59806106 3 73 C4.32 73 5.64 73 7 73 C7.33 71.741875 7.66 70.48375 8 69.1875 C12.33955984 56.18929011 23.09046016 46.12288378 35 40 C42.64878745 36.55420479 48.85349106 34.84572298 57.265625 34.90234375 C58.45572174 34.90446617 58.45572174 34.90446617 59.66986084 34.90663147 C62.19661272 34.91221585 64.72327504 34.92476546 67.25 34.9375 C68.96614455 34.94251702 70.68229049 34.94707957 72.3984375 34.95117188 C76.59899269 34.96218016 80.79948117 34.97943404 85 35 C84.98187256 34.04158203 84.96374512 33.08316406 84.94506836 32.09570312 C84.93096924 30.83693359 84.91687012 29.57816406 84.90234375 28.28125 C84.88421631 27.03408203 84.86608887 25.78691406 84.84741211 24.50195312 C85.13156253 17.98058741 87.64706617 14.01723275 92.3125 9.625 C97.26277266 5.77595325 101.86322513 4.76060383 108.0625 5.1875 C115.1435931 6.14093008 119.14740885 8.72194913 123.703125 14.0859375 C126.86423373 18.7514293 127.2292572 22.73474002 127.125 28.3125 C127.10695313 29.56675781 127.08890625 30.82101563 127.0703125 32.11328125 C127.04710937 33.06589844 127.02390625 34.01851562 127 35 C128.02770508 34.97905273 129.05541016 34.95810547 130.11425781 34.93652344 C133.98325267 34.86328208 137.85218835 34.81789976 141.72167969 34.78027344 C143.38584754 34.76034713 145.04994714 34.73319572 146.71386719 34.69824219 C164.62308408 34.33186832 178.38927377 38.18289459 191.7109375 50.6796875 C197.01339246 56.05453092 205 65.05563173 205 73 C206.32 73 207.64 73 209 73 C208.98369415 66.55820904 208.92880727 60.11756455 208.84741211 53.67626953 C208.82425177 51.48624099 208.80984103 49.29610138 208.80444336 47.10595703 C208.79513975 43.95274801 208.75411647 40.80128126 208.70703125 37.6484375 C208.71293022 36.1855983 208.71293022 36.1855983 208.71894836 34.69320679 C208.58233852 28.29148929 207.56044535 25.50980828 203 21 C201.41813414 16.50537154 201.79007836 12.71140113 203.125 8.1875 C205.44119869 4.24996222 207.93564807 2.03217596 212 0 C217.28305214 -0.52657873 221.66862857 -0.64191122 226.5 1.6875 C230.85570728 5.71652924 232.1921856 8.45362304 232.5 14.375 C232.64317166 18.51504731 232.2210322 19.73428947 229.50708008 22.99682617 C226.05711372 27.71123894 226.2704828 32.2931722 226.29296875 37.96484375 C226.27784744 38.99815323 226.26272614 40.03146271 226.24714661 41.09608459 C226.20436727 44.37678009 226.19544068 47.65655371 226.1875 50.9375 C226.16434823 53.16994622 226.13898148 55.40237063 226.11132812 57.63476562 C226.04857248 63.08985259 226.0135608 68.54458074 226 74 C226.61875 74.103125 227.2375 74.20625 227.875 74.3125 C230 75 230 75 232 78 C232.26742554 80.34593201 232.26742554 80.34593201 232.29052734 83.14233398 C232.30328705 84.19029648 232.31604675 85.23825897 232.32919312 86.31797791 C232.33253159 88.01489525 232.33253159 88.01489525 232.3359375 89.74609375 C232.3425943 90.90875259 232.3492511 92.07141144 232.35610962 93.26930237 C232.36624108 95.72973039 232.37092649 98.19018591 232.37060547 100.65063477 C232.37497881 104.41924183 232.41129589 108.18667834 232.44921875 111.95507812 C232.45508665 114.34374599 232.45905622 116.73241942 232.4609375 119.12109375 C232.47530853 120.25034775 232.48967957 121.37960175 232.50448608 122.54307556 C232.49833282 123.59419022 232.49217957 124.64530487 232.48583984 125.72827148 C232.48868988 126.65187973 232.49153992 127.57548798 232.49447632 128.52708435 C231.84642693 131.7680312 230.55076646 132.96547184 228 135 C225.43457031 135.45410156 225.43457031 135.45410156 222.578125 135.390625 C221.55332031 135.37773437 220.52851563 135.36484375 219.47265625 135.3515625 C217.87744141 135.30128906 217.87744141 135.30128906 216.25 135.25 C214.63158203 135.22292969 214.63158203 135.22292969 212.98046875 135.1953125 C210.31941212 135.14821415 207.66015746 135.082456 205 135 C204.7208374 135.88751953 204.7208374 135.88751953 204.43603516 136.79296875 C199.56970716 151.88751176 190.51801621 161.98498258 176.484375 169.3359375 C167.34249334 173.70190341 160.49110164 174 150 174 C150 182.91 150 191.82 150 201 C155.05644816 200.99489248 160.10610162 200.97177569 165.16113281 200.90234375 C166.87980326 200.88419106 168.59861961 200.87661396 170.31738281 200.87988281 C172.79086002 200.88274232 175.26131649 200.84741087 177.734375 200.8046875 C178.50118591 200.81378143 179.26799683 200.82287537 180.05804443 200.83224487 C182.52401356 200.82890163 182.52401356 200.82890163 186 200 C188.4465464 197.21077157 188.4465464 197.21077157 190 194 C197.44008715 185.98759845 204.39981549 181.79393585 215.359375 181.00390625 C225.25295887 180.98927077 233.42288423 183.93145265 240.8125 190.5 C241.534375 191.325 242.25625 192.15 243 193 C243.680625 193.721875 244.36125 194.44375 245.0625 195.1875 C248.5618972 200.26727013 250.89808219 205.62677091 251.1640625 211.8203125 C251.78581178 217.34473965 255.36554722 220.32143511 259.1875 224.0625 C260.65807786 225.56068201 262.1281203 227.05938974 263.59765625 228.55859375 C264.33902832 229.30351074 265.08040039 230.04842773 265.84423828 230.81591797 C268.42056753 233.42609254 270.92733524 236.09358003 273.41918945 238.78417969 C274.55587312 240.01082844 275.69896496 241.23157014 276.84838867 242.44628906 C279.84189076 245.61592944 282.71818789 248.83499 285.4921875 252.19921875 C292.71774435 261.09662264 292.71774435 261.09662264 303.3125 264.5625 C304.46234375 264.61148437 305.6121875 264.66046875 306.796875 264.7109375 C312.67859947 265.24172727 316.69819313 268.4770836 320.5859375 272.73828125 C325.79156652 279.52365318 326.94568194 286.59393835 326 295 C324.16551948 301.346311 320.66207178 307.72357919 314.92950439 311.2870636 C312.25054015 313.66534032 312.16919462 315.52088229 311.62792969 319.03198242 C311.32807159 320.89357246 311.32807159 320.89357246 311.02215576 322.79277039 C310.82169463 324.14694882 310.62160986 325.50118301 310.421875 326.85546875 C310.20488633 328.24147154 309.98637975 329.62723747 309.76641846 331.01277161 C309.19233161 334.6552353 308.63890441 338.30054832 308.08972168 341.94683838 C307.52538389 345.6689736 306.94156317 349.38804465 306.359375 353.10742188 C305.22049435 360.40208888 304.10342221 367.69987591 303 375 C304.14439293 375.81628624 304.14439293 375.81628624 305.31190491 376.64906311 C306.30862717 377.36565598 307.30534943 378.08224884 308.33227539 378.82055664 C309.32207901 379.52974747 310.31188263 380.23893829 311.3316803 380.96961975 C320.51927509 387.96065272 325.77791535 399.36642246 327.68359375 410.54296875 C329.30802306 423.15736424 326.3111438 435.55329135 319 446 C312.36404013 454.32244691 304.73871694 459.04691866 295 463 C294.34 463 293.68 463 293 463 C293.55886124 460.56161661 294.12144756 458.12421843 294.6875 455.6875 C294.94889771 454.5588855 294.94889771 454.5588855 295.21557617 453.4074707 C296.20882142 449.17672409 297.26301621 444.97199813 298.4140625 440.78125 C298.64649658 439.93087158 298.87893066 439.08049316 299.1184082 438.2043457 C299.5747726 436.54952314 300.03923086 434.8969076 300.51245117 433.24682617 C300.7210376 432.48861572 300.92962402 431.73040527 301.14453125 430.94921875 C301.33378174 430.28237061 301.52303223 429.61552246 301.71801758 428.9284668 C302.19428021 425.67132523 301.40931114 423.6596917 299.69091797 420.89013672 C295.27271841 415.14101646 290.63313032 409.21372132 284 406 C276.73662944 405.51782877 269.8712661 408.34590513 263.2956543 411.17944336 C261 412 261 412 257 412 C256.8443457 412.84788086 256.8443457 412.84788086 256.68554688 413.71289062 C255.28078964 421.06582494 253.44093405 428.27225396 251.5 435.5 C251.19191406 436.67820312 250.88382812 437.85640625 250.56640625 439.0703125 C250.26605469 440.19179688 249.96570313 441.31328125 249.65625 442.46875 C249.38619141 443.48388672 249.11613281 444.49902344 248.83789062 445.54492188 C248 448 248 448 246 450 C236.68557053 440.25234125 232.45032214 428.30120914 232.75 414.890625 C233.83694079 402.32287211 238.71181442 390.65405242 248 382 C254.78962073 376.62799239 262.19948538 372.78985575 270.65820312 370.94628906 C271.47067505 370.76841858 272.28314697 370.5905481 273.12023926 370.4072876 C274.05072083 370.20568024 274.05072083 370.20568024 275 370 C275.72033658 362.81493209 276.43137945 355.62898622 277.13623047 348.44238281 C277.37664731 346.00207122 277.61912364 343.56196156 277.86376953 341.12207031 C278.21680016 337.59752778 278.56220513 334.07230467 278.90625 330.546875 C279.0156189 329.4713739 279.12498779 328.3958728 279.2376709 327.28778076 C280.95415961 312.23626824 280.95415961 312.23626824 276.2890625 298.25390625 C275 296 275 296 274.23046875 293.53515625 C272.513781 289.99823451 269.78316803 288.14360651 266.6875 285.875 C265.40848405 284.90584874 264.13117796 283.93443737 262.85546875 282.9609375 C262.20884277 282.46948242 261.5622168 281.97802734 260.89599609 281.47167969 C258.01868889 279.23830242 255.25949752 276.87624582 252.5 274.5 C246.86661132 269.67680461 241.09288971 265.05973384 235.2265625 260.5234375 C233.2390258 258.98428722 231.31591624 257.41863152 229.3984375 255.7890625 C228.64820313 255.15742188 227.89796875 254.52578125 227.125 253.875 C226.50882812 253.33617187 225.89265625 252.79734375 225.2578125 252.2421875 C221.94168665 250.41774456 218.754899 250.41098161 215 250 C215.00444122 251.2946669 215.00888245 252.5893338 215.01345825 253.92323303 C215.0541577 266.17709876 215.08405765 278.43095061 215.10362434 290.68486881 C215.1140222 296.98338215 215.12810775 303.28184054 215.15087891 309.58032227 C215.17275063 315.66873648 215.18459862 321.75709813 215.18975449 327.84554863 C215.19342467 330.1581346 215.20059095 332.47071799 215.21146011 334.78328133 C215.37109901 370.18502812 208.1230957 400.80875242 182.8125 426.75 C173.84508854 435.61089937 156.49331959 451 143 451 C143.03480469 451.66644531 143.06960938 452.33289063 143.10546875 453.01953125 C143.46973493 465.42192734 140.45472579 475.05065921 131.9609375 484.1953125 C123.36227076 492.42937146 115.26909761 494.6299096 103.61352539 494.46655273 C93.28057061 494.04362954 86.74099805 490.66196354 79.265625 483.4921875 C70.3052985 473.63582835 68.56496399 463.93023691 69 451 C67.783125 450.649375 66.56625 450.29875 65.3125 449.9375 C39.67679556 441.29850869 19.61787053 420.33544708 7.66796875 396.65673828 C3.67562211 388.40102896 0.68975394 380.04050023 -1 371 C-1.16753784 370.14624283 -1.33507568 369.29248566 -1.50769043 368.41285706 C-3.54857484 356.39430898 -3.2517495 344.37979647 -3.1953125 332.2265625 C-3.19157562 329.8476066 -3.18873184 327.46864916 -3.18673706 325.08969116 C-3.17915374 318.87227012 -3.15955156 312.65494468 -3.1373291 306.43756104 C-3.11675564 300.07557467 -3.1077109 293.71357264 -3.09765625 287.3515625 C-3.07630003 274.901 -3.04222913 262.45050799 -3 250 C-4.59461288 250.27206369 -6.186988 250.55726254 -7.77832031 250.84790039 C-8.66529602 251.0052919 -9.55227173 251.16268341 -10.46612549 251.32484436 C-14.44351604 252.38462757 -16.84743867 254.62676114 -19.75 257.4375 C-20.94939046 258.53131903 -22.151283 259.62239984 -23.35546875 260.7109375 C-23.95794434 261.26233398 -24.56041992 261.81373047 -25.18115234 262.38183594 C-28.03203307 264.91816311 -31.03832402 267.23809153 -34.0625 269.5625 C-39.33451713 273.64458552 -44.46513938 277.85956785 -49.50561523 282.22460938 C-52.42954697 284.74134242 -55.39318669 286.96300084 -58.625 289.0625 C-62.52196758 291.86472197 -63.38031712 295.038824 -64.33203125 299.6328125 C-65 302 -65 302 -66.52575684 303.80633545 C-68.38458521 306.57226038 -68.34230045 308.15822728 -68.25585938 311.46582031 C-68.22838623 312.53014282 -68.20091309 313.59446533 -68.17260742 314.69104004 C-67.89599475 319.99382623 -67.44341015 325.26460234 -66.90625 330.546875 C-66.79526978 331.68408997 -66.68428955 332.82130493 -66.56994629 333.99298096 C-66.21872406 337.579213 -65.85950613 341.16458992 -65.5 344.75 C-65.25858252 347.20046847 -65.01769224 349.65098895 -64.77734375 352.1015625 C-64.19098317 358.06832246 -63.59807885 364.03440384 -63 370 C-62.17240677 370.20038376 -61.34481354 370.40076752 -60.49214172 370.60722351 C-59.4084581 370.87307755 -58.32477448 371.13893158 -57.20825195 371.4128418 C-55.59561211 371.80622993 -55.59561211 371.80622993 -53.95039368 372.20756531 C-41.57571257 375.53123248 -32.28677612 384.12684131 -26 395 C-20.09433559 408.1494703 -19.2258862 421.31895748 -24 435 C-26.79319275 441.2927101 -29.38102057 445.88576421 -35 450 C-37.6156007 441.84548017 -39.97735038 433.63072006 -42.25 425.375 C-42.52021973 424.40288574 -42.79043945 423.43077148 -43.06884766 422.42919922 C-43.31940918 421.51154785 -43.5699707 420.59389648 -43.828125 419.6484375 C-44.0540332 418.82520996 -44.27994141 418.00198242 -44.51269531 417.15380859 C-45 415 -45 415 -45 412 C-46.13695313 411.91105469 -47.27390625 411.82210938 -48.4453125 411.73046875 C-51.71410464 411.33640488 -54.31393831 410.54094636 -57.3046875 409.17578125 C-62.15349785 407.10307181 -66.65813541 405.3220984 -72 406 C-76.05794187 408.06728147 -79.09961612 410.80019737 -82.3125 414 C-83.11349121 414.78415283 -83.91448242 415.56830566 -84.73974609 416.3762207 C-87.63178348 419.59932111 -89.89318652 422.17338686 -90.15234375 426.60522461 C-89.66744965 429.51485507 -88.8982675 432.19055968 -88 435 C-87.42029352 437.22938455 -86.8449428 439.45990524 -86.2734375 441.69140625 C-85.64523425 443.98303935 -85.01237244 446.27340019 -84.375 448.5625 C-83.73477519 450.87569322 -83.09664057 453.1894663 -82.4609375 455.50390625 C-82.18040527 456.51267822 -81.89987305 457.5214502 -81.61083984 458.56079102 C-81 461 -81 461 -81 463 C-92.6350668 459.86430824 -102.67330291 453.13734677 -108.984375 442.7265625 C-112.56304416 436.1186012 -115.30223429 429.54620694 -116 422 C-116.10441406 420.93265625 -116.10441406 420.93265625 -116.2109375 419.84375 C-116.81176533 407.08771309 -111.87118066 396.09800611 -104.8125 385.8125 C-102.12027004 383.12027004 -99.41078603 381.04120288 -96.32421875 378.82421875 C-95.32865967 378.10709717 -94.33310059 377.38997559 -93.30737305 376.65112305 C-92.54593994 376.10625244 -91.78450684 375.56138184 -91 375 C-92.14789379 367.01430839 -93.32798236 359.03431612 -94.54882908 351.05948448 C-95.11480261 347.35573003 -95.669777 343.65102687 -96.19946289 339.94189453 C-96.7116108 336.35849653 -97.25284413 332.78058057 -97.81403923 329.20454788 C-98.02247595 327.84343706 -98.22060022 326.48070348 -98.40793037 325.11652756 C-99.44164562 316.2097936 -99.44164562 316.2097936 -104.57055664 309.26660156 C-105.71171079 308.50805989 -106.85457512 307.75207719 -108 307 C-109.7421875 304.5859375 -109.7421875 304.5859375 -110.875 302.375 C-111.26429687 301.64023437 -111.65359375 300.90546875 -112.0546875 300.1484375 C-115.03529835 293.37432193 -114.86274915 286.61487033 -112.25 279.75 C-108.90471787 272.26073516 -104.70696569 267.96421757 -97 265 C-94.83992779 264.6982841 -92.67179111 264.45066842 -90.5 264.25 C-82.92703325 263.31441203 -79.67262257 259.73959937 -75 254 C-73.79461376 252.62241572 -72.58644647 251.24725795 -71.375 249.875 C-70.81554687 249.22273437 -70.25609375 248.57046875 -69.6796875 247.8984375 C-67.47834607 245.41040974 -65.11911485 243.10805923 -62.75 240.78125 C-60.91757513 238.91610326 -59.20646865 236.98072254 -57.5 235 C-55.2544206 232.39352391 -52.95448488 229.91065479 -50.5 227.5 C-49.64341797 226.63955078 -49.64341797 226.63955078 -48.76953125 225.76171875 C-47.55829979 224.55583489 -46.32514471 223.37168646 -45.07421875 222.20703125 C-40.2776053 217.39055604 -39.29097332 213.64348767 -38.515625 206.96875 C-37.71224132 202.34320758 -35.59383007 198.85096244 -33 195 C-32.4225 194.113125 -31.845 193.22625 -31.25 192.3125 C-23.98812183 184.84890299 -15.29248167 181.21932276 -4.8828125 180.90625 C4.90937022 181.40457991 14.03122235 184.91790889 21 192 C21.23162842 192.64388672 21.46325684 193.28777344 21.7019043 193.95117188 C22.82033917 196.70897334 23.67120191 198.10341059 26 200 C32.09305088 201.19700417 38.12369952 201.07452823 44.3125 201 C46.02410952 201.00809425 47.73570609 201.01977365 49.44726562 201.03515625 C53.63403579 201.07168648 57.81084422 201.03400634 62 201 C62 192.09 62 183.18 62 174 C58.04 174 54.08 174 50 174 C35.57118511 171.4749574 22.73757215 163.38236473 14.21875 151.51953125 C10.87412356 146.23207034 8.86914051 140.94241036 7 135 C6.32420898 135.02094727 5.64841797 135.04189453 4.95214844 135.06347656 C1.88491746 135.14671643 -1.18207582 135.19868466 -4.25 135.25 C-5.31347656 135.28351563 -6.37695312 135.31703125 -7.47265625 135.3515625 C-8.49746094 135.36445313 -9.52226562 135.37734375 -10.578125 135.390625 C-11.52075195 135.41157227 -12.46337891 135.43251953 -13.43457031 135.45410156 C-16.82836218 134.85337327 -17.84461444 133.64969393 -20 131 C-20.50120544 128.53381348 -20.50120544 128.53381348 -20.50170898 125.74414062 C-20.51108994 124.69625366 -20.52047089 123.6483667 -20.53013611 122.56872559 C-20.51890213 121.44260864 -20.50766815 120.3164917 -20.49609375 119.15625 C-20.49754898 117.9950061 -20.49900421 116.83376221 -20.50050354 115.6373291 C-20.49884398 113.1828358 -20.48727655 110.72833215 -20.46655273 108.27392578 C-20.43760931 104.51419937 -20.44594151 100.75588352 -20.45898438 96.99609375 C-20.45274673 94.6119723 -20.44435559 92.22785532 -20.43359375 89.84375 C-20.43652939 88.71763306 -20.43946503 87.59151611 -20.44248962 86.43127441 C-20.42980545 85.38338745 -20.41712128 84.33550049 -20.40405273 83.25585938 C-20.39864975 82.33526733 -20.39324677 81.41467529 -20.38768005 80.46618652 C-19.9237186 77.51474374 -19.09826335 76.10995493 -17 74 C-16.01 74 -15.02 74 -14 74 C-14.01632114 67.43411561 -14.0712603 60.86935369 -14.15258789 54.30395508 C-14.17573189 52.07225829 -14.19015512 49.84045283 -14.19555664 47.60864258 C-14.20487216 44.39335695 -14.24592194 41.17977207 -14.29296875 37.96484375 C-14.2890361 36.97290512 -14.28510345 35.98096649 -14.28105164 34.95896912 C-14.42070997 28.27258896 -15.72575645 25.12992871 -20 20 C-21.1402525 14.78033482 -20.62324382 10.29265386 -18.3125 5.5 C-12.88379891 -0.36886604 -7.79399448 -1.04148825 0 0 Z " fill="#64B5F5" transform="translate(150,9)"/>
<path d="M0 0 C0.721875 0.825 1.44375 1.65 2.1875 2.5 C2.868125 3.221875 3.54875 3.94375 4.25 4.6875 C7.7493972 9.76727013 10.08558219 15.12677091 10.3515625 21.3203125 C10.97331178 26.84473965 14.55304722 29.82143511 18.375 33.5625 C19.84557786 35.06068201 21.3156203 36.55938974 22.78515625 38.05859375 C23.52652832 38.80351074 24.26790039 39.54842773 25.03173828 40.31591797 C27.60806753 42.92609254 30.11483524 45.59358003 32.60668945 48.28417969 C33.74337312 49.51082844 34.88646496 50.73157014 36.03588867 51.94628906 C39.02939076 55.11592944 41.90568789 58.33499 44.6796875 61.69921875 C51.90524435 70.59662264 51.90524435 70.59662264 62.5 74.0625 C64.22476563 74.13597656 64.22476563 74.13597656 65.984375 74.2109375 C71.86609947 74.74172727 75.88569313 77.9770836 79.7734375 82.23828125 C84.97906652 89.02365318 86.13318194 96.09393835 85.1875 104.5 C83.35301948 110.846311 79.84957178 117.22357919 74.11700439 120.7870636 C71.43804015 123.16534032 71.35669462 125.02088229 70.81542969 128.53198242 C70.61552429 129.77304245 70.4156189 131.01410248 70.20965576 132.29277039 C70.00919463 133.64694882 69.80910986 135.00118301 69.609375 136.35546875 C69.39238633 137.74147154 69.17387975 139.12723747 68.95391846 140.51277161 C68.37983161 144.1552353 67.82640441 147.80054832 67.27722168 151.44683838 C66.71288389 155.1689736 66.12906317 158.88804465 65.546875 162.60742188 C64.40799435 169.90208888 63.29092221 177.19987591 62.1875 184.5 C62.95042862 185.04419083 63.71335724 185.58838165 64.49940491 186.14906311 C65.49612717 186.86565598 66.49284943 187.58224884 67.51977539 188.32055664 C68.50957901 189.02974747 69.49938263 189.73893829 70.5191803 190.46961975 C79.70677509 197.46065272 84.96541535 208.86642246 86.87109375 220.04296875 C88.49552306 232.65736424 85.4986438 245.05329135 78.1875 255.5 C71.55154013 263.82244691 63.92621694 268.54691866 54.1875 272.5 C53.5275 272.5 52.8675 272.5 52.1875 272.5 C52.74636124 270.06161661 53.30894756 267.62421843 53.875 265.1875 C54.04926514 264.43509033 54.22353027 263.68268066 54.40307617 262.9074707 C55.39632142 258.67672409 56.45051621 254.47199813 57.6015625 250.28125 C57.83399658 249.43087158 58.06643066 248.58049316 58.3059082 247.7043457 C58.7622726 246.04952314 59.22673086 244.3969076 59.69995117 242.74682617 C59.9085376 241.98861572 60.11712402 241.23040527 60.33203125 240.44921875 C60.52128174 239.78237061 60.71053223 239.11552246 60.90551758 238.4284668 C61.38178021 235.17132523 60.59681114 233.1596917 58.87841797 230.39013672 C54.46021841 224.64101646 49.82063032 218.71372132 43.1875 215.5 C35.92412944 215.01782877 29.0587661 217.84590513 22.4831543 220.67944336 C20.1875 221.5 20.1875 221.5 16.1875 221.5 C16.08373047 222.06525391 15.97996094 222.63050781 15.87304688 223.21289062 C14.46828964 230.56582494 12.62843405 237.77225396 10.6875 245 C10.37941406 246.17820312 10.07132813 247.35640625 9.75390625 248.5703125 C9.45355469 249.69179688 9.15320313 250.81328125 8.84375 251.96875 C8.57369141 252.98388672 8.30363281 253.99902344 8.02539062 255.04492188 C7.1875 257.5 7.1875 257.5 5.1875 259.5 C-4.12692947 249.75234125 -8.36217786 237.80120914 -8.0625 224.390625 C-6.97555921 211.82287211 -2.10068558 200.15405242 7.1875 191.5 C13.97712073 186.12799239 21.38698538 182.28985575 29.84570312 180.44628906 C31.06441101 180.17948334 31.06441101 180.17948334 32.30773926 179.9072876 C32.9280603 179.77288269 33.54838135 179.63847778 34.1875 179.5 C34.90783658 172.31493209 35.61887945 165.12898622 36.32373047 157.94238281 C36.56414731 155.50207122 36.80662364 153.06196156 37.05126953 150.62207031 C37.40430016 147.09752778 37.74970513 143.57230467 38.09375 140.046875 C38.25780334 138.43362335 38.25780334 138.43362335 38.4251709 136.78778076 C40.14165961 121.73626824 40.14165961 121.73626824 35.4765625 107.75390625 C34.1875 105.5 34.1875 105.5 33.41796875 103.03515625 C31.701281 99.49823451 28.97066803 97.64360651 25.875 95.375 C24.59598405 94.40584874 23.31867796 93.43443737 22.04296875 92.4609375 C21.39634277 91.96948242 20.7497168 91.47802734 20.08349609 90.97167969 C17.20618889 88.73830242 14.44699752 86.37624582 11.6875 84 C6.05411132 79.17680461 0.28038971 74.55973384 -5.5859375 70.0234375 C-7.5734742 68.48428722 -9.49658376 66.91863152 -11.4140625 65.2890625 C-12.16429687 64.65742188 -12.91453125 64.02578125 -13.6875 63.375 C-14.30367187 62.83617187 -14.91984375 62.29734375 -15.5546875 61.7421875 C-18.87081335 59.91774456 -22.057601 59.91098161 -25.8125 59.5 C-25.80805878 60.7946669 -25.80361755 62.0893338 -25.79904175 63.42323303 C-25.7583423 75.67709876 -25.72844235 87.93095061 -25.70887566 100.18486881 C-25.6984778 106.48338215 -25.68439225 112.78184054 -25.66162109 119.08032227 C-25.63974937 125.16873648 -25.62790138 131.25709813 -25.62274551 137.34554863 C-25.61907533 139.6581346 -25.61190905 141.97071799 -25.60103989 144.28328133 C-25.44140099 179.68502812 -32.6894043 210.30875242 -58 236.25 C-66.96741146 245.11089937 -84.31918041 260.5 -97.8125 260.5 C-97.76029297 261.49966797 -97.76029297 261.49966797 -97.70703125 262.51953125 C-97.34276507 274.92192734 -100.35777421 284.55065921 -108.8515625 293.6953125 C-117.45022924 301.92937146 -125.54340239 304.1299096 -137.19897461 303.96655273 C-147.53192939 303.54362954 -154.07150195 300.16196354 -161.546875 292.9921875 C-170.5072015 283.13582835 -172.24753601 273.43023691 -171.8125 260.5 C-170.88953125 260.78875 -169.9665625 261.0775 -169.015625 261.375 C-154.14123554 265.72465553 -138.63750788 266.5437699 -123.8125 261.5 C-122.73226562 261.17128906 -121.65203125 260.84257812 -120.5390625 260.50390625 C-106.39222957 255.91015938 -93.78190999 248.55667542 -82.8125 238.5 C-81.42611328 237.23542969 -81.42611328 237.23542969 -80.01171875 235.9453125 C-60.67974808 217.49571393 -48.2724344 191.21765573 -47.53161621 164.39016724 C-47.50800798 162.26947538 -47.49465045 160.14865069 -47.49023438 158.02783203 C-47.48030457 156.8569957 -47.47037476 155.68615936 -47.46014404 154.47984314 C-47.43123169 150.6558081 -47.41736119 146.83193826 -47.40625 143.0078125 C-47.39764597 141.00805958 -47.3890408 139.00830667 -47.380301 137.00855434 C-47.35680871 131.45241908 -47.34164722 125.89632315 -47.3347106 120.34014332 C-47.32571942 113.1819899 -47.29043359 106.0245946 -47.23270941 98.86667168 C-47.18943205 93.30539639 -47.1693005 87.7443345 -47.16662836 82.18289268 C-47.16453929 78.87207745 -47.1499468 75.56214202 -47.11698914 72.25146866 C-47.08287998 68.56565644 -47.08662098 64.88170673 -47.09960938 61.19580078 C-47.08117981 60.10995193 -47.06275024 59.02410309 -47.04376221 57.90534973 C-47.10073396 52.74464096 -47.32268301 49.43141266 -50.76574707 45.43356323 C-51.29924019 44.9199568 -51.83273331 44.40635036 -52.38239288 43.8771801 C-57.15593992 39.28029788 -58.09357329 31.4228734 -58.375 25.125 C-58.07897524 15.93726862 -54.93285682 7.38540142 -48.8125 0.5 C-34.76481513 -12.30818326 -14.33479898 -12.74204354 0 0 Z " fill="#8D9CA8" transform="translate(390.8125,199.5)"/>
<path d="M0 0 C6.38768827 5.0669734 10.16575702 12.30441214 11.75 20.25 C12.88231145 31.24170631 10.74693347 40.55110975 3.75 49.25 C-2.8232455 56.4259098 -10.21733259 60.81766389 -20.109375 61.42578125 C-21.02203125 61.45027344 -21.9346875 61.47476563 -22.875 61.5 C-29.70938784 61.93082101 -33.37125806 65.78921882 -38.25 70.25 C-39.94994887 71.65603247 -41.65861315 73.05158166 -43.375 74.4375 C-44.28507812 75.18386719 -45.19515625 75.93023437 -46.1328125 76.69921875 C-50.51563865 80.29026221 -54.91778877 83.85757403 -59.31762695 87.42773438 C-64.26677667 91.44539802 -69.19707313 95.48502667 -74.11328125 99.54296875 C-76.25 101.25 -76.25 101.25 -79.25 103.25 C-80.15645319 105.52801242 -80.15645319 105.52801242 -80.75 108.125 C-81.94463497 112.88931803 -81.94463497 112.88931803 -83.78674316 115.06512451 C-85.63492991 117.82476166 -85.59202416 119.41879933 -85.50585938 122.71582031 C-85.47838623 123.78014282 -85.45091309 124.84446533 -85.42260742 125.94104004 C-85.14599475 131.24382623 -84.69341015 136.51460234 -84.15625 141.796875 C-84.04526978 142.93408997 -83.93428955 144.07130493 -83.81994629 145.24298096 C-83.46872406 148.829213 -83.10950613 152.41458992 -82.75 156 C-82.50858252 158.45046847 -82.26769224 160.90098895 -82.02734375 163.3515625 C-81.44098317 169.31832246 -80.84807885 175.28440384 -80.25 181.25 C-79.42240677 181.45038376 -78.59481354 181.65076752 -77.74214172 181.85722351 C-76.6584581 182.12307755 -75.57477448 182.38893158 -74.45825195 182.6628418 C-73.38315872 182.92510056 -72.30806549 183.18735931 -71.20039368 183.45756531 C-58.82571257 186.78123248 -49.53677612 195.37684131 -43.25 206.25 C-37.34433559 219.3994703 -36.4758862 232.56895748 -41.25 246.25 C-44.04319275 252.5427101 -46.63102057 257.13576421 -52.25 261.25 C-54.8656007 253.09548017 -57.22735038 244.88072006 -59.5 236.625 C-59.77021973 235.65288574 -60.04043945 234.68077148 -60.31884766 233.67919922 C-60.56940918 232.76154785 -60.8199707 231.84389648 -61.078125 230.8984375 C-61.3040332 230.07520996 -61.52994141 229.25198242 -61.76269531 228.40380859 C-62.25 226.25 -62.25 226.25 -62.25 223.25 C-63.38695313 223.16105469 -64.52390625 223.07210937 -65.6953125 222.98046875 C-68.96410464 222.58640488 -71.56393831 221.79094636 -74.5546875 220.42578125 C-79.40349785 218.35307181 -83.90813541 216.5720984 -89.25 217.25 C-93.30794187 219.31728147 -96.34961612 222.05019737 -99.5625 225.25 C-100.36349121 226.03415283 -101.16448242 226.81830566 -101.98974609 227.6262207 C-104.88178348 230.84932111 -107.14318652 233.42338686 -107.40234375 237.85522461 C-106.91744965 240.76485507 -106.1482675 243.44055968 -105.25 246.25 C-104.67029352 248.47938455 -104.0949428 250.70990524 -103.5234375 252.94140625 C-102.89523425 255.23303935 -102.26237244 257.52340019 -101.625 259.8125 C-100.98477519 262.12569322 -100.34664057 264.4394663 -99.7109375 266.75390625 C-99.43040527 267.76267822 -99.14987305 268.7714502 -98.86083984 269.81079102 C-98.25 272.25 -98.25 272.25 -98.25 274.25 C-109.8850668 271.11430824 -119.92330291 264.38734677 -126.234375 253.9765625 C-129.81304416 247.3686012 -132.55223429 240.79620694 -133.25 233.25 C-133.31960937 232.5384375 -133.38921875 231.826875 -133.4609375 231.09375 C-134.06176533 218.33771309 -129.12118066 207.34800611 -122.0625 197.0625 C-119.37027004 194.37027004 -116.66078603 192.29120288 -113.57421875 190.07421875 C-112.57865967 189.35709717 -111.58310059 188.63997559 -110.55737305 187.90112305 C-109.79593994 187.35625244 -109.03450684 186.81138184 -108.25 186.25 C-109.39789379 178.26430839 -110.57798236 170.28431612 -111.79882908 162.30948448 C-112.36480261 158.60573003 -112.919777 154.90102687 -113.44946289 151.19189453 C-113.9616108 147.60849653 -114.50284413 144.03058057 -115.06403923 140.45454788 C-115.27247595 139.09343706 -115.47060022 137.73070348 -115.65793037 136.36652756 C-116.69164562 127.4597936 -116.69164562 127.4597936 -121.82055664 120.51660156 C-122.96171079 119.75805989 -124.10457512 119.00207719 -125.25 118.25 C-126.9921875 115.8359375 -126.9921875 115.8359375 -128.125 113.625 C-128.51429688 112.89023437 -128.90359375 112.15546875 -129.3046875 111.3984375 C-132.28529835 104.62432193 -132.11274915 97.86487033 -129.5 91 C-126.15471787 83.51073516 -121.95696569 79.21421757 -114.25 76.25 C-112.08992779 75.9482841 -109.92179111 75.70066842 -107.75 75.5 C-100.17703325 74.56441203 -96.92262257 70.98959937 -92.25 65.25 C-91.04461376 63.87241572 -89.83644647 62.49725795 -88.625 61.125 C-88.06554687 60.47273438 -87.50609375 59.82046875 -86.9296875 59.1484375 C-84.72834607 56.66040974 -82.36911485 54.35805923 -80 52.03125 C-78.16757513 50.16610326 -76.45646865 48.23072254 -74.75 46.25 C-72.5044206 43.64352391 -70.20448488 41.16065479 -67.75 38.75 C-67.17894531 38.17636719 -66.60789062 37.60273438 -66.01953125 37.01171875 C-64.80829979 35.80583489 -63.57514471 34.62168646 -62.32421875 33.45703125 C-57.5276053 28.64055604 -56.54097332 24.89348767 -55.765625 18.21875 C-54.96224132 13.59320758 -52.84383007 10.10096244 -50.25 6.25 C-49.38375 4.9196875 -49.38375 4.9196875 -48.5 3.5625 C-34.86282286 -10.45348761 -15.61028729 -10.68838701 0 0 Z " fill="#8C9CA7" transform="translate(167.25,197.75)"/>
<path d="M0 0 C0.92860336 -0.0065712 1.85720673 -0.0131424 2.81394958 -0.01991272 C5.89574254 -0.03966964 8.97748673 -0.05131333 12.05932617 -0.0612793 C13.11037725 -0.06535482 14.16142834 -0.06943035 15.24432945 -0.07362938 C20.80676452 -0.09449982 26.36917485 -0.10879762 31.93164062 -0.11816406 C37.68200987 -0.1292336 43.43199269 -0.16363721 49.18222523 -0.20333576 C53.59942859 -0.22945895 58.01653927 -0.23785206 62.4338131 -0.24144554 C64.55372415 -0.24632222 66.67363077 -0.2579668 68.79346657 -0.27648354 C71.75975953 -0.30078439 74.7250446 -0.29992645 77.69140625 -0.29296875 C79.00623489 -0.31218384 79.00623489 -0.31218384 80.34762573 -0.33178711 C84.44712643 -0.29671908 86.5150062 -0.15372876 90.06156921 2.08137512 C93.17239066 5.37681348 93.17144339 7.29904555 93.20092773 11.74072266 C93.21053528 12.9056575 93.22014282 14.07059235 93.2300415 15.27082825 C93.23429138 16.53537338 93.23854126 17.79991852 93.24291992 19.1027832 C93.24862 20.39766159 93.25432007 21.69253998 93.26019287 23.0266571 C93.2707029 25.77135613 93.2765452 28.51602587 93.2800293 31.26074219 C93.285507 34.77134353 93.30951892 38.28155564 93.33800125 41.7920351 C93.36115246 45.14561029 93.36307927 48.49913224 93.36791992 51.8527832 C93.38026672 53.11125565 93.39261353 54.36972809 93.40533447 55.66633606 C93.40233337 56.84072739 93.39933228 58.01511871 93.39624023 59.22509766 C93.40170868 60.77158745 93.40170868 60.77158745 93.4072876 62.34931946 C92.98016147 65.63585319 91.9859848 67.51706459 90.03979492 70.17700195 C86.58470362 71.90454761 82.59265297 71.35210791 78.78833008 71.36987305 C77.82885971 71.37805054 76.86938934 71.38622803 75.88084412 71.39465332 C72.69685496 71.41952364 69.51291038 71.43602589 66.32885742 71.45043945 C65.2434605 71.45576313 64.15806358 71.46108681 63.03977585 71.46657181 C57.29695084 71.49330812 51.55414763 71.51268313 45.8112793 71.52709961 C39.87016133 71.54376559 33.92959613 71.5885587 27.98868752 71.63947105 C23.42826678 71.67306933 18.86797857 71.68466882 14.30744553 71.69032669 C12.11691428 71.69705769 9.9263923 71.71232736 7.73598099 71.7362175 C4.67354014 71.7677177 1.61260808 71.76792861 -1.44995117 71.76049805 C-2.35815109 71.77690338 -3.26635101 71.79330872 -4.20207214 71.81021118 C-10.28145925 71.74969097 -10.28145925 71.74969097 -13.52224731 69.01528931 C-15.15168605 65.79905063 -15.4667831 63.77473967 -15.4777832 60.1809082 C-15.49039185 58.9961792 -15.50300049 57.8114502 -15.51599121 56.59082031 C-15.50789429 55.31988525 -15.49979736 54.0489502 -15.49145508 52.73950195 C-15.49528198 51.42667236 -15.49910889 50.11384277 -15.50305176 48.76123047 C-15.50893674 45.98719381 -15.50041727 43.21367369 -15.48168945 40.43969727 C-15.45889916 36.89194114 -15.47202781 33.34539547 -15.49597931 29.79768372 C-15.51394643 26.40319391 -15.50135013 23.0090261 -15.49145508 19.61450195 C-15.499552 18.34356689 -15.50764893 17.07263184 -15.51599121 15.76318359 C-15.50338257 14.57845459 -15.49077393 13.39372559 -15.4777832 12.1730957 C-15.47460083 11.13338623 -15.47141846 10.09367676 -15.46813965 9.02246094 C-14.83110456 5.45377841 -13.44129371 3.77083445 -10.96020508 1.17700195 C-7.5746633 -0.51576894 -3.72517442 0.01134869 0 0 Z " fill="#E5F7FE" transform="translate(216.960205078125,252.822998046875)"/>
<path d="M0 0 C0.97622314 0.61705811 0.97622314 0.61705811 1.97216797 1.24658203 C6.59766156 4.10794977 10.77080907 6.63941748 16.125 7.875 C17.05570313 8.09929687 17.98640625 8.32359375 18.9453125 8.5546875 C19.62335938 8.70164062 20.30140625 8.84859375 21 9 C21.04652172 22.56160809 21.08196947 36.12319691 21.10362434 49.68486881 C21.1140222 55.98338215 21.12810775 62.28184054 21.15087891 68.58032227 C21.17275063 74.66873648 21.18459862 80.75709813 21.18975449 86.84554863 C21.19342467 89.1581346 21.20059095 91.47071799 21.21146011 93.78328133 C21.37109901 129.18502812 14.1230957 159.80875242 -11.1875 185.75 C-20.15491146 194.61089937 -37.50668041 210 -51 210 C-50.94779297 210.99966797 -50.94779297 210.99966797 -50.89453125 212.01953125 C-50.53026507 224.42192734 -53.54527421 234.05065921 -62.0390625 243.1953125 C-70.63772924 251.42937146 -78.73090239 253.6299096 -90.38647461 253.46655273 C-100.71942939 253.04362954 -107.25900195 249.66196354 -114.734375 242.4921875 C-123.6947015 232.63582835 -125.43503601 222.93023691 -125 210 C-124.07703125 210.28875 -123.1540625 210.5775 -122.203125 210.875 C-107.32873554 215.22465553 -91.82500788 216.0437699 -77 211 C-75.37964844 210.50693359 -75.37964844 210.50693359 -73.7265625 210.00390625 C-59.57972957 205.41015938 -46.96940999 198.05667542 -36 188 C-34.61361328 186.73542969 -34.61361328 186.73542969 -33.19921875 185.4453125 C-13.86863267 166.99703533 -1.44995422 140.70935768 -0.7215271 113.88102722 C-0.69845117 111.75694917 -0.68541948 109.63274404 -0.68115234 107.50854492 C-0.67110672 106.33621811 -0.6610611 105.1638913 -0.65071106 103.95603943 C-0.62013878 100.13085361 -0.60291669 96.30573691 -0.5859375 92.48046875 C-0.56720492 89.80860928 -0.54772324 87.13676568 -0.5272522 84.46492004 C-0.48074364 78.18259349 -0.44386586 71.90025008 -0.41057932 65.61784106 C-0.3721587 58.45679944 -0.32280188 51.29584569 -0.27259517 44.13487852 C-0.16969147 29.42332047 -0.08029798 14.71169925 0 0 Z " fill="#43A5F4" transform="translate(344,250)"/>
<path d="M0 0 C4.43118719 2.13646525 7.2290203 4.37577522 9 9 C9.52733644 12.77924446 9.7634722 16.25295882 9 20 C7.76600464 21.48342896 7.76600464 21.48342896 6.50708008 22.99682617 C3.05711372 27.71123894 3.2704828 32.2931722 3.29296875 37.96484375 C3.27028679 39.51480797 3.27028679 39.51480797 3.24714661 41.09608459 C3.20436727 44.37678009 3.19544068 47.65655371 3.1875 50.9375 C3.16434823 53.16994622 3.13898148 55.40237063 3.11132812 57.63476562 C3.04857248 63.08985259 3.0135608 68.54458074 3 74 C3.61875 74.103125 4.2375 74.20625 4.875 74.3125 C7 75 7 75 9 78 C9.26742554 80.34593201 9.26742554 80.34593201 9.29052734 83.14233398 C9.30328705 84.19029648 9.31604675 85.23825897 9.32919312 86.31797791 C9.33141876 87.44925613 9.33364441 88.58053436 9.3359375 89.74609375 C9.3459227 91.49008202 9.3459227 91.49008202 9.35610962 93.26930237 C9.36624108 95.72973039 9.37092649 98.19018591 9.37060547 100.65063477 C9.37497881 104.41924183 9.41129589 108.18667834 9.44921875 111.95507812 C9.45508665 114.34374599 9.45905622 116.73241942 9.4609375 119.12109375 C9.47530853 120.25034775 9.48967957 121.37960175 9.50448608 122.54307556 C9.49833282 123.59419022 9.49217957 124.64530487 9.48583984 125.72827148 C9.48868988 126.65187973 9.49153992 127.57548798 9.49447632 128.52708435 C8.84642693 131.7680312 7.55076646 132.96547184 5 135 C2.43457031 135.45410156 2.43457031 135.45410156 -0.421875 135.390625 C-1.44667969 135.37773437 -2.47148437 135.36484375 -3.52734375 135.3515625 C-5.12255859 135.30128906 -5.12255859 135.30128906 -6.75 135.25 C-7.82894531 135.23195312 -8.90789062 135.21390625 -10.01953125 135.1953125 C-12.68058788 135.14821415 -15.33984254 135.082456 -18 135 C-18.1861084 135.59167969 -18.3722168 136.18335938 -18.56396484 136.79296875 C-23.47425471 152.02387418 -32.4339644 161.37695827 -46.1796875 169.2734375 C-54.54348046 173.37128029 -63.12135711 174.44601098 -72.32373047 174.40405273 C-73.39685486 174.41091599 -74.46997925 174.41777924 -75.57562256 174.42485046 C-79.08961578 174.44300966 -82.60315785 174.43929619 -86.1171875 174.43359375 C-88.58139184 174.43816092 -91.0455949 174.44346807 -93.50979614 174.44947815 C-98.66234528 174.45838807 -103.81473924 174.45601037 -108.96728516 174.44604492 C-115.54281477 174.43456132 -122.11780686 174.45476906 -128.69326591 174.48396206 C-133.77905635 174.50238241 -138.86471937 174.50201988 -143.95053482 174.49632454 C-146.37362547 174.49617202 -148.79672515 174.50215818 -151.21978378 174.51461601 C-169.71087786 174.59629998 -185.92600159 173.65572348 -200.52734375 160.76953125 C-202.41614894 158.89400413 -204.23841652 156.99473424 -206 155 C-205.505 154.01 -205.505 154.01 -205 153 C-204.09378906 153.48210937 -203.18757812 153.96421875 -202.25390625 154.4609375 C-201.02372188 155.09950649 -199.79323666 155.73749612 -198.5625 156.375 C-197.67401367 156.85066406 -197.67401367 156.85066406 -196.76757812 157.3359375 C-188.5297724 161.56497145 -180.37825512 162.30007142 -171.22631836 162.30639648 C-170.18756561 162.31472 -169.14881287 162.32304352 -168.07858276 162.33161926 C-164.66563087 162.35558992 -161.25287074 162.3644769 -157.83984375 162.37109375 C-155.44722949 162.38007193 -153.05461576 162.38919398 -150.66200256 162.39845276 C-145.65136354 162.4149117 -140.64079107 162.42263688 -135.63012695 162.42553711 C-129.24757883 162.4309086 -122.86566724 162.46855218 -116.4832983 162.51428127 C-111.54065234 162.54420674 -106.59815656 162.55126408 -101.65542793 162.55226326 C-99.30457211 162.55643707 -96.95371465 162.56875538 -94.60294914 162.58978081 C-75.52686478 162.74678267 -58.24266635 161.36819018 -43.5390625 147.71484375 C-28.83562321 132.30309925 -27.45564558 115.5736088 -27.49902344 95.28051758 C-27.49999707 92.07216957 -27.458233 88.86620848 -27.4140625 85.65820312 C-27.32948027 71.2985611 -28.61989655 60.05701917 -37 48 C-36.67 47.34 -36.34 46.68 -36 46 C-27.58024517 53.82072089 -20.49484897 61.52369473 -18 73 C-16.68 73 -15.36 73 -14 73 C-14.01630585 66.55820904 -14.07119273 60.11756455 -14.15258789 53.67626953 C-14.17574823 51.48624099 -14.19015897 49.29610138 -14.19555664 47.10595703 C-14.20486025 43.95274801 -14.24588353 40.80128126 -14.29296875 37.6484375 C-14.28706978 36.1855983 -14.28706978 36.1855983 -14.28105164 34.69320679 C-14.41766148 28.29148929 -15.43955465 25.50980828 -20 21 C-21.58186586 16.50537154 -21.20992164 12.71140113 -19.875 8.1875 C-15.06166912 0.0048375 -8.8411503 -0.89910003 0 0 Z " fill="#43A5F4" transform="translate(373,9)"/>
<path d="M0 0 C9.23345386 7.25926328 13.96543244 17.47501102 16.75390625 28.62890625 C17.87177378 42.04331663 16.00325374 54.4224471 8.00390625 65.62890625 C5.30859375 67.94140625 5.30859375 67.94140625 3.00390625 69.62890625 C0.38830555 61.47438642 -1.97344413 53.25962631 -4.24609375 45.00390625 C-4.51631348 44.03179199 -4.7865332 43.05967773 -5.06494141 42.05810547 C-5.31550293 41.1404541 -5.56606445 40.22280273 -5.82421875 39.27734375 C-6.05012695 38.45411621 -6.27603516 37.63088867 -6.50878906 36.78271484 C-6.99609375 34.62890625 -6.99609375 34.62890625 -6.99609375 31.62890625 C-8.13304688 31.53996094 -9.27 31.45101562 -10.44140625 31.359375 C-13.71019839 30.96531113 -16.31003206 30.16985261 -19.30078125 28.8046875 C-24.1495916 26.73197806 -28.65422916 24.95100465 -33.99609375 25.62890625 C-38.05403562 27.69618772 -41.09570987 30.42910362 -44.30859375 33.62890625 C-45.10958496 34.41305908 -45.91057617 35.19721191 -46.73583984 36.00512695 C-49.62787723 39.22822736 -51.88928027 41.80229311 -52.1484375 46.23413086 C-51.6635434 49.14376132 -50.89436125 51.81946593 -49.99609375 54.62890625 C-49.41638727 56.8582908 -48.84103655 59.08881149 -48.26953125 61.3203125 C-47.641328 63.6119456 -47.00846619 65.90230644 -46.37109375 68.19140625 C-45.73086894 70.50459947 -45.09273432 72.81837255 -44.45703125 75.1328125 C-44.17649902 76.14158447 -43.8959668 77.15035645 -43.60693359 78.18969727 C-42.99609375 80.62890625 -42.99609375 80.62890625 -42.99609375 82.62890625 C-54.63116055 79.49321449 -64.66939666 72.76625302 -70.98046875 62.35546875 C-74.55913791 55.74750745 -77.29832804 49.17511319 -77.99609375 41.62890625 C-78.06570312 40.91734375 -78.1353125 40.20578125 -78.20703125 39.47265625 C-78.808871 26.69513532 -73.86115013 15.65620991 -66.74609375 5.37890625 C-47.82571627 -13.54147123 -21.51330528 -14.777241 0 0 Z " fill="#8C9CA8" transform="translate(111.99609375,389.37109375)"/>
<path d="M0 0 C10.30551008 8.26109715 16.2149299 20.54633832 17.875 33.4375 C19.20225795 46.40737154 14.78609489 59.0241379 6.75390625 69.09765625 C0.44548634 75.96544344 -6.55692491 79.95959855 -15.125 83.4375 C-15.785 83.4375 -16.445 83.4375 -17.125 83.4375 C-16.56613876 80.99911661 -16.00355244 78.56171843 -15.4375 76.125 C-15.26323486 75.37259033 -15.08896973 74.62018066 -14.90942383 73.8449707 C-13.91617858 69.61422409 -12.86198379 65.40949813 -11.7109375 61.21875 C-11.47850342 60.36837158 -11.24606934 59.51799316 -11.0065918 58.6418457 C-10.5502274 56.98702314 -10.08576914 55.3344076 -9.61254883 53.68432617 C-9.4039624 52.92611572 -9.19537598 52.16790527 -8.98046875 51.38671875 C-8.79121826 50.71987061 -8.60196777 50.05302246 -8.40698242 49.3659668 C-7.93071979 46.10882523 -8.71568886 44.0971917 -10.43408203 41.32763672 C-14.85228159 35.57851646 -19.49186968 29.65122132 -26.125 26.4375 C-33.38837056 25.95532877 -40.2537339 28.78340513 -46.8293457 31.61694336 C-49.125 32.4375 -49.125 32.4375 -53.125 32.4375 C-53.22876953 33.00275391 -53.33253906 33.56800781 -53.43945312 34.15039062 C-54.84421036 41.50332494 -56.68406595 48.70975396 -58.625 55.9375 C-58.93308594 57.11570312 -59.24117188 58.29390625 -59.55859375 59.5078125 C-59.85894531 60.62929688 -60.15929687 61.75078125 -60.46875 62.90625 C-60.87383789 64.42895508 -60.87383789 64.42895508 -61.28710938 65.98242188 C-62.125 68.4375 -62.125 68.4375 -64.125 70.4375 C-73.43942947 60.68984125 -77.67467786 48.73870914 -77.375 35.328125 C-76.28805921 22.76037211 -71.41318558 11.09155242 -62.125 2.4375 C-43.76225906 -12.09126206 -19.62928883 -13.2898687 0 0 Z " fill="#8C9BA7" transform="translate(460.125,388.5625)"/>
<path d="M0 0 C6.38768827 5.0669734 10.16575702 12.30441214 11.75 20.25 C12.88231145 31.24170631 10.74693347 40.55110975 3.75 49.25 C-3.63882859 57.31626917 -11.89358324 61.25366478 -22.875 61.75 C-33.08070945 61.3376481 -41.59560856 56.26366325 -48.4375 48.9375 C-55.29000824 40.97342076 -56.63230332 32.9342495 -56.52734375 22.6015625 C-55.77694399 13.53335126 -51.07383167 5.47924406 -44.28515625 -0.47265625 C-30.37396174 -10.71109416 -13.77827487 -9.43400537 0 0 Z " fill="#8C9BA8" transform="translate(167.25,197.75)"/>
<path d="M0 0 C0.721875 0.825 1.44375 1.65 2.1875 2.5 C2.868125 3.221875 3.54875 3.94375 4.25 4.6875 C10.06298242 13.12570029 11.27466932 21.37215951 10.1875 31.5 C8.29306681 41.09762509 2.80030888 48.56734115 -5.1875 54.1640625 C-7.3562835 55.41697459 -9.52015532 56.49435454 -11.8125 57.5 C-12.740625 57.933125 -13.66875 58.36625 -14.625 58.8125 C-23.75348072 60.781388 -32.57042685 60.00005162 -40.8125 55.5 C-46.89695197 51.05465992 -51.68659983 46.37698037 -54.8125 39.5 C-55.10769531 38.92121094 -55.40289062 38.34242188 -55.70703125 37.74609375 C-59.60382714 29.22296485 -58.71802584 20.09978184 -55.5625 11.5 C-52.21276012 3.22903732 -46.76055035 -2.51444759 -38.796875 -6.51171875 C-25.36295753 -11.93288623 -10.82617178 -9.6232638 0 0 Z " fill="#8C9CA8" transform="translate(390.8125,199.5)"/>
<path d="M0 0 C3.90863741 1.95431871 6.98579156 4.07759409 9 8 C10.55982223 14.21510564 10.12007447 18.42843844 7 24 C6.47782394 24.46533646 5.95564789 24.93067291 5.41764832 25.41011047 C3.53695628 27.51930253 3.60597076 28.76413448 3.56762695 31.56323242 C3.54783279 32.48396042 3.52803864 33.40468842 3.50764465 34.35331726 C3.49805977 35.83938225 3.49805977 35.83938225 3.48828125 37.35546875 C3.47033005 38.37224197 3.45237885 39.3890152 3.43388367 40.43659973 C3.3796646 43.68685752 3.34584741 46.9369675 3.3125 50.1875 C3.27933721 52.38999458 3.24484853 54.59246963 3.20898438 56.79492188 C3.12393168 62.19648204 3.05563102 67.59806106 3 73 C4.32 73 5.64 73 7 73 C6.83773926 74.26440918 6.67547852 75.52881836 6.50830078 76.83154297 C5.92242187 82.12925773 5.85569219 87.36978086 5.8671875 92.6953125 C5.86623077 93.68699432 5.86527405 94.67867615 5.86428833 95.70040894 C5.8636119 97.78285791 5.86542847 99.86530906 5.86962891 101.94775391 C5.87499623 105.12276968 5.86965973 108.29764475 5.86328125 111.47265625 C5.8639419 113.50520864 5.8652228 115.53776095 5.8671875 117.5703125 C5.86516327 118.51214386 5.86313904 119.45397522 5.86105347 120.42434692 C5.87861637 125.39083187 6.15475882 130.10398035 7 135 C3.25026094 135.11622939 -0.49901464 135.1872595 -4.25 135.25 C-5.31347656 135.28351563 -6.37695312 135.31703125 -7.47265625 135.3515625 C-8.49746094 135.36445313 -9.52226562 135.37734375 -10.578125 135.390625 C-11.52075195 135.41157227 -12.46337891 135.43251953 -13.43457031 135.45410156 C-16.82836218 134.85337327 -17.84461444 133.64969393 -20 131 C-20.50120544 128.53381348 -20.50120544 128.53381348 -20.50170898 125.74414062 C-20.51578041 124.17231018 -20.51578041 124.17231018 -20.53013611 122.56872559 C-20.51890213 121.44260864 -20.50766815 120.3164917 -20.49609375 119.15625 C-20.49754898 117.9950061 -20.49900421 116.83376221 -20.50050354 115.6373291 C-20.49884398 113.1828358 -20.48727655 110.72833215 -20.46655273 108.27392578 C-20.43760931 104.51419937 -20.44594151 100.75588352 -20.45898438 96.99609375 C-20.45274673 94.6119723 -20.44435559 92.22785532 -20.43359375 89.84375 C-20.43652939 88.71763306 -20.43946503 87.59151611 -20.44248962 86.43127441 C-20.42980545 85.38338745 -20.41712128 84.33550049 -20.40405273 83.25585938 C-20.39864975 82.33526733 -20.39324677 81.41467529 -20.38768005 80.46618652 C-19.9237186 77.51474374 -19.09826335 76.10995493 -17 74 C-16.01 74 -15.02 74 -14 74 C-14.01632114 67.43411561 -14.0712603 60.86935369 -14.15258789 54.30395508 C-14.17573189 52.07225829 -14.19015512 49.84045283 -14.19555664 47.60864258 C-14.20487216 44.39335695 -14.24592194 41.17977207 -14.29296875 37.96484375 C-14.2890361 36.97290512 -14.28510345 35.98096649 -14.28105164 34.95896912 C-14.42070997 28.27258896 -15.72575645 25.12992871 -20 20 C-21.1402525 14.78033482 -20.62324382 10.29265386 -18.3125 5.5 C-12.88379891 -0.36886604 -7.79399448 -1.04148825 0 0 Z " fill="#8C9BA8" transform="translate(150,9)"/>
<path d="M0 0 C4.43118719 2.13646525 7.2290203 4.37577522 9 9 C9.52733644 12.77924446 9.7634722 16.25295882 9 20 C8.17733643 20.98895264 7.35467285 21.97790527 6.50708008 22.99682617 C3.05711372 27.71123894 3.2704828 32.2931722 3.29296875 37.96484375 C3.27784744 38.99815323 3.26272614 40.03146271 3.24714661 41.09608459 C3.20436727 44.37678009 3.19544068 47.65655371 3.1875 50.9375 C3.16434823 53.16994622 3.13898148 55.40237063 3.11132812 57.63476562 C3.04857248 63.08985259 3.0135608 68.54458074 3 74 C3.61875 74.103125 4.2375 74.20625 4.875 74.3125 C7 75 7 75 9 78 C9.26742554 80.34593201 9.26742554 80.34593201 9.29052734 83.14233398 C9.3096669 84.71427773 9.3096669 84.71427773 9.32919312 86.31797791 C9.33141876 87.44925613 9.33364441 88.58053436 9.3359375 89.74609375 C9.3425943 90.90875259 9.3492511 92.07141144 9.35610962 93.26930237 C9.36624108 95.72973039 9.37092649 98.19018591 9.37060547 100.65063477 C9.37497881 104.41924183 9.41129589 108.18667834 9.44921875 111.95507812 C9.45508665 114.34374599 9.45905622 116.73241942 9.4609375 119.12109375 C9.47530853 120.25034775 9.48967957 121.37960175 9.50448608 122.54307556 C9.49833282 123.59419022 9.49217957 124.64530487 9.48583984 125.72827148 C9.48868988 126.65187973 9.49153992 127.57548798 9.49447632 128.52708435 C8.84642693 131.7680312 7.55076646 132.96547184 5 135 C2.43457031 135.45410156 2.43457031 135.45410156 -0.421875 135.390625 C-1.44667969 135.37773437 -2.47148437 135.36484375 -3.52734375 135.3515625 C-5.12255859 135.30128906 -5.12255859 135.30128906 -6.75 135.25 C-7.82894531 135.23195312 -8.90789062 135.21390625 -10.01953125 135.1953125 C-12.68058788 135.14821415 -15.33984254 135.082456 -18 135 C-17.83773926 133.90308838 -17.67547852 132.80617676 -17.50830078 131.67602539 C-16.86584521 126.50868513 -16.85627555 121.38460247 -16.8671875 116.18359375 C-16.86623077 115.16830093 -16.86527405 114.15300812 -16.86428833 113.10694885 C-16.86361103 110.97144508 -16.86543374 108.83593921 -16.86962891 106.70043945 C-16.87498909 103.44412592 -16.86966569 100.18794995 -16.86328125 96.93164062 C-16.863942 94.84895803 -16.86522311 92.76627552 -16.8671875 90.68359375 C-16.86516327 89.71675156 -16.86313904 88.74990936 -16.86105347 87.75376892 C-16.87837617 82.72744413 -17.13989753 77.95434399 -18 73 C-16.68 73 -15.36 73 -14 73 C-14.01630585 66.55820904 -14.07119273 60.11756455 -14.15258789 53.67626953 C-14.17574823 51.48624099 -14.19015897 49.29610138 -14.19555664 47.10595703 C-14.20486025 43.95274801 -14.24588353 40.80128126 -14.29296875 37.6484375 C-14.2890361 36.67321136 -14.28510345 35.69798523 -14.28105164 34.69320679 C-14.41766148 28.29148929 -15.43955465 25.50980828 -20 21 C-21.58186586 16.50537154 -21.20992164 12.71140113 -19.875 8.1875 C-15.06166912 0.0048375 -8.8411503 -0.89910003 0 0 Z " fill="#8C9BA8" transform="translate(373,9)"/>
<path d="M0 0 C29.04 0 58.08 0 88 0 C88 8.91 88 17.82 88 27 C58.96 27 29.92 27 0 27 C0 18.09 0 9.18 0 0 Z " fill="#B4D2D6" transform="translate(212,183)"/>
<path d="M0 0 C1.08539063 0.27714844 2.17078125 0.55429687 3.2890625 0.83984375 C4.73434281 1.2058563 6.17965712 1.5717346 7.625 1.9375 C8.33785156 2.11990234 9.05070313 2.30230469 9.78515625 2.49023438 C10.48769531 2.66748047 11.19023437 2.84472656 11.9140625 3.02734375 C12.5529541 3.18968506 13.1918457 3.35202637 13.85009766 3.51928711 C21.34290689 5.19466088 28.66130038 5.27164978 36.3125 5.3125 C36.98207733 5.31611542 37.65165466 5.31973083 38.34152222 5.32345581 C49.13871927 5.34690934 58.68013172 4.18419728 69 1 C70.66191214 0.6437179 72.32708884 0.30042828 74 0 C74.6161243 11.79763941 72.73264107 21.7816113 65 31 C57.54604211 39.02514241 50.34340199 43.02696491 39.38452148 43.46899414 C27.16846256 43.62783918 19.24781912 41.107185 10.265625 32.4921875 C1.3052985 22.63582835 -0.43503601 12.93023691 0 0 Z " fill="#455759" transform="translate(219,460)"/>
<path d="M0 0 C0.33 0 0.66 0 1 0 C1.14695313 0.83402344 1.29390625 1.66804687 1.4453125 2.52734375 C3.62820902 13.47946252 7.65334752 21.57295176 17 28 C20.88418239 30.27366774 24.59818435 32.01422754 29 33 C29 33.66 29 34.32 29 35 C27.19921875 36.62890625 27.19921875 36.62890625 24.6875 38.5625 C23.76582031 39.28179687 22.84414062 40.00109375 21.89453125 40.7421875 C20.93933594 41.48726563 19.98414063 42.23234375 19 43 C17.28711478 44.39024375 15.57882888 45.78617184 13.875 47.1875 C8.57405136 51.53487856 3.25596282 55.860819 -2.06982422 60.17773438 C-5.16841025 62.69102369 -8.26143177 65.2095651 -11.328125 67.76171875 C-12.29234375 68.56222656 -13.2565625 69.36273438 -14.25 70.1875 C-15.08015625 70.88230469 -15.9103125 71.57710938 -16.765625 72.29296875 C-18.78728882 73.83749163 -20.68489825 74.96457605 -23 76 C-23.17015625 75.13117188 -23.3403125 74.26234375 -23.515625 73.3671875 C-25.53646129 63.75746602 -27.87676452 58.04087257 -35.9609375 52.2578125 C-38.52804215 50.67427285 -41.079771 49.73005725 -44 49 C-42.66000502 45.993182 -41.20154709 44.00237391 -38.8125 41.75 C-36.2425351 39.25984768 -33.83113126 36.71526802 -31.5 34 C-28.71760668 30.77043633 -25.78980571 27.76677347 -22.75 24.78125 C-20.91757513 22.91610326 -19.20646865 20.98072254 -17.5 19 C-14.72537912 15.77945791 -11.8086362 12.78198977 -8.7734375 9.80859375 C-6.1733439 7.15695645 -3.78108668 4.33774144 -1.3828125 1.50390625 C-0.92648438 1.00761719 -0.47015625 0.51132813 0 0 Z " fill="#B3D1D6" transform="translate(110,225)"/>
<path d="M0 0 C4.54843089 3.71300481 8.45033382 7.52639715 12.25 11.99609375 C13.92984577 13.91966714 15.67650219 15.71313496 17.5 17.5 C20.59356643 20.53832417 23.42105507 23.7476532 26.25 27.03125 C28.47431484 29.5336042 30.84652166 31.85829604 33.234375 34.203125 C35.75248047 36.76579871 38.08622705 39.47456431 40.421875 42.203125 C41.96801194 44.01968133 41.96801194 44.01968133 43.703125 45.609375 C45 47 45 47 45 49 C44.12988281 49.34611328 44.12988281 49.34611328 43.2421875 49.69921875 C34.84849917 53.20351437 29.86896616 57.08000664 25.96875 65.41796875 C24.62403691 69.00206292 24.2118455 72.18678101 24 76 C17.90242593 72.20961612 12.51787333 67.57597828 7 63 C3.33799882 59.9942912 -0.33105717 56.99722982 -4 54 C-4.63164062 53.48324707 -5.26328125 52.96649414 -5.9140625 52.43408203 C-8.00384333 50.72520945 -10.09551782 49.01867672 -12.1875 47.3125 C-12.84065186 46.77786133 -13.49380371 46.24322266 -14.16674805 45.69238281 C-18.19268498 42.41322904 -22.28890265 39.29068014 -26.5246582 36.28588867 C-27.011521 35.86154541 -27.49838379 35.43720215 -28 35 C-28 34.34 -28 33.68 -28 33 C-27.34773438 32.75765625 -26.69546875 32.5153125 -26.0234375 32.265625 C-16.41280311 28.58013098 -8.24909918 23.89944254 -3.703125 14.24609375 C-1.94876673 9.57416141 -0.53867473 4.98274122 0 0 Z " fill="#B3D1D6" transform="translate(401,225)"/>
<path d="M0 0 C4.62 2.31 9.24 4.62 14 7 C19.37383594 7.56237818 23.02545285 7.26956326 28.15478516 5.97241211 C29.42370605 5.65151611 30.69262695 5.33062012 32 5 C30.86630182 12.31179984 29.72779411 19.62283397 28.58326149 26.93294621 C28.05187049 30.32790469 27.52209506 33.72309842 26.99609375 37.11889648 C26.39031412 41.02925388 25.77735972 44.93847057 25.1640625 48.84765625 C24.97752106 50.05833267 24.79097961 51.26900909 24.5987854 52.51637268 C23.71054878 58.14398294 22.75197287 63.57442393 21 69 C19.67935547 68.58427734 19.67935547 68.58427734 18.33203125 68.16015625 C17.17058594 67.79792969 16.00914062 67.43570313 14.8125 67.0625 C13.08966797 66.52302734 13.08966797 66.52302734 11.33203125 65.97265625 C4.98810649 64.12079545 1.03088759 64 -6 64 C-4.02 42.88 -2.04 21.76 0 0 Z " fill="#B3D1D6" transform="translate(431,316)"/>
<path d="M0 0 C0.71797732 7.52508334 1.42934807 15.05077069 2.13623047 22.5769043 C2.3772386 25.13466373 2.61973279 27.69228361 2.86376953 30.24975586 C3.21521919 33.93567378 3.56123944 37.62206822 3.90625 41.30859375 C4.0156189 42.44332626 4.12498779 43.57805878 4.2376709 44.74717712 C4.8043983 50.86398454 5.11328584 56.85707532 5 63 C3.7934375 63.18175781 2.586875 63.36351562 1.34375 63.55078125 C-0.27090298 63.80424422 -1.88548249 64.05817553 -3.5 64.3125 C-4.68722656 64.48942383 -4.68722656 64.48942383 -5.8984375 64.66992188 C-11.26334296 65.52742726 -15.97004774 66.94071908 -21 69 C-23.13022596 62.40303542 -24.11020817 55.68729773 -25.1640625 48.84765625 C-25.45946426 46.96475136 -25.45946426 46.96475136 -25.76083374 45.04380798 C-26.28016681 41.72845018 -26.79570994 38.41254907 -27.30938721 35.09631348 C-27.83586519 31.70368163 -28.36737062 28.31183786 -28.8984375 24.91992188 C-29.93689878 18.28066029 -30.97036611 11.64063596 -32 5 C-29.9947408 5.50989787 -27.98948161 6.01979574 -25.98422241 6.5296936 C-18.34050925 8.34142961 -11.8741119 6.54984362 -5 3 C-0.91169451 0 -0.91169451 0 0 0 Z " fill="#B3D1D6" transform="translate(81,316)"/>
<path d="M0 0 C0.92860336 -0.0065712 1.85720673 -0.0131424 2.81394958 -0.01991272 C5.89574254 -0.03966964 8.97748673 -0.05131333 12.05932617 -0.0612793 C13.11037725 -0.06535482 14.16142834 -0.06943035 15.24432945 -0.07362938 C20.80676452 -0.09449982 26.36917485 -0.10879762 31.93164062 -0.11816406 C37.68200987 -0.1292336 43.43199269 -0.16363721 49.18222523 -0.20333576 C53.59942859 -0.22945895 58.01653927 -0.23785206 62.4338131 -0.24144554 C64.55372415 -0.24632222 66.67363077 -0.2579668 68.79346657 -0.27648354 C71.75975953 -0.30078439 74.7250446 -0.29992645 77.69140625 -0.29296875 C79.00623489 -0.31218384 79.00623489 -0.31218384 80.34762573 -0.33178711 C84.44712643 -0.29671908 86.5150062 -0.15372876 90.06156921 2.08137512 C93.20221614 5.40840901 93.1628628 7.3350991 93.15332031 11.82006836 C93.15320702 13.59167831 93.15320702 13.59167831 93.15309143 15.39907837 C93.14793015 16.67930878 93.14276886 17.95953918 93.13745117 19.27856445 C93.13603622 20.58530121 93.13462128 21.89203796 93.13316345 23.2383728 C93.12934387 26.71376453 93.11951835 30.18911452 93.10845947 33.66448975 C93.09823335 37.2103214 93.09366326 40.7561598 93.08862305 44.30200195 C93.07789558 51.26035244 93.06082585 58.21867519 93.03979492 65.17700195 C92.70979492 65.17700195 92.37979492 65.17700195 92.03979492 65.17700195 C92.03979492 47.02700195 92.03979492 28.87700195 92.03979492 10.17700195 C75.98782631 10.20956887 75.98782631 10.20956887 59.9362793 10.28833008 C53.38960407 10.33070868 46.84321127 10.36767199 40.29638672 10.37255859 C35.01822937 10.37683644 29.74070398 10.40525695 24.46274376 10.45043373 C22.44895801 10.4634251 20.43509669 10.46771063 18.42127419 10.46315575 C15.6004675 10.45826145 12.78151615 10.48428989 9.9609375 10.51757812 C9.12799667 10.50895248 8.29505585 10.50032684 7.43687439 10.49143982 C3.2719077 10.57385635 1.49072065 10.84958353 -1.9765625 13.3671875 C-4.19812177 16.51400912 -4.59337713 17.98694926 -4.61962891 21.79345703 C-4.639272 22.89422073 -4.6589151 23.99498444 -4.67915344 25.12910461 C-4.67325447 26.89498177 -4.67325447 26.89498177 -4.66723633 28.6965332 C-4.68235764 29.91024094 -4.69747894 31.12394867 -4.71305847 32.37443542 C-4.75600404 36.24631226 -4.7647808 40.11741047 -4.77270508 43.98950195 C-4.79584381 46.61647588 -4.82120782 49.24343121 -4.84887695 51.87036133 C-4.91179753 58.30591553 -4.94667708 64.74116462 -4.96020508 71.17700195 C-7.71020508 71.48950195 -7.71020508 71.48950195 -10.96020508 71.17700195 C-13.54125112 68.62687098 -14.825859 66.92961121 -15.46813965 63.33154297 C-15.47132202 62.2918335 -15.47450439 61.25212402 -15.4777832 60.1809082 C-15.49039185 58.9961792 -15.50300049 57.8114502 -15.51599121 56.59082031 C-15.50789429 55.31988525 -15.49979736 54.0489502 -15.49145508 52.73950195 C-15.49528198 51.42667236 -15.49910889 50.11384277 -15.50305176 48.76123047 C-15.50893674 45.98719381 -15.50041727 43.21367369 -15.48168945 40.43969727 C-15.45889916 36.89194114 -15.47202781 33.34539547 -15.49597931 29.79768372 C-15.51394643 26.40319391 -15.50135013 23.0090261 -15.49145508 19.61450195 C-15.499552 18.34356689 -15.50764893 17.07263184 -15.51599121 15.76318359 C-15.50338257 14.57845459 -15.49077393 13.39372559 -15.4777832 12.1730957 C-15.47460083 11.13338623 -15.47141846 10.09367676 -15.46813965 9.02246094 C-14.83110456 5.45377841 -13.44129371 3.77083445 -10.96020508 1.17700195 C-7.5746633 -0.51576894 -3.72517442 0.01134869 0 0 Z " fill="#CDEFFE" transform="translate(216.960205078125,252.822998046875)"/>
<path d="M0 0 C1.83265411 -0.02409439 1.83265411 -0.02409439 3.70233154 -0.04867554 C5.04275822 -0.06016391 6.38319269 -0.07077229 7.72363281 -0.08056641 C8.39832863 -0.08589008 9.07302444 -0.09121376 9.76816559 -0.09669876 C13.3412004 -0.12342735 16.91420034 -0.14280077 20.48730469 -0.15722656 C23.4400947 -0.17055304 26.3921915 -0.19837983 29.34472656 -0.23925781 C32.9132801 -0.28866309 36.48120605 -0.31335719 40.05008698 -0.32045364 C42.0653373 -0.33040204 44.08042068 -0.36462872 46.09539795 -0.39926147 C56.30279403 -0.37569377 56.30279403 -0.37569377 59.99414062 2.60058594 C63.39510511 6.639897 63.52880933 8.91209826 63.17675781 14.19287109 C61.94197781 17.76001332 60.96297261 19.62746449 57.88964844 21.83764648 C52.27138307 23.8883429 46.83151675 23.64050941 40.89550781 23.62646484 C38.96523743 23.63432762 38.96523743 23.63432762 36.99597168 23.64234924 C34.2792781 23.65125658 31.56287887 23.64888415 28.84619141 23.63891602 C25.37594671 23.62741941 21.90671859 23.64765857 18.43660736 23.67683315 C15.11035455 23.69965527 11.78433694 23.69272642 8.45800781 23.68896484 C6.5968634 23.70581581 6.5968634 23.70581581 4.69812012 23.7230072 C-6.00002888 23.63659565 -6.00002888 23.63659565 -10.82324219 19.19287109 C-13.15356073 16.22701113 -13.2944366 12.95664467 -13.21777344 9.22802734 C-12.50972036 5.57559512 -10.44789586 3.75503302 -7.82324219 1.19287109 C-5.1327087 -0.15239565 -3.01261941 0.03591072 0 0 Z " fill="#EBF2F6" transform="translate(230.8232421875,134.80712890625)"/>
<path d="M0 0 C4.43118719 2.13646525 7.2290203 4.37577522 9 9 C9.52733644 12.77924446 9.7634722 16.25295882 9 20 C8.17733643 20.98895264 7.35467285 21.97790527 6.50708008 22.99682617 C3.05711372 27.71123894 3.2704828 32.2931722 3.29296875 37.96484375 C3.27784744 38.99815323 3.26272614 40.03146271 3.24714661 41.09608459 C3.20436727 44.37678009 3.19544068 47.65655371 3.1875 50.9375 C3.16434823 53.16994622 3.13898148 55.40237063 3.11132812 57.63476562 C3.04857165 63.08992491 3.01616018 68.54451174 3 74 C-2.61 74 -8.22 74 -14 74 C-14.00410889 72.60765137 -14.00821777 71.21530273 -14.01245117 69.78076172 C-14.03426198 64.60314171 -14.08857295 59.4262795 -14.15258789 54.24902344 C-14.17575071 52.01049068 -14.19015955 49.77184921 -14.19555664 47.53320312 C-14.20485837 44.31051011 -14.24587802 41.08952299 -14.29296875 37.8671875 C-14.2890361 36.87008759 -14.28510345 35.87298767 -14.28105164 34.84567261 C-14.41600197 28.38417733 -15.38087492 25.54264205 -20 21 C-21.58186586 16.50537154 -21.20992164 12.71140113 -19.875 8.1875 C-15.06166912 0.0048375 -8.8411503 -0.89910003 0 0 Z " fill="#B3D1D6" transform="translate(373,9)"/>
<path d="M0 0 C3.90863741 1.95431871 6.98579156 4.07759409 9 8 C10.55982223 14.21510564 10.12007447 18.42843844 7 24 C6.47782394 24.46344315 5.95564789 24.92688629 5.41764832 25.40437317 C3.52193076 27.5380884 3.60553062 28.82741549 3.56762695 31.6550293 C3.54783279 32.59577805 3.52803864 33.53652679 3.50764465 34.50578308 C3.49805977 36.02465874 3.49805977 36.02465874 3.48828125 37.57421875 C3.47033005 38.61318802 3.45237885 39.65215729 3.43388367 40.72261047 C3.37965957 44.04419891 3.34584572 47.36564266 3.3125 50.6875 C3.27933766 52.93817123 3.24484903 55.18882334 3.20898438 57.43945312 C3.12392592 62.95953122 3.05717221 68.47956549 3 74 C-2.61 74 -8.22 74 -14 74 C-14.00410889 72.61288818 -14.00821777 71.22577637 -14.01245117 69.79663086 C-14.03428359 64.63203173 -14.08861694 59.46818999 -14.15258789 54.30395508 C-14.17573189 52.07225829 -14.19015512 49.84045283 -14.19555664 47.60864258 C-14.20487216 44.39335695 -14.24592194 41.17977207 -14.29296875 37.96484375 C-14.2890361 36.97290512 -14.28510345 35.98096649 -14.28105164 34.95896912 C-14.42070997 28.27258896 -15.72575645 25.12992871 -20 20 C-21.1402525 14.78033482 -20.62324382 10.29265386 -18.3125 5.5 C-12.88379891 -0.36886604 -7.79399448 -1.04148825 0 0 Z " fill="#B3D1D6" transform="translate(150,9)"/>
<path d="M0 0 C5.71046825 3.05079811 8.80134787 6.7165436 10.875 12.9375 C11.65741557 19.4405278 10.73181542 24.58518472 6.875 29.9375 C2.88079901 34.20045233 -0.36158819 36.57576726 -6.23828125 37.140625 C-12.91501492 37.28293549 -17.63571092 36.03076582 -22.875 31.625 C-27.24806207 26.4016203 -28.70004885 22.21397434 -28.4765625 15.46875 C-27.74286052 10.18609577 -25.55034759 6.36284759 -21.8125 2.625 C-14.22987334 -2.13618418 -8.32099594 -3.73520262 0 0 Z " fill="#FDD92E" transform="translate(216.125,77.0625)"/>
<path d="M0 0 C5.71046825 3.05079811 8.80134787 6.7165436 10.875 12.9375 C11.65741557 19.4405278 10.73181542 24.58518472 6.875 29.9375 C2.88079901 34.20045233 -0.36158819 36.57576726 -6.23828125 37.140625 C-12.91501492 37.28293549 -17.63571092 36.03076582 -22.875 31.625 C-27.24440896 26.40598375 -28.72429954 22.20705747 -28.4609375 15.4609375 C-27.76306499 10.21877888 -26.06679598 6.54631652 -21.9609375 3.14453125 C-14.57136732 -1.92225872 -8.54408506 -3.88367503 0 0 Z " fill="#FDD92E" transform="translate(313.125,77.0625)"/>
<path d="M0 0 C3.90323096 3.79063776 5.94628692 6.86571729 8 12 C8 16.62 8 21.24 8 26 C-5.86 26 -19.72 26 -34 26 C-34 8.41584158 -34 8.41584158 -28.421875 2.2578125 C-20.55363078 -5.14967868 -9.03626814 -6.16109191 0 0 Z " fill="#FB675A" transform="translate(269,18)"/>
<path d="M0 0 C2.53786081 0.37257957 3.70952365 0.66378566 5.4140625 2.63671875 C5.81367188 3.31347656 6.21328125 3.99023438 6.625 4.6875 C7.02976562 5.35136719 7.43453125 6.01523438 7.8515625 6.69921875 C12.22544657 15.46186404 12.46472218 25.43373427 9.5625 34.75 C5.59076043 44.23182898 -1.69732322 50.91894064 -11 55 C-11.928125 55.433125 -12.85625 55.86625 -13.8125 56.3125 C-22.92233325 58.277366 -31.78205526 57.52046597 -40 53 C-43.61814159 50.2657534 -46.98171149 47.39148254 -50 44 C-50 43.34 -50 42.68 -50 42 C-48.948125 42.433125 -48.948125 42.433125 -47.875 42.875 C-38.4666107 46.55654364 -28.48829598 47.96404409 -18.6875 44.5625 C-10.21672478 40.52476381 -3.28708143 33.9962306 0.234375 25.2421875 C2.13184131 17.20699852 1.91515025 8.00595596 0 0 Z " fill="#7A8D99" transform="translate(390,202)"/>
<path d="M0 0 C1.03875291 3.11625874 1.02212406 5.59834251 0.93334961 8.85131836 C0.66826089 19.18090534 1.26691639 26.04967561 8.0625 34.25 C14.09458622 40.58763307 21.29584242 44.55674699 30.06640625 45.23828125 C38.22700102 45.41152293 44.56558845 44.39858814 52 41 C49.40785965 46.85156435 44.92254235 50.6057969 39.19140625 53.33984375 C29.37385672 56.92727082 20.81572278 57.49418328 11.20703125 53.12109375 C2.31576104 48.60464322 -4.86226758 41.59776974 -8 32 C-10.24608068 22.48624399 -10.128813 12.53709768 -5 4 C-2.25 1.375 -2.25 1.375 0 0 Z " fill="#7A8D99" transform="translate(120,203)"/>
<path d="M0 0 C4.74594765 2.71070044 8.08710331 5.84857233 9.7734375 11.12890625 C10.57347598 15.9041359 10.3000757 19.13205537 8.0234375 23.44140625 C3.54738688 28.78780005 0.58826381 31.69703912 -6.5390625 32.50390625 C-11.1277641 32.03725863 -14.46758074 30.80105198 -18.2265625 28.12890625 C-22.04148159 23.33580278 -23.59854778 19.4239056 -23.5078125 13.25390625 C-22.86527046 8.39914415 -20.21554147 5.0455209 -16.6640625 1.75390625 C-11.64722917 -1.5906493 -5.63799198 -2.20574072 0 0 Z " fill="#FBD830" transform="translate(208.2265625,357.87109375)"/>
<path d="M0 0 C3.9747075 2.63127489 6.45572533 6.11399524 8.25 10.5 C9.28925846 15.78537158 8.14638568 20.00560842 5.25 24.5 C1.18201354 29.21030012 -1.89859607 31.17719956 -8.0625 31.875 C-12.6512016 31.40835238 -15.99101824 30.17214573 -19.75 27.5 C-23.50645996 22.78034518 -25.19087714 18.78708774 -25.08984375 12.69140625 C-24.35482844 7.95182477 -21.72584 4.24540705 -18.17578125 1.109375 C-12.59218799 -2.58698977 -6.02106716 -2.93199792 0 0 Z " fill="#FCD92F" transform="translate(318.75,358.5)"/>
<path d="M0 0 C5.67476113 1.96434039 9.31400331 5.62800662 12 11 C12.55769904 16.96308973 12.50156448 21.92876868 9 27 C4.87559561 30.90733047 1.26088796 32.74879023 -4.375 33.375 C-10.0873072 32.78407167 -13.55156083 30.60090645 -17.375 26.375 C-20.74943779 21.44312939 -20.5971061 16.86325019 -20 11 C-15.65532687 2.14973991 -9.37053205 -0.85474448 0 0 Z " fill="#FCD92F" transform="translate(260,357)"/>
<path d="M0 0 C1.27230469 0.00902344 2.54460937 0.01804687 3.85546875 0.02734375 C5.31919922 0.04474609 5.31919922 0.04474609 6.8125 0.0625 C6.8125 0.3925 6.8125 0.7225 6.8125 1.0625 C6.00167969 1.27003906 5.19085938 1.47757812 4.35546875 1.69140625 C-6.4583252 4.70013355 -16.96008512 9.26424057 -23.1875 19.0625 C-30.15443429 31.46103586 -33.96032809 44.32233179 -30.29296875 58.52734375 C-29.57876548 60.52862713 -28.84440659 62.52288275 -28.0859375 64.5078125 C-26.50782682 68.99513591 -26.67484646 72.55658022 -28.1875 77 C-28.5175 77.680625 -28.8475 78.36125 -29.1875 79.0625 C-36.41724471 74.02283286 -40.4839991 64.81666071 -42.625 56.375 C-44.94803175 42.38518657 -41.88838963 28.44374548 -33.625 16.875 C-25.41207853 6.83698487 -13.01342117 -0.11938919 0 0 Z " fill="#7B8E99" transform="translate(426.1875,379.9375)"/>
<path d="M0 0 C12.38690915 -0.82457235 22.0080118 1.38705661 32 9 C33.4540625 10.051875 33.4540625 10.051875 34.9375 11.125 C43.45462039 18.45732412 49.06873509 29.82482105 50 41 C50.81783988 53.47205816 48.08324131 64.60534338 41 75 C38.125 77.6875 38.125 77.6875 36 79 C33.88848268 74.60844051 32.41769296 70.86388021 33.9140625 66.07421875 C34.37554687 65.05972656 34.83703125 64.04523438 35.3125 63 C39.69523344 53.07128752 39.79406151 40.48611166 36.046875 30.234375 C30.22863804 17.81634687 22.53576706 8.52296486 9.39453125 3.66796875 C6.27698158 2.70584601 3.16043401 1.80895052 0 1 C0 0.67 0 0.34 0 0 Z " fill="#7B8D99" transform="translate(79,380)"/>
<path d="M0 0 C0.6161243 11.79763941 -1.26735893 21.7816113 -9 31 C-16.4514136 39.02240315 -23.65925954 43.03556126 -34.61791992 43.46679688 C-42.43481821 43.57575436 -49.04141423 42.91638998 -56 39 C-56 38.34 -56 37.68 -56 37 C-55.05640625 36.98582031 -54.1128125 36.97164063 -53.140625 36.95703125 C-42.16802736 36.54941467 -31.79851011 34.69302674 -23.5234375 26.78125 C-18.91123303 21.38851863 -16.07560762 16.00338203 -14.625 9.0625 C-13.52814055 4.37772077 -13.52814055 4.37772077 -11.1484375 2.67578125 C-9.09409553 1.91007197 -7.15087325 1.40762517 -5 1 C-2 0 -2 0 0 0 Z " fill="#3A484B" transform="translate(293,460)"/>
<path d="M0 0 C4.43118719 2.13646525 7.2290203 4.37577522 9 9 C9.75662405 14.42247235 9.93856356 19.3485651 6.875 24.0625 C3.78887599 27.67594492 0.74553823 28.70288765 -3.94921875 29.2109375 C-8.69843762 29.44613691 -11.94687396 28.67137853 -16 26 C-19.80928358 22.49957725 -20.75602296 19.28518786 -21.09765625 14.27734375 C-20.88257747 9.26170669 -19.05550477 5.97827271 -15.4375 2.625 C-10.44098128 -0.70601248 -5.90652057 -0.60066311 0 0 Z " fill="#63B4F6" transform="translate(373,9)"/>
<path d="M0 0 C3.90863741 1.95431871 6.98579156 4.07759409 9 8 C10.55982223 14.21510564 10.12007447 18.42843844 7 24 C4.79874475 26.90165465 2.49120114 28.0133562 -1 29 C-6.68207108 29.60916843 -11.17960042 29.36306948 -16 26 C-19.46987891 22.34749588 -20.30013186 19.4034317 -20.5 14.5 C-20.30691801 9.59971232 -19.41113589 6.68771447 -16 3 C-11.50017182 -1.09075289 -5.74615527 -0.7678416 0 0 Z " fill="#63B5F6" transform="translate(150,9)"/>
<path d="M0 0 C3.96 1.98 7.92 3.96 12 6 C11.81824219 7.42183594 11.63648438 8.84367187 11.44921875 10.30859375 C9.21343294 28.1723874 7.55171981 46.06624365 6 64 C2.04 64 -1.92 64 -6 64 C-4.02 42.88 -2.04 21.76 0 0 Z " fill="#9CBAC3" transform="translate(431,316)"/>
<path d="M0 0 C0.71797732 7.52508334 1.42934807 15.05077069 2.13623047 22.5769043 C2.3772386 25.13466373 2.61973279 27.69228361 2.86376953 30.24975586 C3.21521919 33.93567378 3.56123944 37.62206822 3.90625 41.30859375 C4.0156189 42.44332626 4.12498779 43.57805878 4.2376709 44.74717712 C4.8043983 50.86398454 5.11328584 56.85707532 5 63 C-0.445 63.495 -0.445 63.495 -6 64 C-8.02759982 44.99053645 -9.55399904 26.12383139 -10 7 C-10.66 6.67 -11.32 6.34 -12 6 C-11.18595703 5.60167969 -11.18595703 5.60167969 -10.35546875 5.1953125 C-9.64003906 4.84210938 -8.92460938 4.48890625 -8.1875 4.125 C-7.47980469 3.77695312 -6.77210937 3.42890625 -6.04296875 3.0703125 C-0.18248175 0 -0.18248175 0 0 0 Z " fill="#9CBAC3" transform="translate(81,316)"/>
<path d="M0 0 C3.63 1.32 7.26 2.64 11 4 C11 4.66 11 5.32 11 6 C9.19921875 7.62890625 9.19921875 7.62890625 6.6875 9.5625 C5.76582031 10.28179687 4.84414062 11.00109375 3.89453125 11.7421875 C2.93933594 12.48726563 1.98414063 13.23234375 1 14 C-0.71288522 15.39024375 -2.42117112 16.78617184 -4.125 18.1875 C-9.42594864 22.53487856 -14.74403718 26.860819 -20.06982422 31.17773438 C-23.16841025 33.69102369 -26.26143177 36.2095651 -29.328125 38.76171875 C-30.77445313 39.96248047 -30.77445313 39.96248047 -32.25 41.1875 C-33.08015625 41.88230469 -33.9103125 42.57710938 -34.765625 43.29296875 C-37 45 -37 45 -41 47 C-41.66 43.04 -42.32 39.08 -43 35 C-42.18660156 34.36835938 -41.37320313 33.73671875 -40.53515625 33.0859375 C-31.54954727 26.08102013 -22.73508086 18.88416537 -13.95947266 11.61865234 C-10.28908993 8.58667658 -6.5970292 5.58131445 -2.90625 2.57421875 C-1.1096146 1.14127035 -1.1096146 1.14127035 0 0 Z " fill="#9CBAC4" transform="translate(128,254)"/>
<path d="M0 0 C2.16344958 1.63532699 4.05976951 3.43211556 6.01171875 5.31640625 C7.5685115 6.64078206 9.12591757 7.96451132 10.6940918 9.27539062 C12.39976504 10.7023205 14.09322441 12.14275455 15.78515625 13.5859375 C24.28197887 20.80299793 33.15935105 27.54531623 42.01171875 34.31640625 C41.35171875 38.27640625 40.69171875 42.23640625 40.01171875 46.31640625 C33.91414468 42.52602237 28.52959208 37.89238453 23.01171875 33.31640625 C19.34971757 30.31069745 15.68066158 27.31363607 12.01171875 24.31640625 C11.38007813 23.79965332 10.7484375 23.28290039 10.09765625 22.75048828 C8.00787542 21.0416157 5.91620093 19.33508297 3.82421875 17.62890625 C3.17106689 17.09426758 2.51791504 16.55962891 1.8449707 16.00878906 C-2.18096623 12.72963529 -6.2771839 9.60708639 -10.51293945 6.60229492 C-10.99980225 6.17795166 -11.48666504 5.7536084 -11.98828125 5.31640625 C-11.98828125 4.65640625 -11.98828125 3.99640625 -11.98828125 3.31640625 C-3.84569987 -1.32219544 -3.84569987 -1.32219544 0 0 Z " fill="#9CBAC4" transform="translate(384.98828125,254.68359375)"/>
<path d="M0 0 C3.85425596 2.67192113 7.05024865 6.07830562 10.375 9.375 C11.31472656 10.24511719 12.25445312 11.11523438 13.22265625 12.01171875 C19.68179713 18.37656561 19.68179713 18.37656561 20.47924805 22.44506836 C20.26633858 25.09773285 19.71431623 27.43675443 19 30 C18.79697266 31.00546875 18.59394531 32.0109375 18.38476562 33.046875 C17.709489 36.33361963 16.901157 39.56390908 16.0625 42.8125 C15.81693359 43.91787109 15.57136719 45.02324219 15.31835938 46.16210938 C13.26219243 54.02113085 13.26219243 54.02113085 9.58544922 56.87255859 C3.47457162 60 3.47457162 60 0 60 C0.55886124 57.56161661 1.12144756 55.12421843 1.6875 52.6875 C1.86176514 51.93509033 2.03603027 51.18268066 2.21557617 50.4074707 C3.20882142 46.17672409 4.26301621 41.97199813 5.4140625 37.78125 C5.64649658 36.93087158 5.87893066 36.08049316 6.1184082 35.2043457 C6.5747726 33.54952314 7.03923086 31.8969076 7.51245117 30.24682617 C7.7210376 29.48861572 7.92962402 28.73040527 8.14453125 27.94921875 C8.33378174 27.28237061 8.52303223 26.61552246 8.71801758 25.9284668 C9.0644004 23.5595682 8.88163242 22.23261724 8 20 C6.31871566 17.93842725 6.31871566 17.93842725 4.18359375 15.9609375 C3.41982422 15.21585937 2.65605469 14.47078125 1.86914062 13.703125 C1.06669922 12.93484375 0.26425781 12.1665625 -0.5625 11.375 C-2.15151541 9.84568381 -3.73639034 8.31204978 -5.31640625 6.7734375 C-6.02224854 6.09716309 -6.72809082 5.42088867 -7.45532227 4.72412109 C-9 3 -9 3 -9 1 C-5.88908745 0.07824813 -3.23868479 -0.34401 0 0 Z " fill="#7B8C99" transform="translate(443,412)"/>
<path d="M0 0 C0.67289063 0.15082031 1.34578125 0.30164063 2.0390625 0.45703125 C3.2353125 0.72515625 4.4315625 0.99328125 5.6640625 1.26953125 C4.25230378 4.55777513 2.59814785 6.4478964 -0.1015625 8.7734375 C-0.82601562 9.43279297 -1.55046875 10.09214844 -2.296875 10.77148438 C-3.81812317 12.14086733 -5.36001721 13.48766899 -6.921875 14.81054688 C-11.05987668 18.5787971 -11.05987668 18.5787971 -12.50048828 23.77270508 C-12.00294477 26.70842605 -11.22953619 29.42926288 -10.3359375 32.26953125 C-9.75708612 34.49913798 -9.18168989 36.72964399 -8.609375 38.9609375 C-7.98117175 41.2525706 -7.34830994 43.54293144 -6.7109375 45.83203125 C-6.07071269 48.14522447 -5.43257807 50.45899755 -4.796875 52.7734375 C-4.51634277 53.78220947 -4.23581055 54.79098145 -3.94677734 55.83032227 C-3.3359375 58.26953125 -3.3359375 58.26953125 -3.3359375 60.26953125 C-4.77690336 59.84358537 -6.21362462 59.40326492 -7.6484375 58.95703125 C-8.44894531 58.71339844 -9.24945313 58.46976562 -10.07421875 58.21875 C-12.55720949 57.1766658 -13.71108778 56.40723914 -15.3359375 54.26953125 C-16.74708794 50.70832088 -17.71113156 47.01861191 -18.74609375 43.33203125 C-19.39501468 41.06295674 -20.08323724 38.80762654 -20.7734375 36.55078125 C-21.25356136 34.9364823 -21.73273609 33.32190073 -22.2109375 31.70703125 C-22.45054199 30.93351318 -22.69014648 30.15999512 -22.93701172 29.36303711 C-24.53859555 23.81116443 -24.53859555 23.81116443 -23.57373047 21.23242188 C-22.30234022 19.21625272 -20.97936411 17.66957638 -19.2890625 15.9921875 C-18.6909375 15.39599609 -18.0928125 14.79980469 -17.4765625 14.18554688 C-16.54070313 13.26805664 -16.54070313 13.26805664 -15.5859375 12.33203125 C-14.9775 11.72423828 -14.3690625 11.11644531 -13.7421875 10.49023438 C-11.96115453 8.72632672 -10.15790478 6.99106518 -8.3359375 5.26953125 C-7.79565918 4.75414795 -7.25538086 4.23876465 -6.69873047 3.70776367 C-2.96789015 0.34244886 -2.96789015 0.34244886 0 0 Z " fill="#7B8C99" transform="translate(72.3359375,411.73046875)"/>
<path d="M0 0 C5.68193002 3.78795335 7.90101751 8.70305252 10 15 C10.93503294 24.35032939 8.91606852 30.5842391 3.8125 38.3125 C-2.15210416 44.01201064 -10.07982225 46.41525461 -18.22265625 46.35546875 C-22.97706076 45.74695847 -27.06416716 43.6869628 -31 41 C-31.66 40.01 -32.32 39.02 -33 38 C-32.21625 38.165 -31.4325 38.33 -30.625 38.5 C-22.17192978 39.66594072 -15.44838699 39.55752788 -8 35 C-2.775375 30.45684783 1.4753348 25.49713031 2.30078125 18.421875 C2.32868318 12.06023438 1.44025021 6.88274604 -1 1 C-0.67 0.67 -0.34 0.34 0 0 Z " fill="#7C8D99" transform="translate(466,278)"/>
<path d="M0 0 C0.99 0 1.98 0 3 0 C2.67 0.928125 2.34 1.85625 2 2.8125 C-0.14903231 10.52098546 0.17251301 17.89834729 3.79296875 25.0625 C5.51838678 27.83210305 7.52062705 29.89253299 10 32 C10.598125 32.556875 11.19625 33.11375 11.8125 33.6875 C19.1516009 38.09096054 27.89938445 37.62012311 36 36 C31.66843636 41.00837046 27.42342783 43.3452688 20.8359375 44.3203125 C13.51223282 44.70849473 7.37554506 42.02532703 1.1875 38.3125 C-4.68809903 32.10115246 -7.37288806 24.96412902 -7.2890625 16.51171875 C-6.6054762 10.57190805 -4.03569 4.44230864 0 0 Z " fill="#7B8D99" transform="translate(43,280)"/>
<path d="M0 0 C1.83265411 -0.02409439 1.83265411 -0.02409439 3.70233154 -0.04867554 C5.04275822 -0.06016391 6.38319269 -0.07077229 7.72363281 -0.08056641 C8.39832863 -0.08589008 9.07302444 -0.09121376 9.76816559 -0.09669876 C13.3412004 -0.12342735 16.91420034 -0.14280077 20.48730469 -0.15722656 C23.4400947 -0.17055304 26.3921915 -0.19837983 29.34472656 -0.23925781 C32.9132801 -0.28866309 36.48120605 -0.31335719 40.05008698 -0.32045364 C42.0653373 -0.33040204 44.08042068 -0.36462872 46.09539795 -0.39926147 C56.30096486 -0.375698 56.30096486 -0.375698 60.05664062 2.72558594 C60.7562793 3.53979004 61.45591797 4.35399414 62.17675781 5.19287109 C59.50449912 6.52900044 57.51270257 6.28376042 54.52124023 6.24291992 C53.33628464 6.22993362 52.15132904 6.21694733 50.9304657 6.2035675 C49.64404678 6.185858 48.35762787 6.1681485 47.03222656 6.14990234 C45.01992083 6.13324616 43.00761456 6.11661392 40.99529743 6.10139751 C36.02294967 6.0632412 31.05085458 6.01686058 26.07885742 5.94604492 C23.29240414 5.90687276 20.50623779 5.87836624 17.71955872 5.86174011 C15.09285437 5.84575741 12.46618947 5.81411812 9.83988953 5.76533508 C8.64547745 5.76180527 7.45106537 5.75827545 6.22045898 5.75463867 C5.1717009 5.74274002 4.12294281 5.73084137 3.04240417 5.71858215 C-0.58200924 6.31845352 -2.19909312 7.67049718 -4.82324219 10.19287109 C-6.882499 13.28175631 -7.06227959 13.90223036 -6.94824219 17.38037109 C-6.90699219 18.63849609 -6.86574219 19.89662109 -6.82324219 21.19287109 C-9.11107516 20.27773791 -10.55773947 19.53802463 -12.07324219 17.56787109 C-13.18193612 14.05700698 -13.52132804 10.79388822 -12.82324219 7.19287109 C-9.52608857 1.49333045 -6.34443353 0.07562626 0 0 Z " fill="#E0E2E3" transform="translate(230.8232421875,134.80712890625)"/>
<path d="M0 0 C4.95 0 9.9 0 15 0 C15 8.91 15 17.82 15 27 C10.05 27 5.1 27 0 27 C0 18.09 0 9.18 0 0 Z " fill="#9CBAC3" transform="translate(285,183)"/>
<path d="M0 0 C1.67421691 0.94703179 3.28112596 2.01121874 4.87109375 3.09375 C4.87109375 3.75375 4.87109375 4.41375 4.87109375 5.09375 C4.14664062 5.18011719 3.4221875 5.26648438 2.67578125 5.35546875 C-3.79312318 6.29561619 -7.63943295 7.2589326 -12.12890625 12.09375 C-14.45359896 15.63236075 -14.33724221 18.67695189 -14.25390625 22.84375 C-14.22683594 24.59945313 -14.22683594 24.59945313 -14.19921875 26.390625 C-14.17601562 27.28265625 -14.1528125 28.1746875 -14.12890625 29.09375 C-18.72744919 27.58378067 -18.72744919 27.58378067 -20.4921875 25.4296875 C-22.81677208 20.62745927 -24.30748907 16.42838804 -23.12890625 11.09375 C-21.0379102 6.02354718 -18.06119815 2.14338779 -13.08203125 -0.28125 C-8.63456944 -1.70443778 -4.32931819 -1.84293912 0 0 Z " fill="#FBC706" transform="translate(317.12890625,357.90625)"/>
<path d="M0 0 C1.6645214 0.9593881 3.26739605 2.02422776 4.85546875 3.10546875 C4.85546875 3.76546875 4.85546875 4.42546875 4.85546875 5.10546875 C3.98535156 5.14414062 3.98535156 5.14414062 3.09765625 5.18359375 C-3.79858598 5.68431101 -7.61944334 7.51393116 -12.51953125 12.54296875 C-14.9884695 17.95564107 -14.45737079 23.24841736 -14.14453125 29.10546875 C-18.74307419 27.59549942 -18.74307419 27.59549942 -20.5078125 25.44140625 C-22.96899744 20.35698304 -23.86229121 16.75782847 -23.14453125 11.10546875 C-21.31132176 6.29206842 -18.42167006 2.95689463 -14.14453125 0.10546875 C-9.497499 -1.443542 -4.61032756 -1.92306924 0 0 Z " fill="#FBC706" transform="translate(208.14453125,357.89453125)"/>
<path d="M0 0 C2.47436213 1.24068583 4.90888865 2.52426385 7.3203125 3.8828125 C7.3203125 4.5428125 7.3203125 5.2028125 7.3203125 5.8828125 C6.53527344 5.84800781 5.75023437 5.81320313 4.94140625 5.77734375 C-3.16972179 5.56834536 -8.19031939 5.85869348 -14.4921875 11.3203125 C-18.51941187 16.03791819 -18.95516647 19.50947607 -18.8046875 25.6328125 C-18.79115234 26.67888672 -18.79115234 26.67888672 -18.77734375 27.74609375 C-18.75388638 29.45848208 -18.71801854 31.17069254 -18.6796875 32.8828125 C-19.3396875 32.8828125 -19.9996875 32.8828125 -20.6796875 32.8828125 C-25.34659641 26.51884581 -26.46222097 21.62759232 -25.6796875 13.8828125 C-24.01192917 7.47095785 -20.29727907 4.41342988 -14.80078125 1.01171875 C-9.83760625 -1.62982374 -5.27099781 -2.1975297 0 0 Z " fill="#FAC70A" transform="translate(310.6796875,76.1171875)"/>
<path d="M0 0 C4.36256499 1.61576481 6.36278583 3.26780217 9 7 C8.05640625 6.91298828 8.05640625 6.91298828 7.09375 6.82421875 C1.27095073 6.51729409 -2.59532439 7.06944673 -7.37109375 10.5234375 C-10.49517436 13.35533791 -11.82296474 16.04580313 -12.203125 20.2421875 C-12.27744182 24.01995929 -12.02325632 27.35258636 -11 31 C-15.48070783 28.75964609 -17.8144257 26.533043 -20 22 C-20.78388834 16.67906094 -20.69881175 12.42350542 -18.3125 7.5625 C-12.55308654 1.18044725 -8.43737025 -0.79544231 0 0 Z " fill="#FDC704" transform="translate(260,357)"/>
<path d="M0 0 C2.4842571 1.23163169 4.92041347 2.51414139 7.3359375 3.875 C7.3359375 4.535 7.3359375 5.195 7.3359375 5.875 C6.42972656 5.80539063 5.52351563 5.73578125 4.58984375 5.6640625 C-2.76694268 5.33709421 -8.07720997 5.39977761 -13.953125 10.12890625 C-18.89096111 15.16820474 -18.81047973 19.51330202 -18.8515625 26.3125 C-18.80365298 28.50036818 -18.745956 30.68814016 -18.6640625 32.875 C-19.3240625 32.875 -19.9840625 32.875 -20.6640625 32.875 C-25.31230762 26.53648393 -26.48811279 21.60047151 -25.6640625 13.875 C-23.99722956 8.55744058 -21.43037867 4.86780318 -16.6640625 1.875 C-10.88716283 -1.12042946 -6.2118721 -2.62319525 0 0 Z " fill="#FAC709" transform="translate(213.6640625,76.125)"/>
<path d="M0 0 C0.33 0 0.66 0 1 0 C1.10867302 1.58179615 1.18589827 3.16577153 1.25 4.75 C1.29640625 5.63171875 1.3428125 6.5134375 1.390625 7.421875 C0.86949147 10.86135633 -0.31704219 11.84004916 -3 14 C-5.56542969 14.45410156 -5.56542969 14.45410156 -8.421875 14.390625 C-9.95908203 14.37128906 -9.95908203 14.37128906 -11.52734375 14.3515625 C-13.12255859 14.30128906 -13.12255859 14.30128906 -14.75 14.25 C-15.82894531 14.23195312 -16.90789062 14.21390625 -18.01953125 14.1953125 C-20.68058788 14.14821415 -23.33984254 14.082456 -26 14 C-25.67 11.36 -25.34 8.72 -25 6 C-24.13048706 5.99383667 -24.13048706 5.99383667 -23.2434082 5.98754883 C-20.59875891 5.95450723 -17.95638161 5.88385736 -15.3125 5.8125 C-13.94448242 5.80379883 -13.94448242 5.80379883 -12.54882812 5.79492188 C-6.63674611 5.6634234 -6.63674611 5.6634234 -1.91796875 2.44921875 C-1.28503906 1.64097656 -0.65210938 0.83273438 0 0 Z " fill="#7A8C99" transform="translate(381,130)"/>
<path d="M0 0 C0.78632813 0.80824219 1.57265625 1.61648437 2.3828125 2.44921875 C6.53083198 5.90590165 10.66060835 5.7771615 15.875 5.8125 C16.75414062 5.83763672 17.63328125 5.86277344 18.5390625 5.88867188 C20.6922332 5.94718195 22.84616221 5.97654236 25 6 C26.76462683 9.08809695 27 10.23312136 27 14 C23.25026094 14.11622939 19.50098536 14.1872595 15.75 14.25 C14.68652344 14.28351563 13.62304688 14.31703125 12.52734375 14.3515625 C11.50253906 14.36445313 10.47773438 14.37734375 9.421875 14.390625 C8.47924805 14.41157227 7.53662109 14.43251953 6.56542969 14.45410156 C3.23337787 13.86430175 2.06812512 12.62170206 0 10 C-0.390625 7.421875 -0.390625 7.421875 -0.25 4.75 C-0.21390625 3.85796875 -0.1778125 2.9659375 -0.140625 2.046875 C-0.09421875 1.37140625 -0.0478125 0.6959375 0 0 Z " fill="#7A8C99" transform="translate(130,130)"/>
<path d="M0 0 C7.92377357 0.45412932 13.70930071 1.24826521 19.25 7.375 C23.52451114 12.40789214 24.24720621 16.77446774 24.125 23.3125 C24.10695313 24.56675781 24.08890625 25.82101563 24.0703125 27.11328125 C24.04710937 28.06589844 24.02390625 29.01851562 24 30 C21.69 30 19.38 30 17 30 C16.97421875 29.0821875 16.9484375 28.164375 16.921875 27.21875 C16.50643546 15.71860749 16.50643546 15.71860749 10.35546875 6.48046875 C7.13295696 4.04427792 3.84808917 2.28269639 0 1 C0 0.67 0 0.34 0 0 Z " fill="#F35345" transform="translate(253,14)"/>
<path d="M0 0 C3.52835744 1.90722024 6.11039388 3.40974836 8 7 C9.56754574 13.20989275 9.11718905 17.43359099 6 23 C3.79874475 25.90165465 1.49120114 27.0133562 -2 28 C-5.03774326 28.31019209 -7.98456041 28.52516083 -11 28 C-12.7734375 26.48046875 -12.7734375 26.48046875 -14 25 C-13.41992188 24.91363281 -12.83984375 24.82726562 -12.2421875 24.73828125 C-6.41074705 23.6893918 -3.19886563 22.19886563 1 18 C2.34832104 15.30335792 2.16910682 13.13412479 2.1875 10.125 C2.20876953 8.55105469 2.20876953 8.55105469 2.23046875 6.9453125 C2.00504937 4.06452929 1.48964317 2.43759792 0 0 Z " fill="#46A6F5" transform="translate(151,10)"/>
<path d="M0 0 C4.34894797 4.23743649 6.15738877 6.11949441 6.375 12.1875 C6.32424002 17.02238789 5.63303909 20.00406767 2.48046875 23.6953125 C-0.97397513 26.73959813 -4.76549672 27.10192842 -9.1875 27.3125 C-13.2003339 26.98357919 -13.58146762 26.8378445 -16 24 C-15.40832031 23.90203125 -14.81664062 23.8040625 -14.20703125 23.703125 C-9.18578296 22.75293772 -5.62510873 21.84481229 -2 18 C0.59138932 13.6810178 0.39442815 8.89824726 0 4 C-0.33 3.01 -0.66 2.02 -1 1 C-0.67 0.67 -0.34 0.34 0 0 Z " fill="#43A8F5" transform="translate(376,11)"/>
</svg>
