<?xml version="1.0" encoding="UTF-8"?>
<svg version="1.1" xmlns="http://www.w3.org/2000/svg" width="192" height="256">
<path d="M0 0 C9.19900263 7.61621001 14.71147896 17.32435711 16.35546875 29.1484375 C16.38517526 31.74775737 16.29852496 34.32114317 16.1953125 36.91796875 C16.37530519 39.42469615 16.97187413 40.5802769 18.35546875 42.6484375 C21.17995424 46.90024306 21.07051161 51.20066967 20.35546875 56.1484375 C19.40335763 58.17167363 18.40773603 60.17543634 17.35546875 62.1484375 C17.31592641 64.48143575 17.31145143 66.81551939 17.35546875 69.1484375 C16.69546875 70.1384375 16.03546875 71.1284375 15.35546875 72.1484375 C16.31179874 73.44158811 17.27060726 74.73290603 18.23046875 76.0234375 C18.76414062 76.74273437 19.2978125 77.46203125 19.84765625 78.203125 C21.35420037 80.23096382 21.35420037 80.23096382 23.35546875 82.1484375 C23.10546875 84.7109375 23.10546875 84.7109375 22.35546875 87.1484375 C19.29013711 88.68110332 16.08792603 88.25120221 12.73046875 88.2109375 C12.0240625 88.20642578 11.31765625 88.20191406 10.58984375 88.19726562 C8.845016 88.18547625 7.10023175 88.16754074 5.35546875 88.1484375 C6.20818359 88.94894531 6.20818359 88.94894531 7.078125 89.765625 C12.64889129 95.14108896 17.07193213 100.72313257 21.35546875 107.1484375 C22.83806618 109.39249688 22.83806618 109.39249688 24.35546875 111.1484375 C25.01546875 111.1484375 25.67546875 111.1484375 26.35546875 111.1484375 C26.71949244 112.58347305 27.07133466 114.02160256 27.41796875 115.4609375 C27.61519531 116.26144531 27.81242187 117.06195313 28.015625 117.88671875 C28.35546875 120.1484375 28.35546875 120.1484375 27.35546875 123.1484375 C27.30603611 125.79875944 27.311823 128.42186622 27.36328125 131.0703125 C27.38080736 132.66926438 27.39771469 134.26822314 27.4140625 135.8671875 C27.44493059 138.37975229 27.48034903 140.89197022 27.52685547 143.40429688 C27.56946853 145.83467785 27.59271644 148.26465784 27.61328125 150.6953125 C27.64121262 151.80818634 27.64121262 151.80818634 27.66970825 152.94354248 C27.69817091 158.79822007 26.38917766 163.14978562 23.0546875 168.06640625 C18.49516949 170.96982346 10.83171914 169.57829106 5.72265625 168.69140625 C3.91633222 168.24144381 2.13163562 167.70566632 0.35546875 167.1484375 C0.35546875 163.5184375 0.35546875 159.8884375 0.35546875 156.1484375 C-0.30453125 156.1484375 -0.96453125 156.1484375 -1.64453125 156.1484375 C-3.4478917 153.49643684 -3.64240758 152.03375911 -3.58203125 148.7734375 C-1.98154943 142.58490778 2.22544271 138.75332066 7.35546875 135.1484375 C8.01546875 135.1484375 8.67546875 135.1484375 9.35546875 135.1484375 C8.86046875 131.6834375 8.86046875 131.6834375 8.35546875 128.1484375 C7.73671875 128.1071875 7.11796875 128.0659375 6.48046875 128.0234375 C4.35546875 127.1484375 4.35546875 127.1484375 3.16796875 124.3359375 C2.73542699 122.63904292 2.31608112 120.93651493 1.99609375 119.21484375 C1.20266085 116.65553885 -0.05885409 115.00249345 -1.70703125 112.8984375 C-2.52880859 111.83882812 -2.52880859 111.83882812 -3.3671875 110.7578125 C-3.78871094 110.22671875 -4.21023437 109.695625 -4.64453125 109.1484375 C-6.55392871 114.44431347 -8.29881782 119.50178477 -8.64453125 125.1484375 C-7.98453125 125.8084375 -7.32453125 126.4684375 -6.64453125 127.1484375 C-6.50927734 129.2487793 -6.50927734 129.2487793 -6.66796875 131.84765625 C-6.71993408 132.80293213 -6.77189941 133.75820801 -6.82543945 134.74243164 C-6.88948975 135.76328857 -6.95354004 136.78414551 -7.01953125 137.8359375 C-7.12686053 139.93219723 -7.23232693 142.02855317 -7.3359375 144.125 C-7.41545654 145.66655762 -7.41545654 145.66655762 -7.49658203 147.23925781 C-7.69111831 151.06449586 -7.86148985 154.88163836 -7.95703125 158.7109375 C-8.01310547 160.38349609 -8.01310547 160.38349609 -8.0703125 162.08984375 C-7.52731922 165.99042847 -6.09090274 168.09813173 -3.64453125 171.1484375 C-2.57203125 171.8084375 -1.49953125 172.4684375 -0.39453125 173.1484375 C0.51296875 173.8084375 1.42046875 174.4684375 2.35546875 175.1484375 C2.35546875 177.1284375 2.35546875 179.1084375 2.35546875 181.1484375 C-7.54453125 181.1484375 -17.44453125 181.1484375 -27.64453125 181.1484375 C-27.97453125 169.2684375 -28.30453125 157.3884375 -28.64453125 145.1484375 C-33.26453125 145.1484375 -37.88453125 145.1484375 -42.64453125 145.1484375 C-42.97453125 157.0284375 -43.30453125 168.9084375 -43.64453125 181.1484375 C-53.54453125 181.1484375 -63.44453125 181.1484375 -73.64453125 181.1484375 C-73.64453125 175.1484375 -73.64453125 175.1484375 -71.96484375 173.390625 C-71.24039063 172.93945312 -70.5159375 172.48828125 -69.76953125 172.0234375 C-66.63098963 170.0323197 -64.84505299 168.73134177 -63.64453125 165.1484375 C-63.36335801 161.88573675 -63.36335801 161.88573675 -63.45703125 158.2734375 C-63.46778687 157.28694214 -63.46778687 157.28694214 -63.47875977 156.28051758 C-63.64140831 146.2023316 -64.55985606 136.16437435 -65.64453125 126.1484375 C-64.98453125 126.1484375 -64.32453125 126.1484375 -63.64453125 126.1484375 C-63.86109375 125.24480469 -64.07765625 124.34117187 -64.30078125 123.41015625 C-64.57921875 122.23066406 -64.85765625 121.05117187 -65.14453125 119.8359375 C-65.42296875 118.66417969 -65.70140625 117.49242187 -65.98828125 116.28515625 C-66.64453125 113.1484375 -66.64453125 113.1484375 -66.64453125 110.1484375 C-71.83998236 115.16473512 -73.71889374 117.87557132 -74.64453125 125.1484375 C-75.30453125 126.1384375 -75.96453125 127.1284375 -76.64453125 128.1484375 C-77.63453125 128.1484375 -78.62453125 128.1484375 -79.64453125 128.1484375 C-79.97453125 130.4584375 -80.30453125 132.7684375 -80.64453125 135.1484375 C-80.10828125 135.3753125 -79.57203125 135.6021875 -79.01953125 135.8359375 C-73.53714078 138.8656796 -69.72657049 142.14726558 -67.64453125 148.1484375 C-67.8800635 151.21035671 -68.27550654 153.41038808 -69.64453125 156.1484375 C-70.30453125 156.1484375 -70.96453125 156.1484375 -71.64453125 156.1484375 C-71.64453125 159.7784375 -71.64453125 163.4084375 -71.64453125 167.1484375 C-78.51809324 169.3048491 -85.47017864 170.25364985 -92.64453125 169.1484375 C-95.74716528 167.1942222 -97.1621953 164.71528515 -98.24780273 161.18873596 C-98.93074107 157.67651542 -98.74394579 154.11462461 -98.70703125 150.55078125 C-98.70135132 149.30476891 -98.70135132 149.30476891 -98.69555664 148.03358459 C-98.68335785 145.38431579 -98.66472677 142.73515669 -98.64453125 140.0859375 C-98.61797259 136.59505501 -98.59796303 133.1042266 -98.58203125 129.61328125 C-98.57373291 128.81010971 -98.56543457 128.00693817 -98.55688477 127.1794281 C-98.5424033 123.90169406 -98.60023267 121.28133323 -99.64453125 118.1484375 C-99.04659452 115.79655303 -98.3857133 113.45918155 -97.64453125 111.1484375 C-96.65453125 111.1484375 -95.66453125 111.1484375 -94.64453125 111.1484375 C-93.32501939 109.31719544 -93.32501939 109.31719544 -92.14453125 106.8984375 C-88.29534714 100.07932453 -83.04796093 94.74416005 -77.64453125 89.1484375 C-78.27101563 89.08785156 -78.8975 89.02726562 -79.54296875 88.96484375 C-80.76886719 88.83916016 -80.76886719 88.83916016 -82.01953125 88.7109375 C-83.23769531 88.58912109 -83.23769531 88.58912109 -84.48046875 88.46484375 C-86.64453125 88.1484375 -86.64453125 88.1484375 -88.64453125 87.1484375 C-89.14880279 82.91255657 -88.9073501 81.49425178 -86.26953125 78.0234375 C-85.40328125 77.0746875 -84.53703125 76.1259375 -83.64453125 75.1484375 C-82.36600838 72.93256402 -82.36600838 72.93256402 -81.64453125 71.1484375 C-82.13953125 70.6534375 -82.13953125 70.6534375 -82.64453125 70.1484375 C-82.58008319 68.18277154 -82.51192123 66.21663918 -82.38671875 64.25390625 C-82.72088467 61.52488459 -83.99749687 60.3153691 -85.64453125 58.1484375 C-87.21976885 52.28616086 -86.78414909 47.83671476 -84.3359375 42.40234375 C-83.42884855 39.44533628 -83.55428915 36.85971739 -83.64453125 33.7734375 C-83.90293905 21.32679524 -78.89841468 11.46038208 -70.51953125 2.3984375 C-51.13015035 -15.95338456 -20.89385533 -14.62878497 0 0 Z " fill="#3BB676" transform="translate(131.64453125,74.8515625)"/>
<path d="M0 0 C9.19900263 7.61621001 14.71147896 17.32435711 16.35546875 29.1484375 C16.38517526 31.74775737 16.29852496 34.32114317 16.1953125 36.91796875 C16.37530519 39.42469615 16.97187413 40.5802769 18.35546875 42.6484375 C21.17995424 46.90024306 21.07051161 51.20066967 20.35546875 56.1484375 C19.40335763 58.17167363 18.40773603 60.17543634 17.35546875 62.1484375 C17.27773415 64.48047562 17.26579147 66.81682809 17.35546875 69.1484375 C17.02546875 69.8084375 16.69546875 70.4684375 16.35546875 71.1484375 C14.37546875 71.1484375 12.39546875 71.1484375 10.35546875 71.1484375 C10.02546875 69.8284375 9.69546875 68.5084375 9.35546875 67.1484375 C6.97019545 67.02028385 6.97019545 67.02028385 4.35546875 68.1484375 C3.39318177 70.03982915 2.44195604 71.93883203 1.58203125 73.87890625 C-1.5169718 79.61304883 -6.4245066 84.17160784 -12.64453125 86.1484375 C-13.63453125 86.1484375 -14.62453125 86.1484375 -15.64453125 86.1484375 C-15.68578125 86.9940625 -15.72703125 87.8396875 -15.76953125 88.7109375 C-17.11729644 94.00572931 -20.09051718 97.20875199 -24.3984375 100.48046875 C-30.138959 103.87205034 -36.14429095 103.99819937 -42.64453125 103.1484375 C-48.75858609 101.42055244 -53.39684982 97.58522065 -56.64453125 92.1484375 C-57.5163381 89.57660729 -58.19776484 86.99713102 -58.87109375 84.3671875 C-59.97180319 81.20959678 -61.96264322 80.04538269 -64.64453125 78.1484375 C-67.03467771 74.80540873 -68.98887307 71.24630111 -69.64453125 67.1484375 C-71.29453125 67.1484375 -72.94453125 67.1484375 -74.64453125 67.1484375 C-75.30453125 68.4684375 -75.96453125 69.7884375 -76.64453125 71.1484375 C-78.3106503 71.1911585 -79.9783601 71.18907582 -81.64453125 71.1484375 C-81.97453125 70.8184375 -82.30453125 70.4884375 -82.64453125 70.1484375 C-82.58008319 68.18277154 -82.51192123 66.21663918 -82.38671875 64.25390625 C-82.72088467 61.52488459 -83.99749687 60.3153691 -85.64453125 58.1484375 C-87.21976885 52.28616086 -86.78414909 47.83671476 -84.3359375 42.40234375 C-83.42884855 39.44533628 -83.55428915 36.85971739 -83.64453125 33.7734375 C-83.90293905 21.32679524 -78.89841468 11.46038208 -70.51953125 2.3984375 C-51.13015035 -15.95338456 -20.89385533 -14.62878497 0 0 Z " fill="#BD7959" transform="translate(131.64453125,74.8515625)"/>
<path d="M0 0 C9.23941775 7.64967126 14.62270742 17.30790174 16.35546875 29.1484375 C16.54582089 32.20272412 16.50863662 35.08508007 16.35546875 38.1484375 C13.15151459 38.1484375 11.26147136 37.40508728 8.35546875 36.1484375 C8.40767578 37.03595703 8.40767578 37.03595703 8.4609375 37.94140625 C8.59080104 41.73218479 8.55035718 44.6179079 7.23046875 48.2109375 C5.35546875 50.1484375 5.35546875 50.1484375 2.23046875 50.5234375 C-0.64453125 50.1484375 -0.64453125 50.1484375 -1.64453125 49.1484375 C-1.92771979 46.30756198 -2.09303338 43.46678535 -2.265625 40.6171875 C-2.39066406 39.8025 -2.51570313 38.9878125 -2.64453125 38.1484375 C-3.30453125 37.8184375 -3.96453125 37.4884375 -4.64453125 37.1484375 C-4.64453125 38.7984375 -4.64453125 40.4484375 -4.64453125 42.1484375 C-10.58453125 42.1484375 -16.52453125 42.1484375 -22.64453125 42.1484375 C-22.64453125 41.4884375 -22.64453125 40.8284375 -22.64453125 40.1484375 C-23.63453125 40.1071875 -24.62453125 40.0659375 -25.64453125 40.0234375 C-32.68786591 39.02539413 -37.96373211 33.12178658 -42.64453125 28.1484375 C-43.30453125 28.4165625 -43.96453125 28.6846875 -44.64453125 28.9609375 C-45.63453125 29.3528125 -46.62453125 29.7446875 -47.64453125 30.1484375 C-48.24910156 30.38949219 -48.85367188 30.63054687 -49.4765625 30.87890625 C-54.14199888 32.69170895 -58.76850543 34.01650293 -63.64453125 35.1484375 C-63.73541016 36.64697266 -63.73541016 36.64697266 -63.828125 38.17578125 C-63.91191406 39.46613281 -63.99570313 40.75648437 -64.08203125 42.0859375 C-64.16324219 43.37371094 -64.24445313 44.66148438 -64.328125 45.98828125 C-64.64453125 49.1484375 -64.64453125 49.1484375 -65.64453125 50.1484375 C-68.51953125 50.5234375 -68.51953125 50.5234375 -71.64453125 50.1484375 C-74.58935404 47.10545395 -74.81280593 44.3988877 -74.83203125 40.3359375 C-74.78419329 38.93952478 -74.72657953 37.54325829 -74.64453125 36.1484375 C-78.96825018 38.17476819 -78.96825018 38.17476819 -82.64453125 41.1484375 C-84.45634313 39.33662562 -83.86033284 36.65327359 -83.89453125 34.2109375 C-83.75649599 21.56690733 -79.07740705 11.65396622 -70.51953125 2.3984375 C-51.13015035 -15.95338456 -20.89385533 -14.62878497 0 0 Z " fill="#404347" transform="translate(131.64453125,74.8515625)"/>
<path d="M0 0 C0.33 0 0.66 0 1 0 C0.97905273 0.9379541 0.95810547 1.8759082 0.93652344 2.84228516 C0.86810627 6.34238625 0.81808414 9.84177066 0.78027344 13.34228516 C0.76023209 14.85346736 0.73299095 16.36457272 0.69824219 17.87548828 C0.64938891 20.05520643 0.62695776 22.23389431 0.609375 24.4140625 C0.58842773 25.7232666 0.56748047 27.0324707 0.54589844 28.38134766 C1.07857023 32.62611183 2.30237215 34.71774505 5 38 C6.0725 38.66 7.145 39.32 8.25 40 C9.1575 40.66 10.065 41.32 11 42 C11 43.98 11 45.96 11 48 C1.1 48 -8.8 48 -19 48 C-19.33 36.12 -19.66 24.24 -20 12 C-24.62 12 -29.24 12 -34 12 C-34.33 23.88 -34.66 35.76 -35 48 C-44.9 48 -54.8 48 -65 48 C-65 42 -65 42 -63.3203125 40.2421875 C-62.59585938 39.79101562 -61.87140625 39.33984375 -61.125 38.875 C-57.9281306 36.84687856 -56.36211119 35.55985967 -55 32 C-54.72455865 28.80305813 -54.72455865 28.80305813 -54.8046875 25.265625 C-54.80968262 24.09805664 -54.81467773 22.93048828 -54.81982422 21.72753906 C-54.83803223 20.24995117 -54.85624023 18.77236328 -54.875 17.25 C-54.91625 12.5475 -54.9575 7.845 -55 3 C-36.85 3 -18.7 3 0 3 C0 2.01 0 1.02 0 0 Z " fill="#6366BD" transform="translate(123,208)"/>
<path d="M0 0 C1.5543704 3.1087408 1.18391532 6.41079079 1.203125 9.82421875 C1.20882507 10.60384476 1.21452515 11.38347076 1.22039795 12.1867218 C1.22985357 13.84020632 1.23638416 15.49370973 1.24023438 17.1472168 C1.24989557 19.66033585 1.28089398 22.1726214 1.3125 24.68554688 C1.31903474 26.29426599 1.32428336 27.90299095 1.328125 29.51171875 C1.3404718 30.2567717 1.3528186 31.00182465 1.36553955 31.76945496 C1.34095106 37.6174325 0.03009261 42.00668027 -3.30078125 46.91796875 C-7.86029926 49.82138596 -15.52374961 48.42985356 -20.6328125 47.54296875 C-22.43913653 47.09300631 -24.22383313 46.55722882 -26 46 C-26 42.37 -26 38.74 -26 35 C-26.66 35 -27.32 35 -28 35 C-29.80336045 32.34799934 -29.99787633 30.88532161 -29.9375 27.625 C-28.33701818 21.43647028 -24.13002604 17.60488316 -19 14 C-18.34 14 -17.68 14 -17 14 C-17.66 11.36 -18.32 8.72 -19 6 C-16.58660204 4.99141578 -14.16981325 3.99297327 -11.75 3 C-11.06808594 2.71382812 -10.38617188 2.42765625 -9.68359375 2.1328125 C-6.18584265 0.70654506 -3.83099811 0 0 0 Z " fill="#B37354" transform="translate(158,196)"/>
<path d="M0 0 C2.7087927 0.66066345 5.28248622 1.42158752 7.890625 2.41015625 C8.59960938 2.67763672 9.30859375 2.94511719 10.0390625 3.22070312 C10.76867188 3.49849609 11.49828125 3.77628906 12.25 4.0625 C12.99507812 4.34416016 13.74015625 4.62582031 14.5078125 4.91601562 C16.33929393 5.6086913 18.16974923 6.30407907 20 7 C19.34 9.64 18.68 12.28 18 15 C18.53625 15.226875 19.0725 15.45375 19.625 15.6875 C25.10739047 18.7172421 28.91796076 21.99882808 31 28 C30.76446775 31.06191921 30.36902471 33.26195058 29 36 C28.34 36 27.68 36 27 36 C27 39.63 27 43.26 27 47 C20.12643801 49.1564116 13.17435261 50.10521235 6 49 C2.90021155 47.04757701 1.4852222 44.57179983 0.39772034 41.04901123 C-0.00673248 38.96531499 -0.12041117 37.08663952 -0.11352539 34.96582031 C-0.11344986 34.18531311 -0.11337433 33.40480591 -0.11329651 32.60064697 C-0.10813522 31.76821472 -0.10297394 30.93578247 -0.09765625 30.078125 C-0.0962413 29.21813904 -0.09482635 28.35815308 -0.09336853 27.47210693 C-0.08778097 24.73136891 -0.07523075 21.99071324 -0.0625 19.25 C-0.05748339 17.3893241 -0.05292077 15.52864691 -0.04882812 13.66796875 C-0.03781561 9.11194754 -0.02055951 4.55598772 0 0 Z " fill="#B37354" transform="translate(33,195)"/>
<path d="M0 0 C0.82669189 0.00418945 1.65338379 0.00837891 2.50512695 0.01269531 C13.69238958 0.21786606 24.77555622 2.61374901 33.25 10.3125 C34.054375 11.3025 34.85875 12.2925 35.6875 13.3125 C35.33984375 15.5 35.33984375 15.5 34.6875 17.3125 C33.94886719 17.04695313 33.21023437 16.78140625 32.44921875 16.5078125 C30.92748047 15.97800781 30.92748047 15.97800781 29.375 15.4375 C28.38886719 15.08945313 27.40273437 14.74140625 26.38671875 14.3828125 C17.46129552 11.80037748 8.77118184 10.9245323 -0.5 10.9375 C-1.58772705 10.93766113 -2.6754541 10.93782227 -3.79614258 10.93798828 C-12.83224858 11.0650972 -20.74618577 12.45358392 -29.3125 15.3125 C-30.44300781 15.68632813 -31.57351562 16.06015625 -32.73828125 16.4453125 C-33.58777344 16.73148438 -34.43726563 17.01765625 -35.3125 17.3125 C-34.69972388 14.35074877 -34.05877478 12.93191217 -32.3125 10.3125 C-31.6525 10.3125 -30.9925 10.3125 -30.3125 10.3125 C-30.3125 9.6525 -30.3125 8.9925 -30.3125 8.3125 C-28.50701263 7.34101949 -26.69264699 6.38603489 -24.875 5.4375 C-23.86566406 4.90382813 -22.85632813 4.37015625 -21.81640625 3.8203125 C-14.68876451 0.75312219 -7.70688116 -0.05388873 0 0 Z " fill="#6F9EB9" transform="translate(98.3125,80.6875)"/>
<path d="M0 0 C19.47 0 38.94 0 59 0 C58.34 3.3 57.68 6.6 57 10 C38.52 10 20.04 10 1 10 C0.67 6.7 0.34 3.4 0 0 Z " fill="#3B3D40" transform="translate(66,201)"/>
<path d="M0 0 C0.67546875 0.20496094 1.3509375 0.40992188 2.046875 0.62109375 C2.93890625 0.89050781 3.8309375 1.15992188 4.75 1.4375 C5.63171875 1.70433594 6.5134375 1.97117188 7.421875 2.24609375 C11.0362941 3.30303752 14.22981932 4.12650107 18.01171875 4.1328125 C19.14311279 4.13571289 19.14311279 4.13571289 20.29736328 4.13867188 C21.0861084 4.13416016 21.87485352 4.12964844 22.6875 4.125 C23.8938208 4.12209961 23.8938208 4.12209961 25.12451172 4.11914062 C30.48240363 4.08007153 35.69356297 3.78613882 41 3 C40.67686949 8.33165342 37.77141218 11.51742683 34 15 C27.96092539 19.59991874 21.36469312 19.96276986 14 19 C7.90452258 17.27736508 3.2475466 13.42385387 0 8 C-0.9375 4.125 -0.9375 4.125 -1 1 C-0.67 0.67 -0.34 0.34 0 0 Z " fill="#9A6348" transform="translate(75,159)"/>
<path d="M0 0 C3.06627706 -0.21665549 6.11727238 -0.37459318 9.1875 -0.5 C10.05181641 -0.56703125 10.91613281 -0.6340625 11.80664062 -0.703125 C14.42376535 -0.78334338 16.4868787 -0.75115122 19 0 C20.76661711 1.90810696 21.81902516 3.71385607 22.92773438 6.06005859 C24.00635885 8.37459019 24.00635885 8.37459019 27.3125 10.125 C28.6428125 11.053125 28.6428125 11.053125 30 12 C30 13.98 30 15.96 30 18 C20.1 18 10.2 18 0 18 C0 12.06 0 6.12 0 0 Z " fill="#B1C4D3" transform="translate(104,238)"/>
<path d="M0 0 C6.27 0 12.54 0 19 0 C19 5.94 19 11.88 19 18 C9.1 18 -0.8 18 -11 18 C-11 12 -11 12 -9.35546875 10.3125 C-8.64003906 9.879375 -7.92460938 9.44625 -7.1875 9 C-2.77665818 6.3004684 -2.65094933 5.30189867 0 0 Z " fill="#B1C4D3" transform="translate(69,238)"/>
<path d="M0 0 C1.65 0 3.3 0 5 0 C5.33 1.32 5.66 2.64 6 4 C6.70125 4 7.4025 4 8.125 4 C12.05262351 5.36612992 13.36221451 7.73767861 15.66796875 11.08984375 C16.99519842 13.11222796 16.99519842 13.11222796 19 15 C18.75 17.5625 18.75 17.5625 18 20 C11.40712711 23.29643645 1.45398408 20.88832953 -5.4765625 19.4453125 C-9.04007427 18.81645748 -12.39072077 18.86380078 -16 19 C-15.34 18.525625 -14.68 18.05125 -14 17.5625 C-8.19501104 12.60407193 -2.92440942 7.12824796 0 0 Z " fill="#393B3D" transform="translate(136,142)"/>
<path d="M0 0 C1.65 0 3.3 0 5 0 C5.36351562 0.77923828 5.36351562 0.77923828 5.734375 1.57421875 C8.36203401 7.04177077 10.83742148 11.55828099 16 15 C16 16.32 16 17.64 16 19 C-8.91699605 22.54150198 -8.91699605 22.54150198 -14 20 C-14.49944304 15.80467846 -14.25247471 14.34118205 -11.6875 10.875 C-10.800625 9.92625 -9.91375 8.9775 -9 8 C-8.505 7.2575 -8.01 6.515 -7.5 5.75 C-5.60169885 3.53531533 -3.70146326 2.99527594 -1 2 C-0.67 1.34 -0.34 0.68 0 0 Z " fill="#3A3B3E" transform="translate(57,142)"/>
<path d="M0 0 C4.84824868 0.41556417 6.88036862 2.37448245 10 6 C12.69482756 10.48824939 12.67195936 14.89779696 12 20 C10.91870041 22.65623594 9.65192806 24.62535342 8 27 C6 25 6 25 5 22 C3.35 22 1.7 22 0 22 C-0.33 22.99 -0.66 23.98 -1 25 C-1.99 24.67 -2.98 24.34 -4 24 C-3.88529863 22.24929483 -3.75780972 20.49942464 -3.625 18.75 C-3.55539063 17.77546875 -3.48578125 16.8009375 -3.4140625 15.796875 C-3.00817411 13.05521379 -2.25296782 11.42762515 -1 9 C-0.55188863 6.64435404 -0.55188863 6.64435404 -0.375 4.25 C-0.30023438 3.45078125 -0.22546875 2.6515625 -0.1484375 1.828125 C-0.09945312 1.22484375 -0.05046875 0.6215625 0 0 Z " fill="#B27456" transform="translate(140,111)"/>
<path d="M0 0 C0.391875 0.53625 0.78375 1.0725 1.1875 1.625 C1.785625 2.40875 2.38375 3.1925 3 4 C4.0828125 5.485 4.0828125 5.485 5.1875 7 C8.97856987 11.41917612 13.10489585 13.57796166 18.8671875 14.41796875 C26.07413563 14.75722712 31.2793457 13.45480739 37 9 C39.38388916 6.56391207 39.38388916 6.56391207 41 4 C41.86625 2.8553125 41.86625 2.8553125 42.75 1.6875 C43.36875 0.8521875 43.36875 0.8521875 44 0 C44.47621014 3.8890495 44.78739284 7.44331531 42.98046875 11.015625 C39.25768684 15.73319987 34.83720173 18.6027095 29 20 C20.9152647 20.84324659 12.61620336 21.35830791 6 16 C0.10962928 10.18381531 0.10962928 10.18381531 -0.09765625 6.0546875 C-0.06510417 4.03645833 -0.03255208 2.01822917 0 0 Z " fill="#D8D9D8" transform="translate(73,163)"/>
<path d="M0 0 C0.13277344 0.85464844 0.26554687 1.70929688 0.40234375 2.58984375 C0.57894531 3.69457031 0.75554688 4.79929687 0.9375 5.9375 C1.11152344 7.03964844 1.28554688 8.14179687 1.46484375 9.27734375 C1.71845136 11.90426929 1.71845136 11.90426929 3 13 C3.23427778 15.01594582 3.41336124 17.038474 3.5625 19.0625 C3.64628906 20.16722656 3.73007812 21.27195313 3.81640625 22.41015625 C3.87699219 23.26480469 3.93757813 24.11945313 4 25 C3.34 25 2.68 25 2 25 C1.67 24.01 1.34 23.02 1 22 C-0.98 22 -2.96 22 -5 22 C-5.33 23.32 -5.66 24.64 -6 26 C-8.93389328 25.02203557 -9.85552043 24.27519918 -11.3125 21.5 C-12.45562269 15.6804663 -12.33396778 10.00095167 -9 5 C-8.34 5 -7.68 5 -7 5 C-6.67 4.01 -6.34 3.02 -6 2 C-3 0 -3 0 0 0 Z " fill="#B17456" transform="translate(57,111)"/>
<path d="M0 0 C0.72015289 -0.0033284 1.44030579 -0.0066568 2.18228149 -0.01008606 C3.70712647 -0.01515175 5.23198255 -0.0174945 6.75683594 -0.01733398 C9.08547351 -0.01951617 11.41363405 -0.03766321 13.7421875 -0.05664062 C15.22395671 -0.05957552 16.70572818 -0.06155967 18.1875 -0.0625 C19.2298732 -0.07327827 19.2298732 -0.07327827 20.29330444 -0.08427429 C23.94256751 -0.06710506 26.62312734 0.16723931 29.7265625 2.16796875 C29.7265625 2.82796875 29.7265625 3.48796875 29.7265625 4.16796875 C18.75918533 10.29972962 2.4295683 7.28206012 -9.2734375 5.16796875 C-9.2734375 3.84796875 -9.2734375 2.52796875 -9.2734375 1.16796875 C-6.30004184 -0.31872908 -3.26051035 0.00519107 0 0 Z " fill="#25A160" transform="translate(85.2734375,182.83203125)"/>
<path d="M0 0 C2.9375 1.9375 2.9375 1.9375 5 5 C5.42497387 9.18379443 5.00589346 12.72328907 2.375 16.0625 C-0.98030486 17.38696244 -3.42623292 17.44672088 -7 17 C-10.00342896 14.94502229 -10.83287356 13.52366286 -11.9375 10.0625 C-12.0128328 6.37119268 -11.24574926 4.8873919 -9 2 C-5.48175489 -0.34549674 -4.14224306 -0.57991403 0 0 Z " fill="#EEE9E7" transform="translate(85,121)"/>
<path d="M0 0 C0.66 2.97 1.32 5.94 2 9 C-1.32462807 10.35581362 -4.65936591 11.68412689 -8 13 C-8.99257812 13.39316406 -9.98515625 13.78632813 -11.0078125 14.19140625 C-12.45800781 14.74634766 -12.45800781 14.74634766 -13.9375 15.3125 C-15.28134766 15.83263672 -15.28134766 15.83263672 -16.65234375 16.36328125 C-19 17 -19 17 -22 16 C-23.1875 12.9375 -23.1875 12.9375 -24 10 C-22.62328125 9.41992188 -22.62328125 9.41992188 -21.21875 8.828125 C-13.14365119 5.4250844 -13.14365119 5.4250844 -5.25 1.625 C-2 0 -2 0 0 0 Z " fill="#25A15F" transform="translate(158,186)"/>
<path d="M0 0 C1.00353516 0.40412109 1.00353516 0.40412109 2.02734375 0.81640625 C4.22302506 1.69063941 6.42445649 2.55046273 8.62890625 3.40234375 C9.94014751 3.91395142 11.25134458 4.42567237 12.5625 4.9375 C13.22185547 5.18951172 13.88121094 5.44152344 14.56054688 5.70117188 C18.09843502 7.09143747 21.09865519 8.52684348 24 11 C23.01 12.98 22.02 14.96 21 17 C13.28267891 14.47191206 5.64054098 11.74972528 -2 9 C-1.34 6.03 -0.68 3.06 0 0 Z " fill="#26A15F" transform="translate(34,186)"/>
<path d="M0 0 C6.27 0 12.54 0 19 0 C19 3.3 19 6.6 19 10 C12.73 10 6.46 10 0 10 C0 6.7 0 3.4 0 0 Z " fill="#B97657" transform="translate(104,228)"/>
<path d="M0 0 C6.27 0 12.54 0 19 0 C19 3.3 19 6.6 19 10 C12.73 10 6.46 10 0 10 C0 6.7 0 3.4 0 0 Z " fill="#B97657" transform="translate(69,228)"/>
<path d="M0 0 C9.9 0 19.8 0 30 0 C30 1.98 30 3.96 30 6 C20.1 6 10.2 6 0 6 C0 4.02 0 2.04 0 0 Z " fill="#D6D6D6" transform="translate(104,250)"/>
<path d="M0 0 C9.9 0 19.8 0 30 0 C30 1.98 30 3.96 30 6 C20.1 6 10.2 6 0 6 C0 4.02 0 2.04 0 0 Z " fill="#D6D6D6" transform="translate(58,250)"/>
<path d="M0 0 C2.31 0 4.62 0 7 0 C7.33 0.99 7.66 1.98 8 3 C6.85546875 4.7890625 6.85546875 4.7890625 5.1875 6.625 C4.64480469 7.23601562 4.10210937 7.84703125 3.54296875 8.4765625 C0.77066364 11.21377514 -1.52298518 11.24167472 -5.3125 11.375 C-6.25738281 11.42398438 -7.20226562 11.47296875 -8.17578125 11.5234375 C-11 11 -11 11 -16 6 C-10.72 6 -5.44 6 0 6 C0 4.02 0 2.04 0 0 Z " fill="#A8603F" transform="translate(104,145)"/>
<path d="M0 0 C1.05960938 0.00676758 1.05960938 0.00676758 2.140625 0.01367188 C3.88545275 0.02546125 5.630237 0.04339676 7.375 0.0625 C7.375 2.3725 7.375 4.6825 7.375 7.0625 C4.72909986 7.08934679 2.08346904 7.10926357 -0.5625 7.125 C-1.69461914 7.13756836 -1.69461914 7.13756836 -2.84960938 7.15039062 C-4.77494313 7.15902441 -6.70035581 7.11474333 -8.625 7.0625 C-9.625 6.0625 -9.625 6.0625 -9.6875 3.5 C-9.666875 2.695625 -9.64625 1.89125 -9.625 1.0625 C-6.55966836 -0.47016582 -3.35745728 -0.04026471 0 0 Z " fill="#FAF4F2" transform="translate(95.625,143.9375)"/>
<path d="M0 0 C1.65 0 3.3 0 5 0 C4.360625 0.61875 3.72125 1.2375 3.0625 1.875 C-1.95383668 6.89133668 -7.06109648 12.09164472 -11 18 C-7.37 18.66 -3.74 19.32 0 20 C0 20.33 0 20.66 0 21 C-1.95825873 21.02694851 -3.91662226 21.04637218 -5.875 21.0625 C-6.96554688 21.07410156 -8.05609375 21.08570313 -9.1796875 21.09765625 C-12 21 -12 21 -14 20 C-14.49944304 15.80467846 -14.25247471 14.34118205 -11.6875 10.875 C-10.800625 9.92625 -9.91375 8.9775 -9 8 C-8.505 7.2575 -8.01 6.515 -7.5 5.75 C-5.60169885 3.53531533 -3.70146326 2.99527594 -1 2 C-0.67 1.34 -0.34 0.68 0 0 Z " fill="#4A4E52" transform="translate(57,142)"/>
<path d="M0 0 C2.875 -0.1875 2.875 -0.1875 6 0 C8.46324069 3.69486103 8.38991688 5.63293092 8 10 C6.8125 11.9375 6.8125 11.9375 5 13 C2.4375 13.375 2.4375 13.375 0 13 C-2.80541099 8.79188352 -1.85569482 6.90079759 -1 2 C-0.67 1.34 -0.34 0.68 0 0 Z " fill="#47494C" transform="translate(111,123)"/>
<path d="M0 0 C1.98 0 3.96 0 6 0 C6.28999065 8.55472404 6.28999065 8.55472404 4 13 C3 14 3 14 0.5 14.125 C-2 14 -2 14 -3 13 C-3.49432386 7.80959948 -2.19790854 4.57897612 0 0 Z " fill="#E3995C" transform="translate(52,132)"/>
<path d="M0 0 C1.2375 0.1546875 1.2375 0.1546875 2.5 0.3125 C4.95811625 3.99967438 4.81118164 5.95595704 4.5 10.3125 C3.51 11.7975 3.51 11.7975 2.5 13.3125 C0 13.625 0 13.625 -2.5 13.3125 C-4.5 11.3125 -4.5 11.3125 -4.765625 9.21875 C-4.75789063 8.02765625 -4.75789063 8.02765625 -4.75 6.8125 C-4.75515625 6.0184375 -4.7603125 5.224375 -4.765625 4.40625 C-4.35175901 1.14401222 -3.18116387 0.39764548 0 0 Z " fill="#3F4144" transform="translate(83.5,122.6875)"/>
<path d="M0 0 C1.2065625 0.0309375 1.2065625 0.0309375 2.4375 0.0625 C6.51627462 8.09751094 6.51627462 8.09751094 6.1875 12.125 C5.94 12.764375 5.6925 13.40375 5.4375 14.0625 C3.4575 14.0625 1.4775 14.0625 -0.5625 14.0625 C-4.08779183 5.39615759 -4.08779183 5.39615759 -3.5625 1.0625 C-2.5625 0.0625 -2.5625 0.0625 0 0 Z " fill="#E1995E" transform="translate(142.5625,131.9375)"/>
<path d="M0 0 C0.99 0.66 1.98 1.32 3 2 C3.375 4.5 3.375 4.5 3 7 C-0.68717438 9.45811625 -2.64345704 9.31118164 -7 9 C-7.99 8.34 -8.98 7.68 -10 7 C-10.375 4.5 -10.375 4.5 -10 2 C-6.31282562 -0.45811625 -4.35654296 -0.31118164 0 0 Z " fill="#965536" transform="translate(102,131)"/>
<path d="M0 0 C3.875 1.75 3.875 1.75 5 4 C5.50871795 9.34153846 5.50871795 9.34153846 5 12 C2.5625 13.8125 2.5625 13.8125 0 15 C-0.33 15.99 -0.66 16.98 -1 18 C-1.99 17.67 -2.98 17.34 -4 17 C-3.67373505 10.67721029 -3.38495108 5.44535609 0 0 Z " fill="#A65F3F" transform="translate(140,118)"/>
<path d="M0 0 C0.66 0 1.32 0 2 0 C5.61752739 5.66221678 5.69040043 11.40232633 6 18 C5.34 18 4.68 18 4 18 C3.67 17.01 3.34 16.02 3 15 C0.49552484 13.78130071 0.49552484 13.78130071 -2 13 C-3.19876651 7.55106131 -2.91360308 4.77830905 0 0 Z " fill="#A55F3F" transform="translate(55,118)"/>
<path d="M0 0 C1.65 0 3.3 0 5 0 C5.33 1.32 5.66 2.64 6 4 C6.70125 4 7.4025 4 8.125 4 C12.05262351 5.36612992 13.36221451 7.73767861 15.66796875 11.08984375 C16.99519842 13.11222796 16.99519842 13.11222796 19 15 C18.625 17.625 18.625 17.625 18 20 C15.77758988 18.88879494 14.89173444 17.836908 13.3125 15.9375 C10.46311593 12.54338074 7.55196437 9.2115276 4.61328125 5.89453125 C2.98842033 3.98640159 1.48253172 2.02000545 0 0 Z " fill="#494C50" transform="translate(136,142)"/>
<path d="M0 0 C5.69051363 0.5381371 11.34865884 1.1400133 17 2 C17.33 3.32 17.66 4.64 18 6 C11.56688704 6.09507063 5.34241995 6.15316726 -1 5 C-0.67 3.35 -0.34 1.7 0 0 Z " fill="#434142" transform="translate(71,112)"/>
<path d="M0 0 C4.05886955 0.23416555 6.35661366 0.45312161 9.5 3.125 C11.49546009 6.94963184 11.19379979 8.89631321 10 13 C8.3125 15.4375 8.3125 15.4375 6 17 C2.75 17.25 2.75 17.25 0 17 C0.99 16.67 1.98 16.34 3 16 C5.51860496 12.55348795 5.30094221 9.13795536 5 5 C3.16666667 1.83333333 3.16666667 1.83333333 0 0 Z " fill="#F8F6F5" transform="translate(113,121)"/>
<path d="M0 0 C0.66 0.66 1.32 1.32 2 2 C1.79296875 4.78515625 1.79296875 4.78515625 1.1875 8.0625 C0.89939453 9.68865234 0.89939453 9.68865234 0.60546875 11.34765625 C0 14 0 14 -1 15 C-2.99958364 15.04080783 -5.00045254 15.04254356 -7 15 C-7.50632171 9.68362203 -6.24708376 7.17482197 -3 3 C-1.25 1.125 -1.25 1.125 0 0 Z " fill="#319F63" transform="translate(123,186)"/>
<path d="M0 0 C5.75 4.625 5.75 4.625 8 8 C8.07905064 10.33199388 8.08798769 12.66832622 8 15 C6.02 15 4.04 15 2 15 C1.47217261 12.68889138 0.95246631 10.37647528 0.4375 8.0625 C0.28603516 7.40314453 0.13457031 6.74378906 -0.02148438 6.06445312 C-0.39173308 4.3854183 -0.70072071 2.69312549 -1 1 C-0.67 0.67 -0.34 0.34 0 0 Z " fill="#29A162" transform="translate(66,186)"/>
<path d="M0 0 C2.9664161 0.3178303 4.01076795 1.0104603 6.1875 3.125 C8.34967161 6.55465152 8.85322527 8.96369502 9 13 C8.0625 15.4375 8.0625 15.4375 7 17 C6.34 17 5.68 17 5 17 C4.80664062 16.19175781 4.61328125 15.38351563 4.4140625 14.55078125 C4.15367188 13.48214844 3.89328125 12.41351563 3.625 11.3125 C3.36976562 10.25675781 3.11453125 9.20101562 2.8515625 8.11328125 C2.08094511 5.29593234 1.14501457 2.68331675 0 0 Z " fill="#9C6A4E" transform="translate(55,214)"/>
<path d="M0 0 C1.38518678 2.77037357 0.56456961 3.97009213 -0.375 6.875 C-1.3422407 9.90327697 -2.26609336 12.90607985 -3 16 C-3.66 16 -4.32 16 -5 16 C-6.80581977 13.34438268 -7 11.82889767 -7 8.5625 C-5.68019442 3.86069263 -3.92804487 2.75798895 0 0 Z " fill="#A0674B" transform="translate(135,215)"/>
<path d="M0 0 C0.66 2.97 1.32 5.94 2 9 C0.35 9.33 -1.3 9.66 -3 10 C-3.54372951 6.94152152 -4 4.11227195 -4 1 C-2 0 -2 0 0 0 Z " fill="#399C64" transform="translate(158,186)"/>
<path d="M0 0 C0.66 0.33 1.32 0.66 2 1 C-0.11905463 3.17277714 -2.24472878 5.33826908 -4.375 7.5 C-4.97828125 8.12003906 -5.5815625 8.74007812 -6.203125 9.37890625 C-6.78320312 9.96542969 -7.36328125 10.55195312 -7.9609375 11.15625 C-8.49509277 11.70087891 -9.02924805 12.24550781 -9.57958984 12.80664062 C-11 14 -11 14 -13 14 C-11.54238919 10.63163511 -9.6759774 8.43494248 -7.0625 5.875 C-6.37285156 5.19179687 -5.68320312 4.50859375 -4.97265625 3.8046875 C-3 2 -3 2 0 0 Z " fill="#52575A" transform="translate(69,71)"/>
<path d="M0 0 C0.66 0.33 1.32 0.66 2 1 C-0.31 3.64 -2.62 6.28 -5 9 C-1.37 9.66 2.26 10.32 6 11 C6 11.33 6 11.66 6 12 C2.04 12 -1.92 12 -6 12 C-6 6 -6 6 -4.6875 4.1015625 C-2.34375 2.05078125 -2.34375 2.05078125 0 0 Z " fill="#46484B" transform="translate(51,151)"/>
<path d="M0 0 C1.03159626 3.09478879 0.97482862 4.52631393 0.5625 7.6875 C0.46066406 8.49574219 0.35882813 9.30398437 0.25390625 10.13671875 C0.17011719 10.75160156 0.08632812 11.36648437 0 12 C-1.32 12 -2.64 12 -4 12 C-4.50423019 6.70558305 -3.18923033 4.18586481 0 0 Z " fill="#23A360" transform="translate(120,189)"/>
<path d="M0 0 C2.475 0.99 2.475 0.99 5 2 C3.125 7.75 3.125 7.75 2 10 C0.68 9.67 -0.64 9.34 -2 9 C-1.34 6.03 -0.68 3.06 0 0 Z " fill="#2AA061" transform="translate(34,186)"/>
<path d="M0 0 C2.97 0 5.94 0 9 0 C7.515 2.475 7.515 2.475 6 5 C2.83884224 3.63016497 2.0072908 3.0109362 0 0 Z " fill="#4A4A4B" transform="translate(119,121)"/>
<path d="M0 0 C1.485 0.99 1.485 0.99 3 2 C2.814375 2.78375 2.62875 3.5675 2.4375 4.375 C1.74037734 6.97089775 1.74037734 6.97089775 3 9 C1.02 9.99 1.02 9.99 -1 11 C-0.67 7.37 -0.34 3.74 0 0 Z " fill="#37A56C" transform="translate(117,163)"/>
<path d="M0 0 C2.64 0 5.28 0 8 0 C6.02 2.97 6.02 2.97 4 6 C0 1.125 0 1.125 0 0 Z " fill="#434446" transform="translate(70,121)"/>
<path d="M0 0 C4.455 0.99 4.455 0.99 9 2 C9 2.33 9 2.66 9 3 C5.7 3.33 2.4 3.66 -1 4 C-0.67 2.68 -0.34 1.36 0 0 Z " fill="#B27355" transform="translate(113,109)"/>
<path d="M0 0 C4 4 4 4 4.171875 6.140625 C3.78125 8.09375 3.390625 10.046875 3 12 C2.67 12 2.34 12 2 12 C1.34 8.04 0.68 4.08 0 0 Z " fill="#9E5E40" transform="translate(58,219)"/>
<path d="M0 0 C0.99 0 1.98 0 3 0 C3.33 0.99 3.66 1.98 4 3 C5.49985609 4.66710346 5.49985609 4.66710346 7 6 C5.68 6.33 4.36 6.66 3 7 C2.01 4.69 1.02 2.38 0 0 Z " fill="#389B63" transform="translate(134,196)"/>
<path d="M0 0 C0.33 0 0.66 0 1 0 C1.125 3.375 1.125 3.375 1 7 C0.34 7.66 -0.32 8.32 -1 9 C-1.625 6.1875 -1.625 6.1875 -2 3 C-1.34 2.01 -0.68 1.02 0 0 Z " fill="#9E5E40" transform="translate(132,220)"/>
<path d="M0 0 C0.66 0.33 1.32 0.66 2 1 C1.01 2.98 0.02 4.96 -1 7 C-2.65 6.67 -4.3 6.34 -6 6 C-5.195625 5.38125 -4.39125 4.7625 -3.5625 4.125 C-0.96125481 2.25835959 -0.96125481 2.25835959 0 0 Z " fill="#3E9963" transform="translate(56,196)"/>
<path d="M0 0 C0.99 0.33 1.98 0.66 3 1 C1.66666667 3.66666667 0.33333333 6.33333333 -1 9 C-2.60031344 5.79937313 -1.03173691 3.27728194 0 0 Z " fill="#3F9C68" transform="translate(34,186)"/>
<path d="M0 0 C0.66 0 1.32 0 2 0 C2.33 2.31 2.66 4.62 3 7 C2.01 6.67 1.02 6.34 0 6 C0 4.02 0 2.04 0 0 Z " fill="#DD9F6B" transform="translate(49,139)"/>
</svg>
